<?xml version="1.0" encoding="utf-8"?>
<!-- Generator: Adobe Illustrator 17.1.0, SVG Export Plug-In . SVG Version: 6.00 Build 0)  -->
<!DOCTYPE svg PUBLIC "-//W3C//DTD SVG 1.1//EN" "http://www.w3.org/Graphics/SVG/1.1/DTD/svg11.dtd">
<svg version="1.1" id="Layer_1" xmlns="http://www.w3.org/2000/svg" xmlns:xlink="http://www.w3.org/1999/xlink" x="0px" y="0px"
	 viewBox="0 42.8 425.2 87.4" enable-background="new 0 42.8 425.2 87.4" xml:space="preserve">
<path fill="#162C53" d="M1.3,44.8h76.2v84.1H1.3V44.8z M0.1,130.2h78.6V43.6H0.1V130.2z"/>
<path fill="#162C53" d="M130.2,52.1c0-4-2.4-6.4-7.1-6.4h-7.8c-0.2,0-0.3,0.1-0.3,0.3v12.1c0,0.2,0.1,0.3,0.3,0.3h7.8
	C127.7,58.4,130.2,56,130.2,52.1 M112.8,74.3c-0.3,0-0.4-0.2-0.4-0.4V43.6c0-0.3,0.2-0.4,0.4-0.4h10.4c5.9,0,9.6,3.4,9.6,8.8
	s-3.7,8.8-9.6,8.8h-7.9c-0.2,0-0.3,0.1-0.3,0.3v12.8c0,0.3-0.2,0.4-0.4,0.4H112.8z"/>
<path fill="#162C53" d="M156.1,63.8l-5.8-16.3H150l-5.8,16.3H156.1z M148.8,43.6c0.1-0.3,0.3-0.4,0.5-0.4h1.7c0.3,0,0.4,0.2,0.5,0.4
	l10.8,30.2c0.1,0.3,0,0.4-0.3,0.4h-1.7c-0.3,0-0.5-0.1-0.6-0.4l-2.8-7.7h-13.5l-2.8,7.7c-0.2,0.3-0.3,0.4-0.6,0.4h-1.7
	c-0.3,0-0.4-0.2-0.3-0.4L148.8,43.6z"/>
<path fill="#162C53" d="M190.4,51.8c0-3.9-2.4-6.1-6.9-6.1h-7.9c-0.2,0-0.3,0.1-0.3,0.3v11.7c0,0.2,0.1,0.3,0.3,0.3h7.9
	C187.9,57.9,190.4,55.7,190.4,51.8 M191.1,74.3c-0.3,0-0.4-0.1-0.5-0.4L184,60.4h-0.4h-8c-0.2,0-0.3,0.1-0.3,0.3v13.2
	c0,0.3-0.2,0.4-0.4,0.4h-1.7c-0.3,0-0.4-0.2-0.4-0.4V43.6c0-0.3,0.2-0.4,0.4-0.4h10.5c5.8,0,9.5,3.3,9.5,8.6c0,4.3-2.4,7.3-6.4,8.3
	l6.8,13.8c0.2,0.3,0.1,0.5-0.3,0.5L191.1,74.3L191.1,74.3z"/>
<path fill="#162C53" d="M205.4,43.6c0-0.3,0.2-0.4,0.4-0.4h1.7c0.3,0,0.4,0.2,0.4,0.4v27.9c0,0.2,0.1,0.3,0.3,0.3h15.3
	c0.3,0,0.4,0.2,0.4,0.4v1.6c0,0.3-0.2,0.4-0.4,0.4h-17.8c-0.3,0-0.4-0.2-0.4-0.4L205.4,43.6L205.4,43.6z"/>
<path fill="#162C53" d="M249.5,63.8l-5.8-16.3h-0.2l-5.8,16.3H249.5z M242.2,43.6c0.1-0.3,0.3-0.4,0.5-0.4h1.7
	c0.3,0,0.4,0.2,0.5,0.4l10.8,30.2c0.1,0.3,0,0.4-0.3,0.4h-1.8c-0.3,0-0.5-0.1-0.6-0.4l-2.8-7.7h-13.5l-2.8,7.7
	c-0.2,0.3-0.3,0.4-0.6,0.4h-1.8c-0.3,0-0.4-0.2-0.3-0.4L242.2,43.6z"/>
<path fill="#162C53" d="M266.1,43.6c0-0.3,0.2-0.4,0.4-0.4h1.7c0.3,0,0.5,0.2,0.7,0.4l10.1,22.3h0.2l9.9-22.3
	c0.2-0.3,0.3-0.4,0.6-0.4h1.8c0.3,0,0.4,0.2,0.4,0.4v30.2c0,0.3-0.2,0.4-0.4,0.4H290c-0.3,0-0.4-0.2-0.4-0.4V49.6h-0.3l-9,19.7
	c-0.2,0.3-0.3,0.5-0.8,0.5h-0.9c-0.4,0-0.6-0.2-0.8-0.5l-9.1-19.7h-0.2v24.3c0,0.3-0.2,0.4-0.4,0.4h-1.7c-0.3,0-0.4-0.2-0.4-0.4
	V43.6z"/>
<path fill="#162C53" d="M305.2,43.6c0-0.3,0.2-0.4,0.4-0.4h17.8c0.3,0,0.4,0.2,0.4,0.4v1.6c0,0.3-0.2,0.4-0.4,0.4h-15.3
	c-0.2,0-0.3,0.1-0.3,0.3V57c0,0.2,0.1,0.3,0.3,0.3h13.2c0.3,0,0.4,0.2,0.4,0.4v1.7c0,0.3-0.2,0.4-0.4,0.4h-13.2
	c-0.2,0-0.3,0.1-0.3,0.3v11.5c0,0.2,0.1,0.3,0.3,0.3h15.3c0.3,0,0.4,0.2,0.4,0.4v1.6c0,0.3-0.2,0.4-0.4,0.4h-17.8
	c-0.3,0-0.4-0.2-0.4-0.4V43.6z"/>
<path fill="#162C53" d="M335.3,43.6c0-0.3,0.2-0.4,0.4-0.4h1.7c0.3,0,0.6,0.1,0.8,0.4l15.5,25.6h0.2V43.6c0-0.3,0.2-0.4,0.4-0.4h1.7
	c0.3,0,0.4,0.2,0.4,0.4v30.2c0,0.3-0.2,0.4-0.4,0.4h-1.8c-0.3,0-0.5-0.1-0.8-0.4l-15.2-25.6h-0.2v25.6c0,0.3-0.2,0.4-0.4,0.4h-1.7
	c-0.3,0-0.4-0.2-0.4-0.4L335.3,43.6L335.3,43.6z"/>
<path fill="#162C53" d="M376.5,74.3c-0.3,0-0.4-0.2-0.4-0.4V46c0-0.2-0.1-0.3-0.3-0.3h-9c-0.3,0-0.4-0.2-0.4-0.4v-1.7
	c0-0.3,0.2-0.4,0.4-0.4h21.1c0.3,0,0.4,0.2,0.4,0.4v1.6c0,0.3-0.2,0.4-0.4,0.4h-9c-0.2,0-0.3,0.1-0.3,0.3v27.9
	c0,0.3-0.2,0.4-0.4,0.4L376.5,74.3L376.5,74.3z"/>
<path fill="#162C53" d="M414.3,50.5c-1.1-3.4-3.7-5.2-7.5-5.2c-3.9,0-6.4,1.8-7.6,5.2c-0.4,1.2-0.8,3.2-0.8,8.3s0.3,7.1,0.8,8.3
	c1.1,3.4,3.7,5.2,7.6,5.2c3.8,0,6.4-1.8,7.5-5.2c0.4-1.2,0.8-3.2,0.8-8.3S414.7,51.7,414.3,50.5 M396.7,67.8c-0.5-1.7-1-3.7-1-9
	c0-5.3,0.3-7.4,1-9c1.5-4.5,5-7,10-7c5.1,0,8.5,2.4,10,7c0.5,1.7,1,3.7,1,9s-0.3,7.4-1,9c-1.5,4.5-5,7-10,7
	C401.7,74.8,398.3,72.4,396.7,67.8"/>
<path fill="#162C53" d="M112.1,122.4c0.4,0.6,1,1.1,1.7,1.5c0.7,0.4,1.6,0.7,2.5,0.7c1.2,0,2.4-0.4,3.7-1.4c0.5-0.4,1-1,1.3-1.8
	c0.3-0.7,0.5-1.7,0.5-2.8V96.7h4.8v22.5c-0.1,3.3-1.1,5.8-3.1,7.6c-2,1.8-4.4,2.8-7,2.8c-3.7-0.1-6.4-1.5-8.4-4.2L112.1,122.4z"/>
<path fill="#162C53" d="M137.5,96.7h4.8v21c0,2.2,0.6,3.9,1.8,5.1c1.2,1.2,2.7,1.8,4.6,1.8c1.8,0,3.4-0.6,4.6-1.8
	c1.2-1.1,1.8-2.9,1.8-5.1v-21h4.8v21.5c-0.1,3.4-1.1,6.2-3.2,8.2c-2.1,2.1-4.8,3.1-8,3.1c-3.1,0-5.8-1-7.9-3.1
	c-2.2-2-3.2-4.7-3.3-8.2L137.5,96.7L137.5,96.7z"/>
<polygon fill="#162C53" points="187.7,96.7 180.4,121.5 180.4,121.5 173.2,96.7 168.2,96.7 178.5,129.3 182.3,129.3 192.7,96.7 "/>
<polygon fill="#162C53" points="201.5,96.7 201.5,129.3 221.7,129.3 221.7,124.6 206.2,124.6 206.2,115 219.4,115 219.4,110.6 
	206.2,110.6 206.2,101.3 221.7,101.3 221.7,96.7 "/>
<polygon fill="#162C53" points="250.4,96.7 250.4,119.9 250.3,119.9 236,96.7 231.5,96.7 231.5,129.3 236.3,129.3 236.3,106.1 
	236.4,106.1 250.7,129.3 255.2,129.3 255.2,96.7 "/>
<rect x="267.4" y="96.7" fill="#162C53" width="4.8" height="32.6"/>
<polygon fill="#162C53" points="283.8,96.7 283.8,129.3 304,129.3 304,124.6 288.6,124.6 288.6,96.7 "/>
<rect x="101.1" y="85.5" fill="#162C53" width="323.5" height="1.2"/>
<polygon fill="#162C53" points="34.9,96.7 9.7,81.5 4.4,86.8 34.9,117.4 94.8,70.5 78.1,53.7 "/>
</svg>
