<?xml version="1.0" encoding="utf-8"?>
<!-- Generator: Adobe Illustrator 17.1.0, SVG Export Plug-In . SVG Version: 6.00 Build 0)  -->
<!DOCTYPE svg PUBLIC "-//W3C//DTD SVG 1.1//EN" "http://www.w3.org/Graphics/SVG/1.1/DTD/svg11.dtd">
<svg version="1.1" id="Layer_1" xmlns="http://www.w3.org/2000/svg" xmlns:xlink="http://www.w3.org/1999/xlink" x="0px" y="0px"
	 viewBox="0 0 552.2 182.5" enable-background="new 0 0 552.2 182.5" xml:space="preserve">
<g>
	<g>
		<g>
			<path fill="#172B53" d="M228.4,144l-3-7.7l-3.2,7.7H228.4z M227.1,132.6c0.3,1,0.6,1.9,1,2.8l4.4,11.4c1.2,3,1.7,3.1,2.5,3.1h0.3
				v0.7h-6.8v-0.7h0.5c1.1,0,1.3-0.1,1.3-0.6c0-0.3-0.1-0.6-0.3-1.1l-1.3-3.3h-6.9l-0.9,2.1c-0.5,1.2-0.7,1.8-0.7,2.2
				c0,0.8,0.7,0.8,1.6,0.8h0.3v0.7h-5.1v-0.7h0.3c0.7,0,1.4-0.2,2-1.7l5.4-13.1c0.4-0.8,0.7-1.7,0.9-2.5H227.1z"/>
			<path fill="#172B53" d="M247.2,137h-0.9c-0.1-2.2-1.7-3.9-3.9-3.9c-2.1,0-3.9,1.1-3.9,3.4c0,4,9.5,2.6,9.5,9.1
				c0,3.4-2.8,5.4-6.1,5.4c-1,0-1.9-0.2-2.6-0.3c-0.7-0.1-1.1-0.3-1.3-0.3c-0.4,0-0.6,0.2-0.7,0.5h-0.9v-5h0.9
				c0.5,2.6,1.8,4.4,4.7,4.4c2.3,0,3.9-1.3,3.9-3.7c0-4.4-9.5-3.3-9.5-8.8c0-3.4,2.6-5.4,5.9-5.4c1.3,0,2.7,0.7,3.5,0.7
				c0.4,0,0.5-0.2,0.6-0.6h0.7V137z"/>
			<path fill="#172B53" d="M261.6,137h-0.9c0-2.2-1.7-3.9-3.9-3.9c-2.1,0-3.9,1.1-3.9,3.4c0,4,9.5,2.6,9.5,9.1
				c0,3.4-2.8,5.4-6.1,5.4c-1,0-1.9-0.2-2.6-0.3c-0.7-0.1-1.1-0.3-1.3-0.3c-0.4,0-0.7,0.2-0.7,0.5h-0.9v-5h0.9
				c0.5,2.6,1.8,4.4,4.7,4.4c2.3,0,3.9-1.3,3.9-3.7c0-4.4-9.5-3.3-9.5-8.8c0-3.4,2.6-5.4,5.9-5.4c1.3,0,2.7,0.7,3.5,0.7
				c0.4,0,0.5-0.2,0.6-0.6h0.7V137z"/>
			<path fill="#172B53" d="M265,149.9h1c0.6,0,1-0.1,1-1.6v-13.1c0-1.4-0.1-1.7-1.1-1.7H265v-0.7h13.7v4.1h-0.9
				c0-2.4-1.2-3.4-3.6-3.4h-4.3v7.7h3.7c1.7,0,2.3-1.2,2.3-2.7h0.9v6.2h-0.9c0-1.6-0.6-2.7-2.3-2.7h-3.7v7.9h4.6
				c2.3,0,3.7-1.1,3.7-3.5h0.9v4.2h-14V149.9z"/>
			<path fill="#172B53" d="M281.3,149.9h0.8c1.1,0,1.1-0.7,1.1-2.8v-12.2c0-0.9-0.1-1.3-1-1.3h-0.8v-0.7h4.9c0.2,0.5,0.6,1.6,1,2.6
				l4.5,10.4l4.5-10.7c0.4-0.9,0.7-1.8,0.8-2.3h4.9v0.7H301c-0.8,0-0.9,0.6-0.9,1.5v12.4c0,1.8,0,2.4,1.1,2.4h0.9v0.7h-6.8v-0.7h0.9
				c1,0,1.2-0.2,1.2-2.4v-11.9h0l-6,14h-0.9l-6-14h0V147c0,2.1,0.1,2.8,1.3,2.8h0.9v0.7h-5.1V149.9z"/>
			<path fill="#172B53" d="M308.8,149.9h1.8c2.9,0,4.6-1.5,4.6-4.3c0-3.1-2.3-3.9-5-4h-1.4V149.9z M308.8,140.9h1.3c3,0,4.5-1,4.5-4
				c0-2.2-1.8-3.3-3.6-3.3h-2.2V140.9z M304,149.9h1.1c0.9,0,0.9-0.4,0.9-2.6v-11.2c0-2.4-0.1-2.5-0.9-2.5H304v-0.7h8
				c2.9,0,5.7,1.2,5.7,4.2c0,2.4-2.4,3.7-4.5,4.1v0c2.3,0.1,5.1,1.7,5.1,4.4c0,2.9-3.3,5-5.8,5H304V149.9z"/>
			<path fill="#172B53" d="M321,149.9h0.8c1,0,1.3-0.4,1.3-1.2V135c0-1.3-0.4-1.5-1.4-1.5H321v-0.7h6.9v0.7h-0.8
				c-1.1,0-1.2,0.4-1.2,1.5v14.9h3.8c1.9,0,3.7-1.3,3.7-3.8h0.9v4.5H321V149.9z"/>
			<path fill="#172B53" d="M336.1,149.9h1c0.6,0,1-0.1,1-1.6v-13.1c0-1.4-0.1-1.7-1.1-1.7h-0.9v-0.7h13.7v4.1h-0.9
				c0-2.4-1.2-3.4-3.6-3.4h-4.3v7.7h3.7c1.7,0,2.3-1.2,2.3-2.7h0.9v6.2h-0.9c0-1.6-0.6-2.7-2.3-2.7h-3.7v7.9h4.6
				c2.3,0,3.7-1.1,3.7-3.5h0.9v4.2h-14V149.9z"/>
			<path fill="#172B53" d="M352.6,149.9h0.8c1,0,1.3-0.4,1.3-1.2V135c0-1.3-0.4-1.5-1.4-1.5h-0.7v-0.7h6.9v0.7h-0.7
				c-1,0-1.4,0.2-1.4,1.5v13.6c0,0.9,0.3,1.2,1.3,1.2h0.8v0.7h-6.9V149.9z"/>
			<path fill="#172B53" d="M371.6,144l-3-7.7l-3.2,7.7H371.6z M370.2,132.6c0.3,1,0.6,1.9,1,2.8l4.4,11.4c1.2,3,1.7,3.1,2.5,3.1h0.3
				v0.7h-6.8v-0.7h0.5c1.1,0,1.3-0.1,1.3-0.6c0-0.3-0.1-0.6-0.3-1.1l-1.3-3.3H365l-0.9,2.1c-0.5,1.2-0.7,1.8-0.7,2.2
				c0,0.8,0.7,0.8,1.6,0.8h0.3v0.7h-5.1v-0.7h0.3c0.8,0,1.4-0.2,2-1.7l5.4-13.1c0.3-0.8,0.7-1.7,0.9-2.5H370.2z"/>
			<path fill="#172B53" d="M386.6,149.9h0.8c1,0,1.3-0.4,1.3-1.2V135c0-1.3-0.4-1.5-1.4-1.5h-0.7v-0.7h6.9v0.7h-0.8
				c-1.1,0-1.2,0.4-1.2,1.5v14.9h3.8c1.9,0,3.7-1.3,3.7-3.8h0.9v4.5h-13.2V149.9z"/>
			<path fill="#172B53" d="M401.6,149.9h1c0.6,0,1-0.1,1-1.6v-13.1c0-1.4-0.1-1.7-1.1-1.7h-0.9v-0.7h13.7v4.1h-0.9
				c0-2.4-1.2-3.4-3.6-3.4h-4.3v7.7h3.7c1.7,0,2.3-1.2,2.3-2.7h0.9v6.2h-0.9c0-1.6-0.6-2.7-2.3-2.7h-3.7v7.9h4.6
				c2.3,0,3.7-1.1,3.7-3.5h0.9v4.2h-14V149.9z"/>
			<path fill="#172B53" d="M432.2,137.3h-0.9c-0.2-2.4-1.9-4.2-4.4-4.2c-4.5,0-5.3,5.2-5.3,8.7c0,3.7,0.8,8.3,5,8.4
				c1.8,0,3.5-1,3.5-3.5v-2c0-0.9-0.3-1.3-0.9-1.3h-1v-0.7h6.2v0.7h-0.7c-0.8,0-0.9,0.3-0.9,1.6v5.8H432c-0.1-0.3-0.2-0.6-0.8-0.6
				c-0.8,0-2,0.8-4.6,0.8c-6,0-8-4.1-8-9.5c0-4.9,3-9.1,8.2-9.1c1.2,0,2.1,0.2,2.7,0.4c0.7,0.2,1.1,0.4,1.5,0.4
				c0.3,0,0.4-0.3,0.4-0.6h0.9V137.3z"/>
			<path fill="#172B53" d="M435.9,149.9h0.8c1,0,1.3-0.4,1.3-1.2V135c0-1.3-0.4-1.5-1.4-1.5h-0.7v-0.7h6.9v0.7h-0.7
				c-1,0-1.4,0.2-1.4,1.5v13.6c0,0.9,0.3,1.2,1.3,1.2h0.8v0.7h-6.9V149.9z"/>
			<path fill="#172B53" d="M455.9,137H455c0-2.2-1.7-3.9-3.9-3.9c-2.1,0-3.9,1.1-3.9,3.4c0,4,9.5,2.6,9.5,9.1c0,3.4-2.8,5.4-6.1,5.4
				c-1,0-1.9-0.2-2.6-0.3c-0.7-0.1-1.1-0.3-1.3-0.3c-0.4,0-0.7,0.2-0.7,0.5h-0.9v-5h0.9c0.5,2.6,1.8,4.4,4.7,4.4
				c2.3,0,3.9-1.3,3.9-3.7c0-4.4-9.5-3.3-9.5-8.8c0-3.4,2.6-5.4,5.9-5.4c1.3,0,2.7,0.7,3.5,0.7c0.4,0,0.5-0.2,0.6-0.6h0.7V137z"/>
			<path fill="#172B53" d="M459.1,149.9h0.8c1,0,1.3-0.4,1.3-1.2V135c0-1.3-0.4-1.5-1.4-1.5h-0.7v-0.7h6.9v0.7h-0.8
				c-1.1,0-1.2,0.4-1.2,1.5v14.9h3.8c1.9,0,3.7-1.3,3.7-3.8h0.9v4.5h-13.2V149.9z"/>
			<path fill="#172B53" d="M484.1,144l-3-7.7l-3.2,7.7H484.1z M482.7,132.6c0.3,1,0.6,1.9,1,2.8l4.4,11.4c1.2,3,1.7,3.1,2.5,3.1h0.3
				v0.7h-6.8v-0.7h0.5c1.1,0,1.3-0.1,1.3-0.6c0-0.3-0.1-0.6-0.3-1.1l-1.3-3.3h-6.9l-0.9,2.1c-0.5,1.2-0.7,1.8-0.7,2.2
				c0,0.8,0.7,0.8,1.6,0.8h0.3v0.7h-5.1v-0.7h0.3c0.7,0,1.4-0.2,2-1.7l5.4-13.1c0.4-0.8,0.7-1.7,0.9-2.5H482.7z"/>
			<path fill="#172B53" d="M493.6,149.9h1.2c1,0,1-0.5,1-2.6v-13.7h-1.3c-2.2,0-3.8,1.3-3.9,3.6h-0.9v-4.3h15v4.3h-0.9
				c0-2.3-1.6-3.6-3.9-3.6h-1.3v13.7c0,2.1,0,2.6,1,2.6h1.2v0.7h-7.2V149.9z"/>
			<path fill="#172B53" d="M506.6,149.9h0.8c1,0,1.3-0.4,1.3-1.2V135c0-1.3-0.4-1.5-1.4-1.5h-0.7v-0.7h6.9v0.7h-0.7
				c-1,0-1.4,0.2-1.4,1.5v13.6c0,0.9,0.3,1.2,1.3,1.2h0.8v0.7h-6.9V149.9z"/>
			<path fill="#172B53" d="M531.7,133.5h-0.4c-1,0-1.2,0.6-2.2,3.3l-4.8,12.6c-0.2,0.5-0.3,0.9-0.5,1.4h-1.4
				c-0.4-1.3-0.9-2.5-1.4-3.8l-4.2-10.9c-0.8-2-1-2.5-1.8-2.5h-0.6v-0.7h6.9v0.7h-1c-0.5,0-0.9,0.2-0.9,0.7c0,0.4,0.1,0.8,0.8,2.6
				l3.9,10.4l4.1-11.1c0.3-0.7,0.5-1.4,0.5-1.9c0-0.5-0.3-0.7-1-0.7h-1v-0.7h5.1V133.5z"/>
			<path fill="#172B53" d="M540.4,144l-3-7.7l-3.2,7.7H540.4z M539,132.6c0.3,1,0.6,1.9,1,2.8l4.4,11.4c1.2,3,1.7,3.1,2.5,3.1h0.3
				v0.7h-6.8v-0.7h0.5c1.1,0,1.3-0.1,1.3-0.6c0-0.3-0.1-0.6-0.3-1.1l-1.3-3.3h-6.9l-0.9,2.1c-0.5,1.2-0.7,1.8-0.7,2.2
				c0,0.8,0.7,0.8,1.6,0.8h0.3v0.7h-5.1v-0.7h0.3c0.8,0,1.4-0.2,2-1.7l5.4-13.1c0.4-0.8,0.7-1.7,0.9-2.5H539z"/>
			<path fill="#172B53" d="M222.9,181.3h2.2c4.8,0,6-4.1,6-8.1c0-4.2-1.2-8.2-6.1-8.2h-2V181.3z M218.1,164.3h7.1c5.8,0,9,3.3,9,9.1
				c0,6.2-4.6,8.7-8.8,8.7h-7.3v-0.7h1c0.9,0,1-0.3,1-2.7v-11.3c0-1.7-0.1-2.3-0.9-2.3h-1.1V164.3z"/>
			<path fill="#172B53" d="M244.3,181.7c4.1,0,4.4-5.6,4.4-8.6c0-2.9-0.3-8.6-4.4-8.6c-4.1,0-4.4,5.6-4.4,8.6
				C239.9,176.1,240.2,181.7,244.3,181.7 M244.3,163.9c5.2,0,7.5,4.6,7.5,9.3c0,4.7-2.4,9.3-7.5,9.3c-5.2,0-7.5-4.6-7.5-9.3
				C236.8,168.5,239.1,163.9,244.3,163.9"/>
			<path fill="#172B53" d="M266.4,172.4h1.9c2.1,0,3.9-1,3.9-3.7c0-2.7-1.5-3.7-3.9-3.7h-1.9V172.4z M261.6,181.3h0.8
				c1,0,1.3-0.4,1.3-1.2v-13.6c0-1.3-0.4-1.5-1.4-1.5h-0.7v-0.7h8.1c2.9,0,5.6,1,5.6,3.9c0,2.2-2.2,4-4.4,4.4v0
				c3,0.6,3.6,1.2,3.7,4.6l0.1,3.1c0,0.4,0.1,0.9,0.6,0.9c0.6,0,1-0.6,1.2-1.3l0.7,0.3c-0.6,1.3-1.4,2.1-2.8,2.1
				c-2.2,0-2.6-1.7-2.7-3.4l-0.2-3.3c-0.1-2-1.1-2.7-3.5-2.7h-1.6v6.8c0,1.1,0.1,1.5,1.2,1.5h0.8v0.7h-6.9V181.3z"/>
			<path fill="#172B53" d="M278.8,181.3h0.8c1,0,1.3-0.4,1.3-1.2v-13.6c0-1.3-0.3-1.5-1.4-1.5h-0.7v-0.7h6.9v0.7H285
				c-1,0-1.4,0.2-1.4,1.5v13.6c0,0.9,0.2,1.2,1.3,1.2h0.8v0.7h-6.9V181.3z"/>
			<path fill="#172B53" d="M295.5,181.7c4.1,0,4.4-5.6,4.4-8.6c0-2.9-0.3-8.6-4.4-8.6c-4.1,0-4.4,5.6-4.4,8.6
				C291,176.1,291.3,181.7,295.5,181.7 M295.5,163.9c5.2,0,7.5,4.6,7.5,9.3c0,4.7-2.4,9.3-7.5,9.3c-5.2,0-7.5-4.6-7.5-9.3
				C287.9,168.5,290.3,163.9,295.5,163.9"/>
			<path fill="#172B53" d="M317.3,181.3h2.2c4.8,0,6-4.1,6-8.1c0-4.2-1.2-8.2-6.1-8.2h-2V181.3z M312.5,164.3h7.1c5.8,0,9,3.3,9,9.1
				c0,6.2-4.6,8.7-8.8,8.7h-7.3v-0.7h1c0.9,0,1-0.3,1-2.7v-11.3c0-1.7-0.1-2.3-0.9-2.3h-1.1V164.3z"/>
			<path fill="#172B53" d="M331,181.3h1c0.6,0,1-0.1,1-1.6v-13.1c0-1.4-0.1-1.7-1.2-1.7H331v-0.7h13.7v4.1h-0.9
				c0-2.4-1.2-3.4-3.6-3.4h-4.3v7.7h3.7c1.7,0,2.3-1.2,2.3-2.7h0.9v6.2h-0.9c0-1.6-0.6-2.7-2.3-2.7h-3.7v7.9h4.6
				c2.3,0,3.7-1.1,3.7-3.5h0.9v4.2h-14V181.3z"/>
			<path fill="#172B53" d="M358.8,164.3h7v0.7h-1c-0.9,0-1,0.3-1,2.9v9.8c0,2.5-1.6,4.7-5.3,4.7c-1.2,0-2.8-0.2-3.6-0.6v-4.2h0.9
				c0,1.8,0.6,4.1,2.9,4.1c2.1,0,2.4-1.8,2.4-4.2v-9.6c0-2.5-0.1-2.9-1.2-2.9h-0.9V164.3z"/>
			<path fill="#172B53" d="M377.2,175.5l-3-7.7l-3.2,7.7H377.2z M375.9,164c0.3,1,0.6,1.9,1,2.8l4.4,11.4c1.2,3,1.7,3.1,2.5,3.1h0.3
				v0.7h-6.8v-0.7h0.5c1.1,0,1.3-0.1,1.3-0.6c0-0.3-0.1-0.6-0.3-1.1l-1.3-3.3h-6.9l-0.9,2.1c-0.5,1.2-0.7,1.8-0.7,2.2
				c0,0.8,0.8,0.8,1.6,0.8h0.3v0.7h-5.1v-0.7h0.3c0.8,0,1.4-0.2,2-1.7l5.4-13.1c0.3-0.8,0.7-1.7,0.9-2.5H375.9z"/>
			<path fill="#172B53" d="M384.7,181.3h0.9c1.1,0,1.1-1.1,1.1-2.9v-10c0-3.2-0.2-3.4-1.1-3.4h-0.9v-0.7h4.9l9,13.8h0v-10.3
				c0-2.2-0.1-2.7-1.4-2.7h-0.8v-0.7h5.3v0.7H401c-1.3,0-1.4,0.6-1.4,2.7v14.5H398l-10.3-15.6h-0.1v11.8c0,1.8,0,2.9,1,2.9h1v0.7h-5
				V181.3z"/>
			<path fill="#172B53" d="M403.6,181.3h1c0.6,0,1-0.1,1-1.6v-13.1c0-1.4-0.1-1.7-1.2-1.7h-0.9v-0.7h13.7v4.1h-0.9
				c0-2.4-1.2-3.4-3.6-3.4h-4.3v7.7h3.7c1.7,0,2.3-1.2,2.3-2.7h0.9v6.2h-0.9c0-1.6-0.6-2.7-2.3-2.7h-3.7v7.9h4.6
				c2.3,0,3.7-1.1,3.7-3.5h0.9v4.2h-14V181.3z"/>
			<path fill="#172B53" d="M420.1,181.3h0.8c1,0,1.3-0.4,1.3-1.2v-13.6c0-1.3-0.4-1.5-1.4-1.5h-0.7v-0.7h6.9v0.7h-0.7
				c-1,0-1.4,0.2-1.4,1.5v13.6c0,0.9,0.3,1.2,1.3,1.2h0.8v0.7h-6.9V181.3z"/>
			<path fill="#172B53" d="M433.8,172.4h1.9c2.1,0,3.9-1,3.9-3.7c0-2.7-1.5-3.7-3.9-3.7h-1.9V172.4z M429,181.3h0.8
				c1,0,1.3-0.4,1.3-1.2v-13.6c0-1.3-0.3-1.5-1.4-1.5H429v-0.7h8.1c2.9,0,5.6,1,5.6,3.9c0,2.2-2.2,4-4.4,4.4v0
				c3,0.6,3.6,1.2,3.7,4.6l0.1,3.1c0,0.4,0.1,0.9,0.6,0.9c0.6,0,1-0.6,1.2-1.3l0.7,0.3c-0.6,1.3-1.4,2.1-2.8,2.1
				c-2.2,0-2.6-1.7-2.7-3.4l-0.2-3.3c-0.1-2-1.2-2.7-3.5-2.7h-1.6v6.8c0,1.1,0.1,1.5,1.2,1.5h0.8v0.7H429V181.3z"/>
			<path fill="#172B53" d="M454,181.7c4.1,0,4.4-5.6,4.4-8.6c0-2.9-0.3-8.6-4.4-8.6c-4.1,0-4.4,5.6-4.4,8.6
				C449.5,176.1,449.8,181.7,454,181.7 M454,163.9c5.2,0,7.5,4.6,7.5,9.3c0,4.7-2.4,9.3-7.5,9.3c-5.2,0-7.5-4.6-7.5-9.3
				C446.4,168.5,448.8,163.9,454,163.9"/>
		</g>
		<rect x="217.5" y="106.5" fill="#8FA143" width="330.1" height="1.8"/>
		<g>
			<path fill="#172B53" d="M280.7,64.1L271,39.5l-10.3,24.6L280.7,64.1z M259.8,66.3l-4.6,11.7c-0.3,0.8-0.4,1.5-0.4,2
				c0,1.9,2.7,2.1,5.3,2.1h0.8v2.2l-15.5,0v-2.2c4.3,0,5.9-2.5,7.5-6.2L272,28.6h2.8l19.3,48.6c1.2,2.9,2.5,4.8,5.3,4.9h1.2v2.2
				l-19.8,0v-2.2h0.9c1.9,0,5.1-0.1,5.1-2c0-1-0.4-1.9-1.1-3.6l-4.2-10.2L259.8,66.3z"/>
			<path fill="#172B53" d="M333.9,29.4v2.2l-2.3,0c-4.7,0-4.7,1.9-4.7,5.3l0,45.2l11.2,0c8.3,0,12.6-4,12.7-11.5h2.7l0,13.8l-40,0
				v-2.2h3c2.8,0,3.4-1.3,3.4-5.6l0-36.5c0-7.6-0.1-8.3-4.5-8.3h-1.9v-2.2L333.9,29.4z"/>
			<path fill="#172B53" d="M368.5,82.1h3c2.8,0,3.4-1.3,3.4-5.6l0-36.5c0-7.6-0.1-8.3-4.5-8.3h-1.9v-2.2l41.7,0l0,12.7h-2.7
				c0-7.4-4-10.5-11.3-10.5l-14.3,0v23.9l9.7,0c6.4,0,10-1.5,10-8.5h2.7v19h-2.7c0-7.3-4.6-8.3-8.3-8.3l-11.3,0l0,24.4l13.4,0
				c7.9,0,12.7-1.7,13.1-10.6h2.7v12.8l-42.6,0V82.1z"/>
			<path fill="#172B53" d="M443.7,54.3h7.5c7,0,12-4.9,12-11.8c0-7.7-4.7-10.9-12.1-10.9l-7.4,0V54.3z M430.2,82.1h3
				c2.8,0,3.4-1.3,3.4-5.6l0-36.5c0-7.6-0.1-8.3-4.5-8.3h-1.9v-2.2l20.2,0c9,0,20.9,1.7,20.9,13.1c0,7.6-7.3,11.7-13.9,12.9v0.2
				c5.4,0.9,10.8,3.8,10.8,10v10.9c0,1.7,0,5.3,2.5,5.3c2.4,0,2.9-2.2,3.9-3.9l2.3,0.8c-1.6,3.6-4.2,6.9-8.5,6.9
				c-5.9,0-7.3-3.6-7.3-9.4v-8c0-8.7-2.5-11.6-11-11.6l-6.5,0l0,18.9c0,5.6,0.2,6.7,4,6.7h2.4v2.2l-19.9,0V82.1z"/>
			<path fill="#172B53" d="M487,70.6h2.7c0.2,7.3,2.2,12.7,8.7,12.7c7.1,0,7.8-6.4,7.8-12.1l0-33.7c0-4.2,0-6-4-6h-3v-2.2l20.6,0
				v2.2H517c-3.7,0-3.7,1.7-3.7,6l0,28.4c0,10.8-2.1,19.6-15.1,19.6c-3.8,0-7.6-0.5-11.2-2.2L487,70.6z"/>
			<path fill="#172B53" d="M547.6,61.9c-2.6,0-4.6-2.1-4.6-4.6c0-2.6,2.1-4.6,4.6-4.6c2.6,0,4.6,2.1,4.6,4.6
				C552.2,59.9,550.2,61.9,547.6,61.9L547.6,61.9z"/>
			<path fill="#172B53" d="M217.5,62c-2.6,0-4.6-2.1-4.6-4.6c0-2.6,2.1-4.6,4.6-4.6c2.6,0,4.6,2.1,4.6,4.6
				C222.1,59.9,220,62,217.5,62"/>
			<path fill="#8FA143" d="M109.2,12V8.9c0-2.5,2-4.5,4.4-4.5c2.4,0,4.4,2,4.4,4.5V12H109.2z M93,12V6.9c0-3.3,2.6-6,5.9-6
				c3.2,0,5.9,2.7,5.9,6V12H93z M79.8,12V8.9c0-2.5,2-4.5,4.4-4.5s4.4,2,4.4,4.5V12H79.8z M119,12V8.9c0-3-2.4-5.4-5.3-5.4
				c-2.9,0-5.3,2.4-5.3,5.4V12h-2.6V6.9c0-3.8-3.1-6.9-6.8-6.9c-3.8,0-6.8,3.1-6.8,6.9V12h-2.6V8.9c0-3-2.4-5.4-5.3-5.4
				c-2.9,0-5.3,2.4-5.3,5.4V12h-2.2v0.9h2.2h10.6h2.6h13.6h2.6H119h2.1V12H119z"/>
		</g>
		<path fill="#8FA143" d="M79.8,16.5h5.6v6h-5.6V16.5z M105.9,16.5h5.6v6h-5.6V16.5z M99.4,16.5h5.6v6h-5.6V16.5z M91.9,22.4h-5.6
			v-6h5.6V22.4z M92.8,16.5h5.6v6h-5.6V16.5z M118,22.4h-5.6v-6h5.6V22.4z M119,22.4v-6h2.1v-0.9H76.7v0.9h2.1v6h-7v0.9h54.6v-0.9
			H119z"/>
		<rect x="0" y="145.4" fill="#8FA143" width="198.3" height="0.9"/>
		<path fill="#8FA143" d="M193.3,167.8H4.8v-16.1l188.6,0V167.8z M198.3,151.7v-0.9h-4.1v0H3.8v0H0v0.9h3.8v16.1H0v0.9h198.3v-0.9
			h-4.1v-16.1H198.3z"/>
		<rect x="0" y="172.2" fill="#8FA143" width="198.3" height="0.9"/>
		<rect x="0" y="176.7" fill="#8FA143" width="198.3" height="0.9"/>
		<rect x="0" y="181.2" fill="#8FA143" width="198.3" height="0.9"/>
		<path fill="#8FA143" d="M9.9,164.5h1.2V155H9.9V164.5z M12,165.3H9.1v-11.2H12V165.3z"/>
		<path fill="#8FA143" d="M17.3,164.5h2.6V155h-2.6V164.5z M20.8,165.3h-4.4v-11.2h4.4V165.3z"/>
		<path fill="#8FA143" d="M26.1,164.5h2.7V155h-2.7V164.5z M29.6,165.3h-4.4v-11.2h4.4V165.3z"/>
		<path fill="#8FA143" d="M34.9,164.5h4.3V155h-4.3V164.5z M40.1,165.3h-6v-11.2h6V165.3z"/>
		<path fill="#8FA143" d="M45.4,164.5h5.9V155h-5.9V164.5z M52.1,165.3h-7.6v-11.2h7.6V165.3z"/>
		<path fill="#8FA143" d="M57.4,164.5h5.8V155h-5.8V164.5z M64.1,165.3h-7.5v-11.2h7.5V165.3z"/>
		<path fill="#8FA143" d="M69.4,164.5h6.4V155h-6.4V164.5z M76.7,165.3h-8.1v-11.2h8.1V165.3z"/>
		<path fill="#8FA143" d="M82,164.5h7.1V155H82V164.5z M89.9,165.3h-8.8v-11.2h8.8V165.3z"/>
		<path fill="#8FA143" d="M95.2,164.5h8.2V155h-8.2V164.5z M104.3,165.3h-9.9v-11.2h9.9V165.3z"/>
		<path fill="#8FA143" d="M109.6,164.5h7.1V155h-7.1V164.5z M117.6,165.3h-8.8v-11.2h8.8V165.3z"/>
		<path fill="#8FA143" d="M122.9,164.5h6.5V155h-6.5V164.5z M130.3,165.3h-8.2v-11.2h8.2V165.3z"/>
		<path fill="#8FA143" d="M135.6,164.5h5.7V155h-5.7V164.5z M142.2,165.3h-7.4v-11.2h7.4V165.3z"/>
		<path fill="#8FA143" d="M147.5,164.5h5.9V155h-5.9V164.5z M154.2,165.3h-7.6v-11.2h7.6V165.3z"/>
		<path fill="#8FA143" d="M159.6,164.5h4.3V155h-4.3V164.5z M164.7,165.3h-6v-11.2h6V165.3z"/>
		<path fill="#8FA143" d="M170,164.5l2.7,0V155H170V164.5z M173.6,165.3l-4.4,0v-11.2h4.4V165.3z"/>
		<path fill="#8FA143" d="M178.9,164.5h2.7V155h-2.7V164.5z M182.4,165.3H178v-11.2h4.4V165.3z"/>
		<path fill="#8FA143" d="M187.7,164.5h1.2V155h-1.2V164.5z M189.8,165.3h-2.9v-11.2h2.9V165.3z"/>
		<g>
			<path fill="#8FA143" d="M9.9,131.9c0-27.1,8.3-52.3,23.9-72.9c10.1-13.4,21.9-23.2,38-31.9h54.7c16.1,8.7,27.9,18.5,38,31.9
				c15.7,20.6,23.9,45.8,23.9,72.9v8.1H9.9V131.9z M189.3,140v-8.1c0-27.3-8.3-52.7-24.1-73.4C155,45,143.1,35.1,126.8,26.3
				l-0.1-0.1h-55l-0.2,0.1C55.2,35.1,43.3,45,33.1,58.5C17.3,79.3,9,104.6,9,131.9v8.1H0v0.9h198.3V140H189.3z"/>
		</g>
		<path fill="#8FA143" d="M78.1,129h41.5v-2.1H78.1V129z M120.5,129.9H77.1v-4h43.4V129.9z"/>
		<path fill="#8FA143" d="M78.1,135.1h41.5V133H78.1V135.1z M120.5,136H77.1v-4h43.4V136z"/>
		<path fill="#8FA143" d="M130.5,128.7h26.6v-2.1h-26.6V128.7z M158,129.7h-28.5v-4H158V129.7z"/>
		<path fill="#8FA143" d="M130.5,135.1h26.6V133h-26.6V135.1z M158,136h-28.5v-4H158V136z"/>
		<path fill="#8FA143" d="M168.3,128.7h14.6v-2.1h-14.6V128.7z M183.9,129.7h-16.5v-4h16.5V129.7z"/>
		<path fill="#8FA143" d="M168.3,135.1h14.6V133h-14.6V135.1z M183.9,136h-16.5v-4h16.5V136z"/>
		<path fill="#8FA143" d="M40.5,128.7h26.6v-2.1H40.5V128.7z M68.1,129.7H39.6v-4h28.5V129.7z"/>
		<path fill="#8FA143" d="M40.5,135.1h26.6V133H40.5V135.1z M68.1,136H39.6v-4h28.5V136z"/>
		<path fill="#8FA143" d="M14.9,128.7h14.4v-2.1H14.9V128.7z M30.2,129.7H13.9v-4h16.3V129.7z"/>
		<path fill="#8FA143" d="M14.9,135.1h14.4V133H14.9V135.1z M30.2,136H13.9v-4h16.3V136z"/>
		<g>
			<path fill="#8FA143" d="M111.5,120.8c0.1-2.1,0.1-4,0.1-6h7.7c0,2.1,0,4.1-0.1,6H111.5z M77.9,114.8h6.8c0,2,0,4,0.1,6H78
				C78,118.9,77.9,116.9,77.9,114.8 M91.4,38.9h3.5c-0.5,2-1,4-1.5,6h-3.9C90.1,42.9,90.7,40.9,91.4,38.9 M107.3,44.8h-4
				c-0.5-2-1-4-1.5-6h3.5C106.1,40.9,106.7,42.9,107.3,44.8 M98.9,113.8v-6h11.7c0,2,0.1,4,0.1,6H98.9z M85.8,107.9h12.2v6H85.7
				C85.7,111.9,85.7,109.9,85.8,107.9 M85.1,101c-0.1,2-0.2,4-0.2,6h-6.8c0.1-2,0.2-4,0.3-6H85.1z M85.5,94.1c-0.1,2-0.3,4-0.4,6
				h-6.7c0.1-2,0.3-4,0.5-6H85.5z M86.1,87.2c-0.2,2-0.4,4-0.5,6h-6.5c0.2-2,0.4-4,0.7-6H86.1z M86.8,80.3c-0.2,2-0.5,4-0.7,6h-6.3
				c0.3-2,0.6-4,0.9-6H86.8z M87.8,73.4c-0.3,2-0.6,4-0.8,6h-6c0.3-2,0.7-4,1.1-6H87.8z M88.9,66.5c-0.3,2-0.7,4-0.9,6h-5.6
				c0.4-2,0.8-4,1.3-6H88.9z M90.1,59.6c-0.4,2-0.8,4-1.1,6h-5.3c0.5-2,0.9-4,1.5-6H90.1z M91.5,52.7c-0.4,2-0.8,4-1.2,6h-4.8
				c0.5-2,1.1-4,1.6-6H91.5z M91.7,51.7h-4.4c0.6-2,1.2-4,1.8-6h4C92.6,47.8,92.2,49.7,91.7,51.7 M97.9,45.8v6h-5.2
				c0.4-2,0.9-4,1.4-6H97.9z M97.9,44.8h-3.6c0.5-2,1-4,1.5-6h2.1V44.8z M98.9,44.8v-6h2c0.5,2,1,4,1.5,6H98.9z M104,51.7h-5.1v-6
				h3.8C103.1,47.8,103.6,49.7,104,51.7 M106.4,58.6c-0.4-2-0.8-4-1.2-6h4.5c0.6,2,1.1,4,1.7,6H106.4z M107.6,65.5
				c-0.3-2-0.7-4-1.1-6h5.1c0.5,2,1,4,1.5,6H107.6z M108.7,72.4c-0.3-2-0.6-4-0.9-6h5.6c0.5,2,0.9,4,1.3,6H108.7z M109.6,79.3
				c-0.2-2-0.5-4-0.8-6h6.1c0.4,2,0.8,4,1.2,6H109.6z M110.3,86.2c-0.2-2-0.4-4-0.6-6h6.5c0.4,2,0.7,4,1,6H110.3z M110.9,93.1
				c-0.1-2-0.3-4-0.5-6h6.9c0.3,2,0.5,4,0.8,6H110.9z M111.3,100c-0.1-2-0.2-4-0.3-6h7.3c0.2,2,0.4,4,0.6,6H111.3z M111.3,101h7.5
				c0.1,2,0.2,4,0.3,6h-7.6C111.5,105,111.4,103,111.3,101 M98.9,101h11.5c0.1,2,0.2,4,0.2,6H98.9V101z M97.9,101v6H85.8
				c0.1-2,0.1-4,0.2-6H97.9z M97.9,94.1v6H86.1c0.1-2,0.2-4,0.4-6H97.9z M97.9,87.2v6H86.5c0.2-2,0.3-4,0.5-6H97.9z M97.9,80.3v6
				H87.1c0.2-2,0.4-4,0.7-6H97.9z M97.9,73.4v6h-10c0.3-2,0.5-4,0.8-6H97.9z M97.9,66.5v6h-9.1c0.3-2,0.6-4,1-6H97.9z M97.9,59.6v6
				H90c0.3-2,0.7-4,1.1-6H97.9z M97.9,58.6h-6.7c0.4-2,0.8-4,1.2-6h5.4V58.6z M98.9,58.6v-6h5.3c0.4,2,0.8,4,1.2,6H98.9z M98.9,65.5
				v-6h6.7c0.4,2,0.7,4,1.1,6H98.9z M98.9,72.4v-6h7.9c0.3,2,0.6,4,0.9,6H98.9z M98.9,79.3v-6h9c0.3,2,0.5,4,0.8,6H98.9z M98.9,86.2
				v-6h9.9c0.2,2,0.4,4,0.6,6H98.9z M110,94.1c0.1,2,0.3,4,0.3,6H98.9v-6H110z M98.9,93.1v-6h10.6c0.2,2,0.3,4,0.5,6H98.9z
				 M109.5,51.7H105c-0.4-2-0.9-4-1.4-6h4C108.3,47.8,108.9,49.8,109.5,51.7 M77.9,113.8c0-2,0-4,0.1-6h6.8c0,2-0.1,4-0.1,6H77.9z
				 M85.8,120.8c-0.1-1.9-0.1-3.9-0.1-6h12.2v6H85.8z M98.9,120.8v-6h11.8c0,1.9,0,3.9-0.1,6H98.9z M111.6,113.8c0-2,0-4-0.1-6h7.6
				c0.1,2,0.1,4,0.1,6H111.6z M106.2,38.3l-0.2-0.4H90.7l-0.2,0.5C81.4,65.5,77,90.3,77,114.3c0,2.4,0,4.6,0.1,6.7l0,0.7h43l0-0.5
				c0.1-2.2,0.1-4.5,0.1-7C120.2,90.8,115.8,66.7,106.2,38.3"/>
			<path fill="#8FA143" d="M61.2,44.8h-2.2c2.2-2.1,4.5-4,6.9-5.9h1C65,40.8,63.1,42.8,61.2,44.8 M25.6,120.7c0.2-2,0.4-4,0.6-5.9
				H30c-0.2,2-0.3,3.9-0.5,5.9H25.6z M15.6,114.8h3.3c-0.3,2-0.5,3.9-0.7,5.9h-3.3C15.1,118.7,15.4,116.8,15.6,114.8 M51.5,45.8H53
				c-2,1.9-3.9,3.9-5.7,5.9h-1.7C47.4,49.7,49.4,47.7,51.5,45.8 M59.6,38.9h1.4c-2.4,1.9-4.7,3.9-6.9,5.9h-1.5
				C54.8,42.8,57.1,40.8,59.6,38.9 M55.5,44.8c2.2-2.1,4.6-4,7-5.9h2c-2.4,1.9-4.7,3.9-6.8,5.9H55.5z M51.1,51.7h-2.5
				c1.9-2,3.8-4,5.9-5.9h2.2C54.7,47.7,52.8,49.7,51.1,51.7 M52.3,51.7c1.8-2,3.7-4,5.7-5.9h2.3c-1.8,1.9-3.5,3.9-5.1,5.9H52.3z
				 M46.8,58.6c1.5-2,3.1-4,4.7-5.9h3c-1.5,1.9-2.9,3.9-4.3,5.9H46.8z M42.3,65.5c1.2-2,2.5-4,3.9-5.9h3.4c-1.3,1.9-2.6,3.9-3.7,5.9
				H42.3z M38.4,72.4c1-2,2.1-4,3.2-5.9h3.6c-1.1,1.9-2.2,3.9-3.2,5.9H38.4z M35.3,79.3c0.8-2,1.7-4,2.7-5.9h3.7
				c-1,2-1.9,3.9-2.7,5.9H35.3z M32.7,86.2c0.7-2,1.4-4,2.2-5.9h3.6c-0.8,2-1.6,3.9-2.3,5.9H32.7z M30.5,93.1c0.6-2,1.2-4,1.8-5.9
				h3.6c-0.7,2-1.3,3.9-1.8,5.9H30.5z M28.8,100c0.5-2,0.9-4,1.5-5.9h3.6c-0.5,2-1,3.9-1.5,5.9H28.8z M27.4,106.9
				c0.4-2,0.7-4,1.2-5.9h3.6c-0.4,2-0.8,3.9-1.1,5.9H27.4z M27.2,107.9h3.7c-0.3,2-0.6,3.9-0.8,5.9h-3.8
				C26.6,111.8,26.9,109.8,27.2,107.9 M20.1,107.9c-0.4,2-0.7,3.9-1,5.9h-3.3c0.3-2,0.6-4,1-5.9H20.1z M21.6,101
				c-0.5,2-0.9,3.9-1.3,5.9H17c0.4-2,0.9-4,1.4-5.9H21.6z M23.5,94.1c-0.6,2-1.2,3.9-1.7,5.9h-3.1c0.5-2,1.1-4,1.8-5.9H23.5z
				 M25.8,87.2c-0.7,2-1.4,3.9-2,5.9h-3c0.7-2,1.4-4,2.2-5.9H25.8z M28.6,80.3c-0.9,1.9-1.7,3.9-2.5,5.9h-2.8c0.8-2,1.7-4,2.6-5.9
				H28.6z M32,73.4c-1,1.9-2,3.9-3,5.9h-2.5c1-2,2-4,3.1-5.9H32z M36.1,66.5c-1.2,1.9-2.4,3.9-3.5,5.9h-2.4c1.2-2,2.4-4,3.7-5.9
				H36.1z M40.8,59.6c-1.4,1.9-2.8,3.9-4.1,5.9h-2.2c1.4-2,2.8-4,4.3-5.9H40.8z M41.5,58.6h-1.9c1.6-2,3.3-4,5-5.9h1.8
				C44.7,54.6,43,56.6,41.5,58.6 M42.7,58.6c1.6-2,3.2-4,4.9-5.9h2.5c-1.6,1.9-3.2,3.9-4.6,5.9H42.7z M37.8,65.5
				c1.3-2,2.7-4,4.1-5.9h3c-1.3,1.9-2.6,3.9-3.8,5.9H37.8z M33.7,72.4c1.1-2,2.3-4,3.5-5.9h3.3c-1.1,1.9-2.2,3.9-3.2,5.9H33.7z
				 M30.1,79.3c0.9-2,1.9-4,3-5.9h3.7c-0.9,1.9-1.8,3.9-2.6,5.9H30.1z M27.2,86.2c0.8-2,1.6-4,2.5-5.9h4.1c-0.8,1.9-1.5,3.9-2.2,5.9
				H27.2z M24.8,93.1c0.6-2,1.3-4,2.1-5.9h4.5c-0.6,1.9-1.2,3.9-1.8,5.9H24.8z M27.6,101c-0.4,1.9-0.8,3.9-1.1,5.9h-5.2
				c0.4-2,0.8-4,1.3-5.9H27.6z M22.8,100c0.5-2,1.1-4,1.7-5.9h4.8c-0.5,1.9-1,3.9-1.5,5.9H22.8z M25.2,114.8
				c-0.2,1.9-0.5,3.9-0.6,5.9h-5.4c0.2-2,0.4-4,0.7-5.9H25.2z M20.1,113.8c0.3-2,0.6-4,1-5.9h5.2c-0.3,1.9-0.6,3.9-0.9,5.9H20.1z
				 M59.2,37.9L59.1,38C33,58.2,16.9,87.7,13.9,121.2l0,0.5h16.6l0-0.5C32.1,89,45.2,60.6,68.4,38.9l1.2-1L59.2,37.9z"/>
		</g>
		<path fill="#8FA143" d="M64.3,35.1h5.2l1-1h-5.1L64.3,35.1z M70,36.1h-8.2l3.4-2.8h7.7L70,36.1z"/>
		<g>
			<path fill="#8FA143" d="M69.4,30.7h4.1c0.2-0.2,0.6-0.6,1-1h-3.9C70.4,29.9,70,30.2,69.4,30.7 M73.9,31.6h-7.1l1-0.8
				c1.4-1.2,2.3-1.9,2.3-1.9l0.1-0.1h6.4l-0.7,0.8c-0.6,0.7-1.9,1.9-1.9,1.9L73.9,31.6z"/>
			<path fill="#8FA143" d="M179.5,120.7c-0.2-2-0.4-4-0.7-5.9h3.3c0.3,2,0.5,3.9,0.7,5.9H179.5z M167.8,114.8h3.8
				c0.2,1.9,0.5,3.9,0.6,5.9h-4C168.2,118.7,168,116.8,167.8,114.8 M130.8,38.9h1c2.4,1.9,4.7,3.9,6.9,5.9h-2.2
				C134.7,42.8,132.8,40.8,130.8,38.9 M145.3,44.8h-1.5c-2.2-2.1-4.5-4-6.9-5.9h1.4C140.7,40.8,143,42.8,145.3,44.8 M152.3,51.7
				h-1.7c-1.8-2-3.7-4-5.7-5.9h1.5C148.4,47.7,150.4,49.7,152.3,51.7 M177.7,107.9h3.2c0.4,2,0.7,3.9,1,5.9h-3.3
				C178.4,111.8,178.1,109.9,177.7,107.9 M169.2,101c0.4,1.9,0.8,3.9,1.2,5.9h-3.7c-0.3-2-0.7-4-1.1-5.9H169.2z M167.6,94.1
				c0.5,1.9,1,3.9,1.5,5.9h-3.6c-0.4-2-0.9-4-1.5-5.9H167.6z M165.5,87.2c0.6,1.9,1.3,3.9,1.8,5.9h-3.6c-0.6-2-1.2-4-1.8-5.9H165.5z
				 M162.9,80.3c0.8,1.9,1.5,3.9,2.2,5.9h-3.6c-0.7-2-1.5-4-2.3-5.9H162.9z M159.9,73.4c0.9,1.9,1.8,3.9,2.7,5.9h-3.7
				c-0.8-2-1.7-4-2.7-5.9H159.9z M156.1,66.5c1.1,1.9,2.2,3.9,3.2,5.9h-3.7c-1-2-2-4-3.2-5.9H156.1z M151.7,59.6
				c1.4,1.9,2.6,3.9,3.9,5.9H152c-1.2-2-2.4-4-3.7-5.9H151.7z M146.3,52.7c1.6,1.9,3.2,3.9,4.7,5.9h-3.4c-1.4-2-2.8-4-4.3-5.9H146.3
				z M145.5,51.7h-2.9c-1.6-2-3.3-4-5.1-5.9h2.3C141.8,47.7,143.7,49.7,145.5,51.7 M155.1,58.6h-2.9c-1.5-2-3-4-4.6-5.9h2.5
				C151.8,54.6,153.5,56.6,155.1,58.6 M161.1,65.5c-1.3-2-2.7-4-4.1-5.9h1.9c1.5,1.9,2.9,3.9,4.3,5.9H161.1z M165.2,72.4
				c-1.1-2-2.3-4-3.5-5.9h2.2c1.3,1.9,2.5,3.9,3.7,5.9H165.2z M168.7,79.3c-0.9-2-1.9-4-3-5.9h2.4c1.1,1.9,2.1,3.9,3.1,5.9H168.7z
				 M171.6,86.2c-0.8-2-1.6-4-2.5-5.9h2.6c0.9,1.9,1.8,3.9,2.6,5.9H171.6z M174,93.1c-0.6-2-1.3-4-2-5.9h2.8c0.8,2,1.5,3.9,2.2,5.9
				H174z M176,100c-0.5-2-1.1-4-1.7-5.9h3c0.6,2,1.2,3.9,1.8,5.9H176z M176.2,101h3.1c0.5,2,1,3.9,1.4,5.9h-3.2
				C177.2,104.9,176.7,103,176.2,101 M175.2,101c0.5,2,0.9,3.9,1.3,5.9h-5.2c-0.3-2-0.7-4-1.1-5.9H175.2z M173.3,94.1
				c0.6,2,1.2,3.9,1.7,5.9h-5c-0.4-2-0.9-4-1.5-5.9H173.3z M171,87.2c0.7,1.9,1.4,3.9,2.1,5.9h-4.7c-0.6-2-1.2-4-1.8-5.9H171z
				 M168.1,80.3c0.9,1.9,1.7,3.9,2.5,5.9h-4.4c-0.7-2-1.4-4-2.2-5.9H168.1z M164.7,73.4c1,1.9,2.1,3.9,3,5.9h-4.1
				c-0.8-2-1.7-4-2.6-5.9H164.7z M156.7,65.5c-1.2-2-2.5-4-3.8-5.9h3c1.5,1.9,2.8,3.9,4.1,5.9H156.7z M160.6,66.5
				c1.2,1.9,2.4,3.9,3.5,5.9h-3.6c-1-2-2.1-4-3.2-5.9H160.6z M158.2,58.6h-1.9c-1.6-2-3.2-4-4.9-5.9h1.8
				C154.9,54.6,156.6,56.6,158.2,58.6 M143.4,45.8c2,1.9,4,3.9,5.9,5.9h-2.5c-1.8-2-3.6-4-5.5-5.9H143.4z M140.2,44.8
				c-2.2-2.1-4.5-4-6.8-5.9h2c2.4,1.9,4.8,3.9,7,5.9H140.2z M166.9,107.9h3.7c0.3,1.9,0.6,3.9,0.9,5.9h-3.8
				C167.5,111.8,167.2,109.9,166.9,107.9 M177.9,114.8c0.3,2,0.5,3.9,0.7,5.9h-5.4c-0.2-2-0.4-4-0.6-5.9H177.9z M172.4,113.8
				c-0.3-2-0.6-4-0.9-5.9h5.2c0.4,2,0.7,3.9,1,5.9H172.4z M183.9,121.2c-3-33.4-19.1-63-45.2-83.2l-0.1-0.1l-10.3,0l1.2,1
				c23.2,21.7,36.3,50.1,37.9,82.3l0,0.5h16.6L183.9,121.2z"/>
		</g>
		<path fill="#8FA143" d="M128.2,35.1h5.2l-1.2-1h-5.1L128.2,35.1z M136,36.1h-8.2l-2.9-2.8h7.7L136,36.1z"/>
		<g>
			<path fill="#8FA143" d="M124.3,30.7h4.1c-0.6-0.5-1-0.8-1.2-1h-3.9C123.7,30.1,124.1,30.5,124.3,30.7 M131,31.6h-7.1l-0.1-0.1
				c0,0-1.3-1.3-1.9-1.9l-0.7-0.8h6.4l0.1,0.1c0,0,0.9,0.7,2.3,1.9L131,31.6z"/>
			<path fill="#8FA143" d="M92.6,34.2c-0.1,0.3-0.2,0.7-0.3,1l12,0l-0.3-1L92.6,34.2z M91,36.1l0.2-0.6c0.2-0.6,0.4-1.3,0.6-1.9
				l0.1-0.3l12.7,0l1,2.8L91,36.1z"/>
			<path fill="#8FA143" d="M115.2,38.9c1.4,1.9,2.8,3.9,4.1,6h-3.5c-0.9-2-1.8-4-2.8-6L115.2,38.9z M128.7,44.8h-3
				c-1.5-2-3.1-4-4.8-5.9l2.9,0C125.5,40.8,127.1,42.8,128.7,44.8 M149.2,120.7c-0.1-2-0.3-4-0.4-5.9h7.3c0.2,2,0.4,4,0.5,5.9H149.2
				z M130.3,114.8h8.5c0.2,1.9,0.3,3.9,0.4,5.9h-9c0-1.2,0-2.6,0-3.8C130.4,116.3,130.3,115.5,130.3,114.8 M137.5,101
				c0.3,1.9,0.5,3.9,0.7,5.9h-8c-0.1-2-0.2-4-0.4-5.9H137.5z M136.5,94.1c0.3,1.9,0.6,3.9,0.9,5.9h-7.7c-0.2-2-0.4-4-0.6-5.9H136.5z
				 M135.2,87.2c0.4,1.9,0.7,3.9,1.1,5.9h-7.4c-0.2-2-0.5-4-0.8-5.9H135.2z M133.7,80.3c0.5,1.9,0.9,3.9,1.3,5.9h-7
				c-0.3-2-0.7-4-1-5.9H133.7z M131.9,73.4c0.6,1.9,1.1,3.9,1.6,5.9h-6.7c-0.4-2-0.8-4-1.3-5.9H131.9z M129.7,66.5
				c0.7,1.9,1.3,3.9,1.9,5.9h-6.4c-0.5-2-1-4-1.5-5.9H129.7z M127,59.6c0.8,1.9,1.6,3.9,2.3,5.9h-5.9c-0.6-2-1.2-4-1.9-5.9H127z
				 M123.8,52.7c1,1.9,1.9,3.9,2.8,5.9h-5.4c-0.7-2-1.4-4-2.1-5.9H123.8z M123.3,51.7h-4.6c-0.8-2-1.6-4-2.5-5.9h3.7
				C121.1,47.7,122.2,49.7,123.3,51.7 M134.3,58.6c-1.1-2-2.2-4-3.4-5.9h3.4c1.3,1.9,2.5,3.9,3.7,5.9H134.3z M137.6,65.5
				c-0.9-2-1.8-4-2.8-5.9h3.9c1.1,2,2.2,3.9,3.2,5.9H137.6z M140.3,72.4c-0.7-2-1.5-4-2.3-5.9h4.4c1,2,1.9,3.9,2.8,5.9H140.3z
				 M142.5,79.3c-0.6-2-1.2-4-1.9-5.9h4.9c0.8,2,1.6,3.9,2.4,5.9H142.5z M144.4,86.2c-0.5-2-1-4-1.6-5.9h5.5c0.7,2,1.4,3.9,2,5.9
				H144.4z M145.9,93.1c-0.4-2-0.8-4-1.3-5.9h6c0.6,2,1.1,3.9,1.7,5.9H145.9z M147.1,100c-0.3-2-0.7-4-1-5.9h6.5
				c0.5,2,0.9,3.9,1.3,5.9H147.1z M148,106.9c-0.2-2-0.5-4-0.8-5.9h6.8c0.4,2,0.7,3.9,1,5.9H148z M148.2,107.9h7.1
				c0.3,2,0.5,3.9,0.8,5.9h-7.2C148.6,111.8,148.4,109.8,148.2,107.9 M146.3,101c0.3,1.9,0.6,3.9,0.8,5.9h-7.9c-0.2-2-0.4-4-0.7-5.9
				H146.3z M145.1,94.1c0.4,1.9,0.7,3.9,1,5.9h-7.8c-0.3-2-0.6-4-0.9-5.9H145.1z M143.6,87.2c0.5,1.9,0.9,3.9,1.3,5.9h-7.6
				c-0.3-2-0.7-4-1.1-5.9H143.6z M141.8,80.3c0.6,1.9,1.1,3.9,1.6,5.9H136c-0.4-2-0.8-4-1.3-5.9H141.8z M139.6,73.4
				c0.7,1.9,1.3,3.9,1.9,5.9h-7.1c-0.5-2-1-4-1.6-5.9H139.6z M136.9,66.5c0.8,1.9,1.6,3.9,2.3,5.9h-6.6c-0.6-2-1.3-4-1.9-5.9H136.9z
				 M127.7,58.6c-0.9-2-1.8-4-2.8-5.9h5c1.2,1.9,2.3,3.9,3.4,5.9H127.7z M133.7,59.6c1,1.9,1.9,3.9,2.8,5.9h-6.2
				c-0.7-2-1.5-4-2.3-5.9H133.7z M130.1,107.9h8.1c0.2,1.9,0.4,3.9,0.5,5.9h-8.5C130.3,111.8,130.2,109.9,130.1,107.9 M147.9,114.8
				c0.2,1.9,0.3,3.9,0.4,5.9h-8.1c-0.1-2-0.3-4-0.4-5.9H147.9z M139.8,113.8c-0.2-2-0.3-4-0.5-5.9h8c0.2,1.9,0.4,3.9,0.6,5.9H139.8z
				 M133.8,51.7h-3.4c-1.3-2-2.6-4-4-5.9h3C130.9,47.7,132.4,49.7,133.8,51.7 M120.4,44.8c-1.3-2-2.6-4-4-6l3.2,0
				c1.7,1.9,3.3,3.9,4.9,5.9H120.4z M125.2,45.8c1.4,1.9,2.8,3.9,4,5.9h-4.9c-1.1-2-2.1-4-3.3-5.9H125.2z M129.3,121.7h28.3l0-0.6
				c-1.9-32-13.4-60.7-33.2-82.9l-0.3-0.2l-12.7,0l0.4,0.7c11.7,22.9,17.6,49.3,17.6,78.4c0,1.3,0,2.8,0,4.2L129.3,121.7z"/>
		</g>
		<path fill="#8FA143" d="M109.4,30.7h8.2l-0.9-1h-7.8L109.4,30.7z M119.7,31.6h-10.9l-1.4-2.8h9.7L119.7,31.6z"/>
		<path fill="#8FA143" d="M111.5,35.2h9.6l-0.9-1H111L111.5,35.2z M123.2,36.1h-12.3l-1.4-2.8h11.1L123.2,36.1z"/>
		<g>
			<path fill="#8FA143" d="M81.3,44.8h-3.5c1.3-2,2.6-4,4.1-6l2.2,0C83.1,40.8,82.2,42.8,81.3,44.8 M57.9,120.7c0.1-2,0.3-4,0.4-5.9
				h8.5c0,0.7,0,1.5,0,2.2c0,1.2,0,2.5,0,3.8H57.9z M41,114.8h7.3c-0.2,2-0.3,3.9-0.4,5.9h-7.3C40.7,118.8,40.8,116.8,41,114.8
				 M73.4,38.9l2.8,0c-1.7,1.9-3.3,3.9-4.8,6h-3C70.1,42.8,71.7,40.8,73.4,38.9 M72.7,44.8c1.5-2,3.2-4,4.9-6l3.2,0
				c-1.4,1.9-2.8,3.9-4,6H72.7z M72.8,51.7h-4.9c1.3-2,2.6-4,4-5.9h4.2C74.9,47.7,73.8,49.7,72.8,51.7 M73.9,51.7
				c1.1-2,2.2-4,3.4-5.9h3.7c-0.9,2-1.7,3.9-2.5,5.9H73.9z M70.5,58.6c0.9-2,1.8-4,2.8-5.9H78c-0.8,2-1.5,3.9-2.1,5.9H70.5z
				 M67.8,65.5c0.7-2,1.5-4,2.3-5.9h5.5c-0.7,2-1.3,3.9-1.9,5.9H67.8z M65.5,72.4c0.6-2,1.3-4,1.9-5.9h6c-0.6,2-1.1,3.9-1.6,5.9
				H65.5z M63.6,79.3c0.5-2,1-4,1.6-5.9h6.5c-0.5,2-0.9,3.9-1.3,5.9H63.6z M62.1,86.2c0.4-2,0.8-4,1.3-5.9h6.8c-0.4,2-0.7,3.9-1,5.9
				H62.1z M60.8,93.1c0.3-2,0.7-4,1.1-5.9H69c-0.3,2-0.6,3.9-0.8,5.9H60.8z M59.8,100c0.3-2,0.6-4,0.9-5.9h7.4
				c-0.2,2-0.4,3.9-0.6,5.9H59.8z M59,106.9c0.2-2,0.4-4,0.7-5.9h7.7c-0.2,2-0.3,4-0.4,5.9H59z M58.9,107.9H67c-0.1,2-0.1,4-0.2,5.9
				h-8.5C58.5,111.8,58.7,109.8,58.9,107.9 M49,107.9c-0.2,1.9-0.4,3.9-0.6,5.9h-7.2c0.2-2,0.5-4,0.8-5.9H49z M49.9,101
				c-0.3,1.9-0.6,3.9-0.8,5.9h-7.1c0.3-2,0.7-4,1-5.9H49.9z M51.1,94.1c-0.4,1.9-0.7,3.9-1,5.9h-6.8c0.4-2,0.9-4,1.3-5.9H51.1z
				 M52.5,87.2c-0.5,1.9-0.9,3.9-1.3,5.9h-6.4c0.5-2,1.1-4,1.7-5.9H52.5z M54.3,80.3c-0.6,1.9-1.1,3.9-1.6,5.9h-6c0.6-2,1.3-4,2-5.9
				H54.3z M56.5,73.4c-0.7,1.9-1.3,3.9-1.9,5.9h-5.4c0.7-2,1.5-4,2.4-5.9H56.5z M59.2,66.5c-0.8,1.9-1.6,3.9-2.3,5.9H52
				c0.9-2,1.8-4,2.8-5.9H59.2z M62.3,59.6c-1,1.9-1.9,3.9-2.8,5.9h-4.4c1-2,2.1-4,3.2-5.9H62.3z M63.9,58.6c1.1-2,2.2-4,3.4-5.9h5
				c-1,1.9-1.9,3.9-2.8,5.9H63.9z M60.6,65.5c0.9-2,1.8-4,2.8-5.9h5.7c-0.8,1.9-1.6,3.9-2.3,5.9H60.6z M57.9,72.4
				c0.7-2,1.5-4,2.3-5.9h6.2c-0.7,1.9-1.3,3.9-1.9,5.9H57.9z M55.6,79.3c0.6-2,1.2-4,1.9-5.9h6.7c-0.6,1.9-1.1,3.9-1.6,5.9H55.6z
				 M53.8,86.2c0.5-2,1-4,1.6-5.9h7.1c-0.5,1.9-0.9,3.9-1.3,5.9H53.8z M52.2,93.1c0.4-2,0.8-4,1.3-5.9h7.4c-0.4,1.9-0.7,3.9-1.1,5.9
				H52.2z M58.7,101c-0.3,1.9-0.5,3.9-0.7,5.9h-7.9c0.2-2,0.5-4,0.8-5.9H58.7z M51,100c0.3-2,0.7-4,1-5.9h7.6
				c-0.3,1.9-0.6,3.9-0.9,5.9H51z M63.4,51.7c1.4-2,2.8-4,4.3-5.9h3c-1.4,1.9-2.7,3.9-4,5.9H63.4z M66.2,52.7
				c-1.2,1.9-2.3,3.9-3.4,5.9H59c1.2-2,2.4-4,3.7-5.9H66.2z M57.3,114.8c-0.2,2-0.3,3.9-0.4,5.9h-8.1c0.1-2,0.3-4,0.4-5.9H57.3z
				 M49.4,113.8c0.2-2,0.4-4,0.6-5.9h8c-0.2,1.9-0.4,3.9-0.5,5.9H49.4z M85.7,37.9l-12.7,0l-0.3,0.2c-19.8,22.2-31.3,50.9-33.2,82.9
				l0,0.7h27.8l0.5-0.1l0-0.5c0-1.3,0-2.8,0-4.1c0-29.1,5.9-55.5,17.6-78.4L85.7,37.9z"/>
		</g>
		<path fill="#8FA143" d="M79.6,30.7h8.2l0.5-1h-7.8L79.6,30.7z M88.3,31.6H77.5l2.6-2.8h9.7L88.3,31.6z"/>
		<path fill="#8FA143" d="M76,35.2h9.6l0.5-1h-9.2L76,35.2z M86.3,36.1H74l2.6-2.8h11.1L86.3,36.1z"/>
		<path fill="#8FA143" d="M93.5,29.7c-0.1,0.3-0.2,0.7-0.3,1h10l-0.3-1L93.5,29.7z M92,31.6l0.2-0.6c0.2-0.6,0.4-1.3,0.6-1.9
			l0.1-0.3l10.7,0l1,2.8L92,31.6z"/>
	</g>
</g>
</svg>
