<?xml version="1.0" encoding="utf-8"?>
<!-- Generator: Adobe Illustrator 17.1.0, SVG Export Plug-In . SVG Version: 6.00 Build 0)  -->
<!DOCTYPE svg PUBLIC "-//W3C//DTD SVG 1.1//EN" "http://www.w3.org/Graphics/SVG/1.1/DTD/svg11.dtd">
<svg version="1.1" id="Layer_1" xmlns="http://www.w3.org/2000/svg" xmlns:xlink="http://www.w3.org/1999/xlink" x="0px" y="0px"
	 viewBox="0 0 391.1 135.6" enable-background="new 0 0 391.1 135.6" xml:space="preserve">
<g>
	<path fill="#EDEFF8" d="M12.1,133.1c-5.3,0-9.5-4.3-9.5-9.5V11.7c0-5.3,4.3-9.5,9.5-9.5h366.3c5.3,0,9.5,4.3,9.5,9.5v111.9
		c0,5.3-4.3,9.5-9.5,9.5H12.1z"/>
	<path fill="#C3CDDD" d="M378.4,4.7c3.9,0,7,3.1,7,7v111.9c0,3.9-3.1,7-7,7H12.1c-3.9,0-7-3.1-7-7V11.7c0-3.9,3.1-7,7-7H378.4
		 M378.4-0.3H12.1c-6.6,0-12,5.4-12,12v111.9c0,6.6,5.4,12,12,12h366.3c6.6,0,12-5.4,12-12V11.7C390.5,5.1,385.1-0.3,378.4-0.3
		L378.4-0.3z"/>
</g>
<g>
	<g>
		<path fill="#FFFFFF" d="M378.4,6.6c2.8,0,5.1,2.3,5.1,5.1v111.9c0,2.8-2.3,5.1-5.1,5.1H12.1c-2.8,0-5.1-2.3-5.1-5.1V11.7
			c0-2.8,2.3-5.1,5.1-5.1H378.4 M378.4,4.7H12.1c-3.9,0-7,3.1-7,7v111.9c0,3.9,3.1,7,7,7h366.3c3.9,0,7-3.1,7-7V11.7
			C385.5,7.8,382.3,4.7,378.4,4.7L378.4,4.7z"/>
	</g>
</g>
<g>
	<g>
		<defs>
			<rect id="SVGID_1_" x="34.5" y="25.3" width="90.5" height="80"/>
		</defs>
		<clipPath id="SVGID_2_">
			<use xlink:href="#SVGID_1_"  overflow="visible"/>
		</clipPath>
		<g clip-path="url(#SVGID_2_)">
			<defs>
				<rect id="SVGID_3_" x="34.5" y="25.3" width="90.5" height="80"/>
			</defs>
			<clipPath id="SVGID_4_">
				<use xlink:href="#SVGID_3_"  overflow="visible"/>
			</clipPath>
			<g clip-path="url(#SVGID_4_)">
				<defs>
					<rect id="SVGID_5_" x="34.5" y="25.3" width="90.5" height="80"/>
				</defs>
				<clipPath id="SVGID_6_">
					<use xlink:href="#SVGID_5_"  overflow="visible"/>
				</clipPath>
				<path clip-path="url(#SVGID_6_)" fill="#31353A" d="M122.3,69.1c4.6-4.6,3.2-13.8-4.8-13.8l-20.9,0c0.8-4.4,1.9-11.8,1.9-12.4
					c-0.4-6.6-4.6-14.5-4.8-14.9c-0.8-1.4-4.6-3.3-8.5-2.5c-5,1.1-5.5,4.3-5.5,5.1c0,0,0.2,8.7,0.2,11.1
					C77.6,47,69.4,60.8,66.9,61.9c-0.6-0.4-1.3-0.6-2-0.6H38.5c-2.2,0-4,1.8-4,4l0,36.5c0.2,2,1.8,3.5,3.8,3.5h23.7
					c2.1,0,3.8-1.7,3.8-3.8v-1.2c0,0,0.9-0.1,1.3,0.2c1.5,1,3.4,2.2,5.9,2.2h35.4c13.2,0,11.8-11.7,10.6-13.3
					c2.2-2.4,3.6-6.7,1.7-10.1C122.1,77.7,124.6,73.5,122.3,69.1"/>
				<path clip-path="url(#SVGID_6_)" fill="#FFFFFF" d="M117,59.2H92c1-3.8,2.7-16,2.7-16c-0.4-5.9-4.4-13.3-4.4-13.3
					c-4.7-2-6.8,0.7-6.8,0.7s0.2,9.4,0.2,11.6c0,2.2-10.7,19.5-13.4,21.8c-1.4,1.2-3.9,2.8-5.9,4.1v28l1.6,0c1.9,0,4.2,2.9,6.7,2.9
					l36,0c7.2,0,8.4-8.1,3.6-8.9l0.2-0.9c4.6-0.5,7.4-7.7,1.5-9.2l0.2-0.9c4.4-0.5,7.6-7.5,1.5-9.2l0.2-0.9
					C121.9,67.9,123.1,59.2,117,59.2"/>
				<path clip-path="url(#SVGID_6_)" fill="#EDEFF8" d="M115.9,69.7l0.2-0.9c5.7-0.9,6.9-9.7,0.8-9.7h-12c6.1,0,4.9,8.8-0.8,9.7
					l-0.1,0.5c6.1,1.7,2.7,9.1-1.6,9.6l-0.1,0.5c5.8,1.5,2.9,9.1-1.6,9.6l-0.1,0.5c4.8,0.8,3.5,9.3-3.7,9.3l-24,0c0,0,0,0,0.1,0
					l36,0c7.2,0,8.4-8.1,3.6-8.9l0.2-0.9c4.6-0.5,7.4-7.7,1.5-9.2l0.2-0.9C118.8,78.5,122,71.5,115.9,69.7"/>
				<rect x="38.3" y="65.1" clip-path="url(#SVGID_6_)" fill="#6883AF" width="23.7" height="36.4"/>
				<path clip-path="url(#SVGID_6_)" fill="#748FB5" d="M38.3,101.5H62V65.1H38.3V101.5z M60.5,100H39.8V69.8l20.7,0V100z"/>
				<g opacity="0.5" clip-path="url(#SVGID_6_)">
					<g>
						<defs>
							<rect id="SVGID_7_" x="64.6" y="65.7" width="3.6" height="31.1"/>
						</defs>
						<clipPath id="SVGID_8_">
							<use xlink:href="#SVGID_7_"  overflow="visible"/>
						</clipPath>
						<path clip-path="url(#SVGID_8_)" fill="#D3D4D3" d="M68.1,96.7V65.7c-0.1,0-3.3,2.2-3.6,2.3v28l1.6,0
							C66.8,96,67.4,96.3,68.1,96.7"/>
					</g>
				</g>
				<path clip-path="url(#SVGID_6_)" fill="#EDEFF8" d="M87.1,29.1L87.1,29.1c0,0.1,2.9,10.9,2.9,12.4c0,1.6-8.9,14.8-7.7,16.4
					c1.6,2.3,9.7,1.2,9.7,1.2c1-3.8,2.7-16,2.7-16c-0.4-5.9-4.4-13.3-4.4-13.3C90.2,29.8,88.9,29.1,87.1,29.1"/>
			</g>
		</g>
	</g>
</g>
<g>
	<path fill="#3B5999" d="M184.9,56.2c-4.6-3-9.5-4.6-15-4.6c-11.2,0-18.6,7.7-18.6,20.1c0,12.6,7.2,20.6,18.8,20.6
		c5.9,0,11.4-2.2,15.7-5.1l2.1,10.3c-4.6,2.7-11.7,4.5-18.2,4.5C152,102,140,90.9,140,72.2c0-18.3,12-30.1,29.9-30.1
		c6.7,0,13.6,1.7,18.5,4.5L184.9,56.2z"/>
	<path fill="#3B5999" d="M204.5,58.4v25.7c0,6.2,2.6,8.2,7.1,8.2c3.8,0,7.2-1.7,9.2-3.7V58.4h10.8v41.9l-10.8,1.5c0,0,0-5.9,0-6.2
		c-3.5,3.8-8.5,6.4-13.9,6.4c-8.2,0-13.3-5.5-13.3-14.6v-29H204.5z"/>
	<path fill="#3B5999" d="M252.1,100.6h-10.8V58.7l10.8-1.6V64c2.7-4.5,6-7,11-7c2.6,0,5.2,0.5,7.5,1.9l-2.4,9.7c-2-1.1-4-1.6-6-1.6
		c-3.8,0-7.2,2.4-10.1,7.5V100.6z"/>
	<path fill="#3B5999" d="M293.3,102c-9.4,0-14.4-4.1-14-14.3l0.6-19.9l-6.6-0.7l0.3-6.9l6.6-2.1l0.2-9.3h10.4l-0.2,9.9h11.9
		l-0.3,8.9H290l-0.5,19.5c-0.1,3.9,1.9,5.8,5.6,5.8c2.2,0,4.4-0.5,6.6-1.3l1.5,8.8C299.9,101.5,297,102,293.3,102z"/>
	<path fill="#3B5999" d="M314.3,50.7c-4.2,0-6.6-2.6-6.6-6.5c0-3.8,2.4-6.5,6.6-6.5c4.3,0,6.7,2.7,6.7,6.5
		C320.9,48.2,318.6,50.7,314.3,50.7z M308.9,100.6V58.7l10.8-1.6v43.5H308.9z"/>
	<path fill="#3B5999" d="M340.1,100.6h-10.8V58.7l10.8-1.6V64c2.7-4.5,6-7,11-7c2.6,0,5.2,0.5,7.5,1.9l-2.4,9.7c-2-1.1-4-1.6-6-1.6
		c-3.8,0-7.2,2.4-10.1,7.5V100.6z"/>
</g>
</svg>
