<?xml version="1.0" encoding="utf-8"?>
<!-- Generator: Adobe Illustrator 16.0.0, SVG Export Plug-In . SVG Version: 6.00 Build 0)  -->
<!DOCTYPE svg PUBLIC "-//W3C//DTD SVG 1.1//EN" "http://www.w3.org/Graphics/SVG/1.1/DTD/svg11.dtd">
<svg version="1.1" id="Layer_1" xmlns="http://www.w3.org/2000/svg" xmlns:xlink="http://www.w3.org/1999/xlink" x="0px" y="0px"
	 width="260px" height="260px" viewBox="0 0 260 260" enable-background="new 0 0 260 260" xml:space="preserve">
<g>
	<path id="Blue_1_" fill="#3D5A98" d="M245.65,260.001c7.924,0,14.35-6.426,14.35-14.351V14.349c0-7.926-6.426-14.35-14.35-14.35
		H14.35C6.423-0.001,0,6.423,0,14.349V245.65c0,7.925,6.423,14.351,14.35,14.351H245.65z"/>
	<path id="f" fill="#FFFFFF" d="M179.396,260.001V159.314h33.796l5.061-39.239h-38.856V95.022c0-11.361,3.154-19.104,19.446-19.104
		l20.778-0.009V40.814c-3.594-0.478-15.929-1.546-30.277-1.546c-29.959,0-50.469,18.286-50.469,51.868v28.938h-33.883v39.239h33.883
		v100.687H179.396z"/>
</g>
</svg>
