<?xml version="1.0" encoding="utf-8"?>
<!-- Generator: Adobe Illustrator 17.1.0, SVG Export Plug-In . SVG Version: 6.00 Build 0)  -->
<!DOCTYPE svg PUBLIC "-//W3C//DTD SVG 1.1//EN" "http://www.w3.org/Graphics/SVG/1.1/DTD/svg11.dtd">
<svg version="1.1" id="Layer_1" xmlns="http://www.w3.org/2000/svg" xmlns:xlink="http://www.w3.org/1999/xlink" x="0px" y="0px"
	 viewBox="0 311.8 1190.6 218.3" enable-background="new 0 311.8 1190.6 218.3" xml:space="preserve">
<g>
	<text transform="matrix(1 0 0 1 489.2837 453.6009)" fill="#FFFFFF" font-family="'Verdana-Bold'" font-size="35.2816">SECRETARIA </text>
	<text transform="matrix(1 0 0 1 753.4336 453.6009)" fill="#FFFFFF" font-family="'Verdana-Bold'" font-size="35.2816"> </text>
	<text transform="matrix(1 0 0 1 489.2837 495.5101)" fill="#FFFFFF" font-family="'Verdana-Bold'" font-size="35.2816">DE</text>
	<text transform="matrix(1 0 0 1 542.855 495.5101)" fill="#FFFFFF" font-family="'Verdana-Bold'" font-size="35.2816"> </text>
	<text transform="matrix(1 0 0 1 553.5703 495.5101)" fill="#FFFFFF" font-family="'Verdana-Bold'" font-size="35.2816">EDUCAÇÃO</text>
	<text transform="matrix(1 0 0 1 834.4463 411.7552)" fill="#FFFFFF" font-family="'Verdana-Bold'" font-size="35.2816">SECRETARIA DE</text>
	<text transform="matrix(1 0 0 1 1151.9971 411.7352)" fill="#2158A8" font-family="'Verdana-Bold'" font-size="35.2816"> </text>
	<text transform="matrix(1 0 0 1 834.458 453.6507)" fill="#FFFFFF" font-family="'Verdana-Bold'" font-size="35.2816">ESPORTE, LAZER </text>
	<text transform="matrix(1 0 0 1 1178.0781 453.6507)" fill="#FFFFFF" font-family="'Verdana-Bold'" font-size="35.2816"> </text>
	<text transform="matrix(1 0 0 1 834.458 495.557)" fill="#FFFFFF" font-family="'Verdana-Bold'" font-size="35.2816">E JUVENTUDE</text>
	<rect x="4.4" y="315.8" fill="#FFFFFF" width="178.2" height="210.3"/>
	<rect x="182.6" y="315.8" fill="#2158A8" width="239.7" height="210.3"/>
	<g>
		<path fill="#FFFFFF" d="M391.3,490.4L391.3,490.4c0.4-0.8,0.8-1.6,1.2-2.4s0.4-2.4,0.4-4s0-2.8-0.4-4c-0.4-1.2-0.8-2-1.2-2.8
			c-0.4-0.8-1.2-1.2-2-1.6c-0.8-0.4-1.6-0.4-2.4-0.4s-1.6,0-2.4,0.4c-0.8,0.4-1.2,0.8-2,1.2c-0.4,0.8-0.8,1.6-1.2,2.8
			c-0.4,1.2-0.4,2.4-0.4,4s0,2.8,0.4,4c0.4,1.2,0.8,2,1.2,2.8c0.4,0.8,1.2,1.2,2,1.2c0.8,0.4,1.6,0.4,2.4,0.4s1.6,0,2.4-0.4
			C390.5,491.6,390.9,490.8,391.3,490.4 M402.4,483.6c0,4.4-1.2,7.9-4,10.7c-2.8,2.4-6.3,4-11.1,4c-4.8,0-8.3-1.2-11.1-4
			s-4-6-4-10.7c0-4.4,1.2-7.9,4-10.7c2.8-2.4,6.3-4,11.1-4s8.3,1.2,11.1,4C400.8,475.7,402.4,479.3,402.4,483.6 M370.3,478.5h-0.8
			c-0.4,0-0.8-0.4-2-0.4c-0.8,0-1.6,0-2,0c-1.2,0-2.4,0-3.2,0.4c-0.8,0-2,0.4-3.2,0.8v18.3h-8.7v-27.4h8.7v4c2-1.6,3.6-2.8,5.2-3.2
			c1.6-0.4,2.8-0.8,4-0.8c0.4,0,0.8,0,1.2,0c0.4,0,0.8,0,1.2,0v8.3L370.3,478.5L370.3,478.5z M343.7,466.2L343.7,466.2h-9.1v-6.7
			h9.1V466.2z M343.7,497.5H335v-27.4h8.7V497.5z M319.5,480.1L319.5,480.1c0-2-0.4-3.2-1.2-4s-2.4-1.2-4-1.2s-3.2,0.4-4,1.2
			c-1.2,0.8-1.6,2.4-2,4.4h11.1v-0.4H319.5z M328.2,485.2h-19.8c0,2,0.8,4,2.4,4.8c1.6,1.2,3.6,1.6,6.7,1.6c2,0,3.6-0.4,5.6-1.2
			c2-0.8,3.2-1.2,4-2h0.8v7.1c-2,0.8-4,1.2-5.6,1.6c-1.6,0.4-3.6,0.4-6,0.4c-5.6,0-9.5-1.2-12.7-3.6c-2.8-2.4-4.4-6-4.4-10.7
			c0-4.4,1.2-7.9,4-10.7c2.8-2.8,6.7-4,11.5-4c4.4,0,7.9,1.2,9.9,3.6c2.4,2.4,3.2,5.6,3.2,9.5v3.6L328.2,485.2L328.2,485.2z
			 M293.7,497.5H285V484c0-1.2,0-2.4,0-3.2c0-1.2-0.4-2-0.4-2.4c-0.4-0.8-0.8-1.2-1.6-1.2c-0.8-0.4-1.6-0.4-2.8-0.4
			c-0.8,0-1.6,0-2.4,0.4c-0.8,0.4-1.6,0.8-2.8,1.2v19.4h-8.7v-27.4h8.7v3.2c1.6-1.2,3.2-2,4.4-2.8c1.6-0.8,3.2-0.8,4.8-0.8
			c2.8,0,5.2,0.8,6.7,2.4c1.6,1.6,2.4,4.4,2.4,7.5v17.5L293.7,497.5L293.7,497.5z M250.4,494.4L250.4,494.4
			c-0.4,0.4-1.2,0.8-1.6,1.2c-0.8,0.4-1.2,0.8-2,1.2c-0.8,0.4-1.6,0.8-2.8,0.8c-0.8,0-2,0.4-3.2,0.4c-2.8,0-4.8-0.8-6.3-2.4
			s-2.8-3.6-2.8-6c0-2,0.4-3.6,1.2-4.8c0.8-1.2,2-2.4,4-3.2c1.6-0.8,3.6-1.2,6-1.6c2.4-0.4,4.8-0.4,7.5-0.8l0,0c0-1.6-0.8-2.4-2-3.2
			c-1.2-0.4-3.2-0.8-5.6-0.8c-1.6,0-3.2,0.4-4.8,0.8c-1.6,0.4-2.8,0.8-3.6,1.2H234v-6.7c0.8-0.4,2.4-0.4,4.4-0.8
			c2-0.4,4.4-0.4,6.3-0.4c5.2,0,8.7,0.8,10.7,2.4c2.4,1.6,3.2,4,3.2,7.1v18.7H250v-3.2L250.4,494.4L250.4,494.4z M250.4,490.4v-5.6
			c-1.2,0-2.4,0.4-4,0.4c-1.2,0-2.4,0.4-3.2,0.4c-0.8,0.4-1.6,0.8-2,1.2c-0.4,0.4-0.8,1.2-0.8,2c0,0.4,0,1.2,0,1.2
			c0,0.4,0.4,0.8,0.8,1.2c0.4,0.4,0.8,0.4,1.2,0.8c0.4,0,1.2,0.4,2.4,0.4c0.8,0,1.6,0,2.8-0.4C248.8,491.2,249.6,490.8,250.4,490.4
			 M226.6,486.8c0,1.6-0.4,3.2-0.8,4.4c-0.4,1.2-1.6,2.4-2.4,3.6c-1.2,1.2-2.8,2-4.4,2.4c-1.6,0.4-3.6,0.8-6.3,0.8
			c-1.6,0-3.2,0-4.8,0c-1.6,0-2.8-0.4-4-0.4v-7.1h0.8c0.8,0.4,1.6,0.4,2.4,0.8c0.8,0.4,2,0.4,3.2,0.4c1.6,0,3.2-0.4,4-0.8
			c0.8-0.4,1.6-1.2,2-2c0.4-0.8,0.4-1.6,0.8-2.8c0-0.8,0-2,0-3.6v-14.3h-8.3v-6.7h17.5v25.4L226.6,486.8L226.6,486.8z M353.6,435.6
			L353.6,435.6c0-2-0.4-3.2-1.2-4c-0.8-0.8-2.4-1.2-4-1.2s-3.2,0.4-4,1.2c-1.2,0.8-1.6,2.4-2,4.4h11.1v-0.4H353.6z M362.3,440.8
			h-19.8c0,2,0.8,4,2.4,4.8c1.6,1.2,3.6,1.6,6.7,1.6c2,0,3.6-0.4,5.6-1.2c1.6-0.8,3.2-1.2,4-2h0.8v7.1c-2,0.8-4,1.2-5.6,1.6
			c-1.6,0.4-3.6,0.4-6,0.4c-5.6,0-9.5-1.2-12.7-3.6c-2.8-2.4-4.4-6-4.4-10.7c0-4.4,1.2-7.9,4-10.7c2.8-2.8,6.7-4,11.5-4
			c4.4,0,7.9,1.2,9.9,3.6c2.4,2.4,3.2,5.6,3.2,9.5v3.6L362.3,440.8L362.3,440.8z M319.5,445.2L319.5,445.2v-13.5
			c-0.8-0.4-1.2-0.4-2-0.4c-0.8,0-1.2,0-2,0c-2.4,0-4,0.8-5.2,2c-1.2,1.6-1.6,3.6-1.6,6c0,2.8,0.4,4.8,1.2,6c0.8,1.2,2.4,2,4.4,2
			c0.8,0,1.6,0,2.4-0.4C317.9,445.9,318.7,445.5,319.5,445.2 M328.2,452.7h-8.7v-2.8c-1.6,1.2-2.8,2-4.4,2.8
			c-1.2,0.4-2.8,0.8-4.4,0.8c-3.2,0-6-1.2-7.9-4c-2-2.4-3.2-6-3.2-10.3c0-2.4,0.4-4.4,1.2-6c0.8-2,1.6-3.2,2.8-4.8
			c1.2-1.2,2.4-2,4-2.8c1.6-0.8,3.2-1.2,4.8-1.2c1.6,0,2.8,0,4,0.4c1.2,0.4,2,0.8,3.2,1.2v-11h8.7v37.7H328.2z M275.4,445.5
			L275.4,445.5c0.4-0.8,0.8-1.6,1.2-2.4c0.4-0.8,0.4-2.4,0.4-4s0-2.8-0.4-4c-0.4-1.2-0.8-2-1.2-2.8c-0.4-0.8-1.2-1.2-2-1.6
			c-0.4,0-1.2,0-2,0s-1.6,0-2.4,0.4s-1.2,0.8-2,1.2c-0.4,0.8-0.8,1.6-1.2,2.8c-0.4,1.2-0.4,2.4-0.4,4s0,2.8,0.4,4
			c0.4,1.2,0.8,2,1.2,2.8c0.4,0.8,1.2,1.2,2,1.2c0.8,0.4,1.6,0.4,2.4,0.4s1.6,0,2.4-0.4S275,446.3,275.4,445.5 M286.5,439.2
			c0,4.4-1.2,7.9-4,10.7c-2.8,2.4-6.3,4-11.1,4s-8.3-1.2-11.1-4s-4-6-4-10.7c0-4.4,1.2-7.9,4-10.7c2.8-2.4,6.3-4,11.1-4
			c4.8,0,8.3,1.2,11.1,4C284.9,430.9,286.5,434.4,286.5,439.2 M251.2,421.7L251.2,421.7h-9.1V415h9.1V421.7z M250.8,452.7h-8.7
			v-27.4h8.7V452.7z M239.3,452.7L239.3,452.7h-11.5l-9.9-13.1h-4.4v13.1h-9.1v-36.1h15.5c2,0,4,0,5.6,0.4c1.6,0.4,3.2,0.8,4.4,1.6
			c1.2,0.8,2.4,2,3.2,3.2c0.8,1.2,1.2,2.8,1.2,4.8c0,2.8-0.8,4.8-2,6.3c-1.2,1.5-3.2,3.2-5.2,4.4L239.3,452.7z M224.6,427.7
			c0-0.8,0-1.6-0.4-2.4c-0.4-0.8-1.2-1.2-2-1.6c-0.8-0.4-1.2-0.4-2.4-0.4c-0.8,0-2,0-2.8,0h-3.6v9.9h2.8c1.6,0,2.8,0,3.6-0.4
			c1.2,0,2-0.4,2.4-1.2c0.8-0.4,1.2-1.2,1.6-1.6C224.6,429.3,224.6,428.5,224.6,427.7 M395.7,402.7L395.7,402.7
			c0.4-0.4,0.8-1.2,1.2-2s0.4-1.6,0.4-2.8c0-1.2,0-2-0.4-2.8c-0.4-0.8-0.8-1.6-1.2-2c-0.4-0.4-0.8-0.8-1.6-1.2
			c-0.4-0.4-1.2-0.4-1.6-0.4c-0.8,0-1.2,0-1.6,0.4c-0.4,0.4-1.2,0.4-1.6,1.2c-0.4,0.4-0.8,1.2-1.2,2c-0.4,0.8-0.4,2-0.4,2.8
			c0,1.2,0,2,0.4,2.8c0.4,0.8,0.8,1.6,1.2,2c0.4,0.4,0.8,0.8,1.6,1.2c0.4,0.4,1.2,0.4,2,0.4s1.2,0,2-0.4
			C394.9,403.9,395.3,403.5,395.7,402.7 M402.4,397.9c0,3.2-0.8,5.6-2.8,7.1c-1.6,2-4.4,2.8-7.1,2.8c-3.2,0-5.6-0.8-7.1-2.8
			c-1.6-2-2.8-4.4-2.8-7.1c0-3.2,0.8-5.6,2.8-7.1c1.6-2,4.4-2.8,7.1-2.8c3.2,0,5.6,0.8,7.1,2.8C401.2,392.4,402.4,394.8,402.4,397.9
			 M374.2,397.9L374.2,397.9c0-1.2-0.4-2.4-0.8-3.2c-0.4-0.8-1.2-1.6-2-2c-0.4-0.4-1.2-0.4-1.6-0.4c-0.4,0-1.2,0-2.4,0h-1.2v11.9
			h1.2c1.2,0,2,0,2.8,0c0.4,0,1.2-0.4,1.6-0.4c0.8-0.4,1.6-1.2,2-2C374.2,400.3,374.2,399.1,374.2,397.9 M379.4,397.9
			c0,2-0.4,3.6-1.2,4.8c-0.8,1.6-2,2.4-3.2,3.2c-0.8,0.4-2,0.8-3.2,1.2c-1.2,0.4-2.4,0.4-4,0.4h-6.7v-19h7.1c1.6,0,2.8,0,4,0.4
			c1.2,0.4,2,0.8,2.8,1.2c1.2,0.8,2.4,2,3.2,3.2C379,394.4,379.4,395.9,379.4,397.9 M342.1,402.7L342.1,402.7c0.4-0.4,0.8-1.2,1.2-2
			c0.4-0.8,0.4-1.6,0.4-2.8c0-1.2,0-2-0.4-2.8c-0.4-0.8-0.8-1.6-1.2-2c-0.4-0.4-0.8-0.8-1.6-1.2c-0.4-0.4-1.2-0.4-1.6-0.4
			c-0.8,0-1.2,0-1.6,0.4c-0.4,0.4-1.2,0.4-1.6,1.2c-0.4,0.4-0.8,1.2-1.2,2c-0.4,0.8-0.4,2-0.4,2.8c0,1.2,0,2,0.4,2.8
			c0.4,0.8,0.8,1.6,1.2,2s0.8,0.8,1.6,1.2c0.4,0.4,1.2,0.4,2,0.4c0.8,0,1.2,0,2-0.4C340.9,403.9,341.7,403.5,342.1,402.7
			 M348.4,397.9c0,3.2-0.8,5.6-2.8,7.1c-1.6,2-4.4,2.8-7.1,2.8c-3.2,0-5.6-0.8-7.1-2.8c-1.6-2-2.8-4.4-2.8-7.1
			c0-3.2,0.8-5.6,2.8-7.1c1.6-2,4.4-2.8,7.1-2.8c3.2,0,5.6,0.8,7.1,2.8C347.6,392.4,348.4,394.8,348.4,397.9 M325,407.5h-4.8
			l-8.3-13.1v13.1h-4.4v-19h6l7.1,11.1v-11.1h4.4L325,407.5L325,407.5z M305.6,407.5L305.6,407.5h-6l-5.2-7.1H292v7.1h-4.8v-19h8.3
			c1.2,0,2,0,2.8,0s1.6,0.4,2.4,0.8c0.8,0.4,1.2,0.8,1.6,1.6c0.4,0.8,0.8,1.6,0.8,2.4c0,1.6-0.4,2.4-1.2,3.6
			c-0.8,0.8-1.6,1.6-2.8,2.4L305.6,407.5z M297.6,394.4c0-0.4,0-0.8-0.4-1.2c0-0.4-0.4-0.8-1.2-0.8c-0.4,0-0.8-0.4-1.2-0.4
			s-0.8,0-1.6,0h-2v5.2h2.4c0.8,0,1.6,0,2,0c0.4,0,0.8-0.4,1.2-0.4c0.4-0.4,0.4-0.4,0.8-0.8C297.6,395.1,297.6,394.8,297.6,394.4
			 M282.6,407.5h-13.9v-19h13.9v3.6h-9.1v3.2h8.3v4h-8.3v4.8h9.1V407.5L282.6,407.5z M265.5,388.4l-7.1,19h-5.6l-6.7-19h5.2
			l4.8,13.5l4.8-13.5H265.5z M238.5,402.7L238.5,402.7c0.4-0.4,0.8-1.2,1.2-2s0.4-1.6,0.4-2.8c0-1.2,0-2-0.4-2.8
			c-0.4-0.8-0.8-1.6-1.2-2c-0.4-0.4-0.8-0.8-1.6-1.2c-0.4-0.4-1.2-0.4-1.6-0.4c-0.8,0-1.2,0-1.6,0.4c-0.4,0.4-1.2,0.4-1.6,1.2
			c-0.4,0.4-0.8,1.2-1.2,2c-0.4,0.8-0.4,2-0.4,2.8c0,1.2,0,2,0.4,2.8s0.8,1.6,1.2,2s0.8,0.8,1.6,1.2c0.4,0.4,1.2,0.4,2,0.4
			s1.2,0,2-0.4C237.3,403.9,238.1,403.5,238.5,402.7 M244.9,397.9c0,3.2-0.8,5.6-2.8,7.1c-1.6,2-4.4,2.8-7.1,2.8
			c-3.2,0-5.6-0.8-7.1-2.8c-1.6-2-2.8-4.4-2.8-7.1c0-3.2,0.8-5.6,2.8-7.1c1.6-2,4.4-2.8,7.1-2.8c3.2,0,5.6,0.8,7.1,2.8
			C244.1,392.4,244.9,394.8,244.9,397.9 M221.4,406.7c-0.8,0.4-2,0.8-3.6,1.2c-1.6,0.4-2.8,0.4-4.4,0.4c-3.2,0-6-0.8-7.5-2.8
			c-2-1.6-2.8-4.4-2.8-7.5c0-3.1,0.8-5.6,2.8-7.1c2-2,4.4-2.8,7.9-2.8c1.2,0,2.4,0,3.6,0.4c1.2,0.4,2.4,0.8,4,1.2v4.4H221
			c-0.4,0-0.4-0.4-1.2-0.8c-0.4-0.4-0.8-0.8-1.2-0.8c-0.4-0.4-1.2-0.4-1.6-0.8c-0.8,0-1.2-0.4-2-0.4s-1.6,0-2.4,0.4
			c-0.8,0.4-1.2,0.8-2,1.2c-0.4,0.4-0.8,1.2-1.2,2s-0.4,1.6-0.4,2.8c0,2,0.4,3.6,1.6,4.8c1.2,1.2,2.8,1.6,5.2,1.6c0,0,0.4,0,0.8,0
			s0.4,0,0.8,0v-3.6h-4v-3.6h8.7v9.9h-0.7V406.7z"/>
	</g>
	<path fill="#FFFFFF" d="M4.4,315.8h417.9v210.3H4.4V315.8z M0.4,530.1h425.8V311.8H0.4V530.1z"/>
	<g>
		<path fill="#2158A8" d="M45.6,419c0-36.9,21.8-66.7,48.8-66.7s48.8,29.8,48.8,66.7s-21.8,66.7-48.8,66.7S45.6,455.9,45.6,419"/>
		<path fill="#128652" d="M135.3,451.5H53.6c-3.2-7.9-5.6-17.1-6-27h93.7C140.9,434.4,138.5,443.2,135.3,451.5"/>
		<path fill="#7A7F80" d="M141.3,424.5H47.6c0-2,0-3.6,0-5.6c0-5.6,0.4-10.7,1.6-15.9l10.7,4c2.8,0,4-4,4-4l9.9-19
			c4.8-10.3,8.3-4,8.3-4s1.6-1.6,3.6-2.8c2.8-1.6,4.8,2,4.8,2s0.4-2.4,4.8-3.2c0.8,0,3.2-15.1,3.2-15.1s0.4-5.6,2.8-7.1
			c1.2,0,2,0.4,3.2,0.8c1.6,1.6,1.6,4.4,1.6,4.4l1.6,29.4h8.7l13.1-15.5c8.3,11.9,13.5,27.8,13.5,45.6
			C141.3,420.9,141.3,422.5,141.3,424.5"/>
		<path fill="#FFFFFF" d="M121.4,405.1L121.4,405.1l-1.2,1.6l-2.8-1.6H121.4z M95.2,421.3l1.2,2.8H96c-1.2,0-2,0-3.2,0h-0.4l1.2-3.2
			c0,0,0-0.8,0.8-1.6l0,0l0,0c1.2-2,3.2-4.8,8.7-6.7c1.2-0.4,3.6-1.6,9.5-3.2c6.3-1.6,11.5-0.8,11.5-0.8s0.4-2.4-0.4-3.2
			c-0.4-0.4-2-0.8-2-0.8s-0.4-1.6-1.6-1.6l-10.3-1.2l0.8-1.2c0,0,9.5,0.8,17.5-4h-5.6c-0.4,0-0.8-0.4-0.8-0.8c0-0.4,0.4-0.8,0.8-0.8
			h7.5c0.8-0.8,2-1.6,2.8-2.4h-12.3c-0.4,0-0.8-0.4-0.8-0.8s0.4-0.8,0.8-0.8H134c0.8-0.8,1.2-2,1.6-2.8l0,0h-26.2
			c-5.2-0.4-9.1,2-11.1,6.3l-4,6.3l-4-6.3c-2.4-4.4-6.3-6.7-11.1-6.3h-26c0.4,1.2,1.2,2,1.6,3.2h13.5c0.4,0,0.8,0.4,0.8,0.8
			c0,0.4-0.4,0.8-0.8,0.8H56c0.8,0.8,1.6,1.6,2.8,2.4h7.9c0.4,0,0.8,0.4,0.8,0.8s-0.4,0.8-0.8,0.8h-5.6c7.5,4.8,16.7,4,16.7,4
			s0.8,3.6,3.2,7.1c2.8,4,6,5.6,6,5.6l0,0l1.2,0.4c0.4,0,0.4,0.8,0.4,1.2c0,0.4-0.8,0.4-1.2,0.4l-1.6-0.8c-1.2,1.6-3.2,3.6-2.8,4.4
			h7.1l1.2,5.2H47.6c0,0.4,0,1.2,0,1.6h37.7c-9.5,3.6-16.7,11.9-17.9,22.6c-1.6,14.7,9.5,28.2,24.2,29.8s28.2-9.5,29.8-24.2
			c1.2-12.7-6.3-24.2-17.9-28.2h37.7c0-0.4,0-1.2,0-1.6H97.6l1.6-5.6h7.1c0-0.8-2-3.2-3.2-4.8C96.4,417,95.2,420.9,95.2,421.3"/>
		<path fill="#2158A8" d="M111.1,449.9L111.1,449.9c-4.4,0-18.3,1.6-27.4,13.9l-0.4,0.4c2.8,2.4,6.7,4,11.1,4
			c9.1,0,16.7-7.5,16.7-16.7C111.1,450.7,111.1,450.3,111.1,449.9 M94.5,434.4l1.2,3.6h3.6l-2.8,2.4l1.2,3.6H98
			c4.8-1.6,8.7-1.6,10.3-1.6C105.2,437.2,100,434.4,94.5,434.4 M77.4,451.1c0-9.1,7.5-16.7,16.7-16.7l-1.2,3.6h-3.6l2.8,2.4
			l-0.8,3.2l3.2-2l3.2,2c-5.6,1.6-13.1,5.6-19,13.1C77.8,455.1,77.4,453.1,77.4,451.1"/>
		<path fill="#7A7F80" d="M113.9,446.3l4-1.6l-0.4-1.2h-2.4l1.6-1.6l-0.4-1.2l-4,1.6l0.4,0.8l2.8-1.2l-1.6,1.6l0.4,0.8h2l-2.8,1.2
			L113.9,446.3z M113.5,457.9c0-0.4,0-0.4,0-0.8c0-0.4,0-0.8,0-0.8c0-0.8,0.4-1.2,1.2-1.6c0.8-0.4,1.2-0.4,1.6-0.4
			c0.8,0,1.2,0.4,1.6,1.2c0.4,0.4,0.4,1.2,0,2c0,0.4,0,0.4-0.4,0.8c0,0.4-0.4,0.4-0.4,0.8l-0.8-0.4l0,0c0,0,0,0,0.4,0s0,0,0.4-0.4
			c0,0,0-0.4,0.4-0.4v-0.4v-0.4v-0.4l-0.4-0.4c0,0-0.4,0-0.4-0.4c-0.4,0-0.8,0-1.2,0s-0.4,0.4-0.8,1.2l0,0l0,0l0.8,0.4l0.4-0.8h0.8
			l-0.4,2L113.5,457.9z M111.5,461.8l0.8,0.4l0.8-2l0.8,0.4l-0.8,2l0.8,0.4l0.8-1.6l0.8,0.4l-0.8,2l0.8,0.4l1.6-2.8l-4-2
			L111.5,461.8z M107.9,466.2L107.9,466.2l0.8-1.2h2l0.4-0.4l-1.2-1.2l0.8-0.8l3.2,2.8l-1.2,1.6l-0.4,0.4l-0.4,0.4h-0.4
			c0,0-0.4,0-0.4-0.4c-0.4-0.4-0.4-0.4-0.4-0.8c0-0.4,0-0.4,0-0.8L107.9,466.2z M111.5,467L111.5,467c0.4,0,0.4,0,0.4,0s0,0,0.4,0
			c0,0,0,0,0.4-0.4l0.4-0.4l-0.8-0.8l-0.4,0.4l-0.4,0.4v0.4C111.1,466.6,111.1,466.6,111.5,467C111.1,466.6,111.5,466.6,111.5,467
			 M104.8,468.6l0.4,0.8l1.6-1.2l0.8,0.8l-1.6,1.2l0.4,0.8l1.6-1.2l0.4,0.8l-1.6,1.2l0.4,0.8l2.4-2l-2-4L104.8,468.6z M100,470.6
			L100,470.6l1.2-0.4l1.6,1.2h0.4l-0.8-1.6l1.2-0.4l1.6,4l-1.6,0.8c-0.4,0-0.4,0-0.8,0.4h-0.4c0,0-0.4,0-0.4-0.4l-0.4-0.4
			c0-0.4,0-0.4,0-0.8c0-0.4,0-0.4,0.4-0.8L100,470.6z M102.4,472.9C102.8,472.9,102.8,473.3,102.4,472.9c0.4,0.4,0.4,0.4,0.4,0.4
			s0,0,0.4,0h0.4h0.4l-0.4-1.2h-0.4h-0.4c0,0,0,0-0.4,0.4C102.4,472.5,102.4,472.5,102.4,472.9L102.4,472.9 M96,471.3l3.2-0.4
			l0.8,4.4l-3.2,0.4v-0.8l2-0.4v-0.8l-2,0.4v-0.8l2-0.4v-1.2l-2,0.4L96,471.3z M84.1,468.6l0.4,2.4c-0.4,0-0.4,0-0.8,0.4
			c-0.4,0-0.4,0.4-0.4,0.8c0,0.4,0,0.4,0,0.4v0.4l0.4,0.4l0.4,0.4l1.6,0.8l1.6-4l-1.2-0.4l-0.8,1.6l-0.4-0.4l-0.4-2L84.1,468.6z
			 M84.5,472.1L84.5,472.1c0,0.4,0,0.4,0,0.4s0,0,0.4,0c0,0,0,0,0.4,0h0.4l0.4-1.2h-0.4h-0.4h-0.4C84.9,471.3,84.5,471.7,84.5,472.1
			C84.5,471.7,84.5,471.7,84.5,472.1 M81,466.2l2.4,2l-2.8,3.6l-2.4-2l0.4-0.8l1.6,1.2l0.4-0.4l-1.2-1.6l0.4-0.8l1.6,1.2l0.8-0.8
			l-1.6-1.2L81,466.2z M79,463.4C78.6,463.4,78.6,463.4,79,463.4c-0.4-0.4-0.4-0.4-0.8-0.8c0,0,0,0-0.4,0c0,0,0,0-0.4,0l-0.8,0.8
			l0,0c0,0,0,0,0.4,0h0.4h0.4c0,0,0.4,0,0.4,0.4c0,0,0,0.4,0.4,0.4v0.4v0.4l-0.4,0.4c-0.4,0-0.4,0.4-0.4,0.4h-0.4H77
			c0,0-0.4,0-0.4-0.4c0,0,0-0.4-0.4-0.4v-0.4v-0.4c0,0,0,0,0-0.4l0,0l-0.8,0.8c0,0,0,0,0,0.4v0.4v0.4c0,0,0,0.4,0.4,0.4
			c0.4,0.4,0.4,0.4,0.8,0.8c0.4,0,0.4,0.4,0.8,0.4s0.4,0,0.8,0s0.4-0.4,0.8-0.4c0.4-0.4,0.4-0.4,0.8-0.8c0-0.4,0.4-0.4,0.4-0.8
			c0-0.4,0-0.4,0-0.8C79.4,464.2,79,463.8,79,463.4 M72.6,459.8l0.8,1.2l3.2-1.6l0.4,1.2l-3.2,1.6l0.8,1.2l-0.8,0.4l-1.6-3.6
			L72.6,459.8z M74.6,454.3l0.8,3.2l-4.4,0.8l-0.8-3.2H71l0.4,2h0.8l-0.4-2h0.8l0.4,2l1.2-0.4l-0.4-2L74.6,454.3z M76.6,442.4
			L76.6,442.4l-0.4,1.2l-2,0.4v0.4l1.6,0.4l-0.4,1.2l-4-1.6l0.8-1.6c0-0.4,0-0.4,0.4-0.8l0.4-0.4l0.4-0.4c0,0,0.4,0,0.8,0
			s0.4,0.4,0.8,0.4c0,0.4,0.4,0.4,0.4,0.8H76.6z M73,442.8L73,442.8c-0.4,0-0.4,0-0.4,0s0,0,0,0.4v0.4v0.4l1.2,0.4V444v-0.4
			C73.8,443.6,73.8,443.2,73,442.8C73.4,443.2,73.4,443.2,73,442.8C73.4,442.8,73.4,442.8,73,442.8 M79,438.8l-1.6,2.8l-3.6-2.4
			l1.6-2.8l0.8,0.4l-1.6,2l0.8,0.4l1.2-1.6l0.8,0.4l-1.2,1.6L77,440l1.2-1.6L79,438.8z M83.3,434.8l-2.8-3.2l-1.2,0.8l0.8,2.4
			l-2-1.2l-1.2,1.2l2.8,3.2l0.8-0.8l-2-2.4l2,0.8l0.4-0.4l-0.8-2l2,2.4L83.3,434.8z M84.9,430.5L84.9,430.5L84.9,430.5
			c-0.4-0.4-0.4-0.4-0.4-0.4h-0.4h-0.4l0,0l0.4,1.2h0.4c0,0,0.4,0,0.4-0.4c0,0,0,0,0.4-0.4C85.3,430.9,85.3,430.9,84.9,430.5
			C85.3,430.9,85.3,430.5,84.9,430.5 M86.1,430.1v0.4v0.4c0,0.4,0,0.4-0.4,0.8c0,0-0.4,0.4-0.8,0.4l-0.8,0.4l0.8,1.2l-1.2,0.4l-2-4
			l1.6-0.8c0.4,0,0.4-0.4,0.8-0.4h0.4c0.4,0,0.4,0,0.4,0.4C85.7,429.7,86.1,429.7,86.1,430.1 M92.1,430.1c0,0.4,0,0.8-0.4,1.2
			c-0.4,0.4-0.8,0.4-1.2,0.8c-0.8,0-1.2,0-1.6,0c-0.4-0.4-0.8-0.4-0.8-1.2l-0.4-2.8l1.2-0.4l0.4,2.8c0,0.4,0,0.4,0.4,0.8
			c0,0,0.4,0,0.8,0s0.4,0,0.4-0.4c0,0,0-0.4,0-0.8l-0.4-2.8l1.2-0.4L92.1,430.1z M96.4,430.1L96.4,430.1
			C96.4,430.1,96,430.1,96.4,430.1c0-0.4-0.4-0.4-0.4-0.4h-0.4h-0.4h-0.4v1.2l0,0c0.4,0,0.4,0,0.8,0H96
			C96,430.5,96,430.5,96.4,430.1C96,430.5,96.4,430.5,96.4,430.1 M96,428.5L96,428.5L96,428.5C96,428.1,96,428.1,96,428.5
			c-0.4-0.4-0.4-0.4-0.4-0.4h-0.4l0,0v0.8l0,0h0.4H96C96,428.9,96,428.9,96,428.5L96,428.5 M97.2,430.5c0,0.4,0,0.4,0,0.4l-0.4,0.4
			l-0.4,0.4c-0.4,0-0.4,0-0.8,0h-2v-4.4h1.6c0.4,0,0.8,0,0.8,0h0.4l0.4,0.4v0.4c0,0.4,0,0.4,0,0.4l-0.4,0.4l0,0c0.4,0,0.4,0,0.8,0.4
			C97.2,429.7,97.2,430.1,97.2,430.5 M101.6,432.9l-3.2-0.8l1.2-4.4l1.2,0.4l-0.8,3.6l2,0.4L101.6,432.9z M104.8,434.4l-2.4-1.2
			l0.4-0.8l0.8,0.4l1.2-2.4L104,430l0.4-0.8l2.4,1.2l-0.4,0.8l-0.8-0.4l-1.2,2.4l0.8,0.4L104.8,434.4z M107.1,436l0.4,0.4h0.4h0.4
			h0.4l0.8-0.8l0,0c0,0,0,0-0.4,0h-0.4h-0.4h-0.4c0,0-0.4,0-0.4-0.4v-0.4v-0.4c0,0,0-0.4,0.4-0.8c0-0.4,0.4-0.4,0.4-0.4h0.4h0.4
			c0,0,0.4,0,0.4,0.4c0,0,0.4,0,0.4,0.4v0.4v0.4c0,0,0,0,0,0.4l0,0l0.8-0.8c0,0,0,0,0-0.4c0,0,0-0.4-0.4-0.4c0,0,0-0.4-0.4-0.4
			l-0.4-0.4c-0.4-0.4-0.4-0.4-0.8-0.4s-0.4,0-0.8,0c-0.4,0-0.4,0-0.8,0.4c-0.4,0-0.4,0.4-0.8,0.8c-0.4,0.4-0.4,0.4-0.4,0.8
			c0,0.4,0,0.4,0,0.8c0,0.4,0,0.4,0.4,0.8C106.8,435.6,106.8,436,107.1,436 M111.9,438.8L111.9,438.8l0.8-1.2h-1.6L111.9,438.8z
			 M111.5,441.2l-0.8-0.8l0.4-0.8l-1.2-1.2l-0.8,0.4l-0.8-0.8l4.4-1.6l0.8,1.2L111.5,441.2z M110.3,447.5h-2.4v-0.4l0.4-0.4l0.4-0.4
			l0.4-0.4v-0.4v-0.4h-0.4h-0.4c0,0-0.4,0-0.4,0.4l0,0v-0.8h0.4h0.4c0.4,0,0.8,0,0.8,0s0.4,0.4,0.4,0.8c0,0.4,0,0.4,0,0.8
			c0,0.4-0.4,0.4-0.4,0.8l-0.4,0.4c0,0-0.4,0-0.4,0.4h1.6V447.5z M106,445.9L106,445.9v-0.4c0,0,0,0,0-0.4l0,0l0,0l0,0l0,0
			c0,0,0,0,0,0.4C106,445.5,106,445.5,106,445.9c0,0,0,0,0,0.4l0,0l0,0C105.6,446.3,105.6,446.3,106,445.9
			C105.6,446.3,105.6,446.3,106,445.9C106,446.3,106,445.9,106,445.9L106,445.9L106,445.9 M106.8,445.9c0,0.4,0,0.4,0,0.8
			c0,0.4,0,0.4-0.4,0.8c0,0.4-0.4,0.4-0.4,0.4c-0.4,0-0.4,0.4-0.8,0.4h-0.4h-0.4v-0.8l0,0l0,0c0,0,0,0,0.4,0h0.4c0,0,0,0,0.4,0
			c0,0,0,0,0-0.4v-0.4c0,0-0.4,0-0.4,0.4h-0.4h-0.4H104c0,0-0.4,0-0.4-0.4v-0.4c0-0.4,0-0.8,0.4-0.8c0-0.4,0.4-0.4,0.8-0.4h0.4h0.4
			l0.4,0.4C106.8,445.5,106.8,445.5,106.8,445.9 M103.2,447.5L103.2,447.5L103.2,447.5c0-0.4-0.4-0.4-0.4-0.4s0,0-0.4,0
			c0,0,0,0-0.4,0c0,0,0,0,0,0.4c0,0,0,0,0,0.4c0,0,0,0.4,0.4,0.4h0.4l0,0C102.8,447.9,102.8,447.9,103.2,447.5
			C103.2,447.9,103.2,447.9,103.2,447.5L103.2,447.5 M102.8,445.9L102.8,445.9L102.8,445.9c-0.4-0.4-0.4-0.4-0.4-0.4l0,0l0,0l0,0
			l0,0l0,0c0,0,0,0,0.4,0l0,0c0,0,0,0,0.4,0C102.8,446.3,102.8,446.3,102.8,445.9C102.8,446.3,102.8,445.9,102.8,445.9 M104,447.5
			c0,0.4,0,0.4,0,0.8c0,0.4-0.4,0.4-0.8,0.4c-0.4,0-0.4,0-0.8,0H102c0,0-0.4,0-0.4-0.4v-0.4v-0.4c0,0,0-0.4,0.4-0.4l0,0
			c0,0-0.4,0-0.4-0.4c0,0,0-0.4-0.4-0.4c0-0.4,0-0.4,0-0.8c0-0.4,0.4-0.4,0.8-0.4s0.8,0,0.8,0c0.4,0,0.4,0.4,0.4,0.4v0.4
			c0,0,0,0.4-0.4,0.4l0,0c0.4,0,0.4,0,0.4,0.4C103.6,447.1,104,447.1,104,447.5 M100.8,449.1l-2,0.8v-0.4h0.8l-0.4-1.6l-0.8,0.4
			v-0.4c0,0,0,0,0.4,0c0,0,0,0,0.4,0l0,0c0,0,0,0,0-0.4l0.8-0.4l0.8,2.8h0.8L100.8,449.1z M97.2,450.3l-2,0.8l-1.2-3.2l0.8-0.4
			l1.2,2.4l1.2-0.8V450.3z M94.5,451.5l-0.4-0.4l-0.4,0.4l-1.2-2l0.4-0.4l-0.4-0.4l-1.2,0.8l0.4,0.4l0.4-0.4l1.2,2l-0.4,0.4l0.4,0.4
			L94.5,451.5z M92.5,452.7L92.5,452.7l-0.8,0.4l-1.6-0.4l-0.4,0.4l0.8,1.2l-0.8,0.4l-2-2.8l1.2-0.8c0,0,0.4,0,0.4-0.4h0.4h0.4
			c0,0,0.4,0,0.4,0.4c0,0.4,0,0.4,0,0.8v0.4L92.5,452.7z M90.1,451.1C90.5,451.5,90.5,451.5,90.1,451.1c0,0.4,0,0.4,0,0.4l0,0
			c0,0,0,0-0.4,0h-0.4l-0.4-0.8h0.4c0,0,0,0,0.4,0C89.7,451.1,89.7,451.1,90.1,451.1L90.1,451.1L90.1,451.1 M88.5,454.3L88.5,454.3
			c0,0.4,0,0.4,0,0.4s0,0,0,0.4c0,0-0.4,0-0.4,0.4l0,0l-0.8-1.2l0,0c0,0,0,0,0.4-0.4c0,0,0,0,0.4,0
			C88.1,453.9,88.1,453.9,88.5,454.3C88.1,453.9,88.1,453.9,88.5,454.3 M87.3,453.1L87.3,453.1C87.3,453.5,87.3,453.5,87.3,453.1
			c0,0.4,0,0.4,0,0.4s0,0-0.4,0.4l0,0l-0.4-0.4l0,0c0,0,0.4,0,0.4-0.4C86.9,453.1,86.9,453.1,87.3,453.1L87.3,453.1L87.3,453.1
			 M88.9,453.5l-0.4-0.4h-0.4l0,0v-0.4v-0.4c0,0,0,0-0.4-0.4h-0.4h-0.4c0,0-0.4,0-0.4,0.4l-0.8,0.8l2,2.8l1.2-0.8l0.4-0.4
			c0,0,0-0.4,0.4-0.4v-0.4C89.3,453.9,89.3,453.9,88.9,453.5 M85.3,456.3L85.3,456.3l-1.2-0.8l0.4,1.2L85.3,456.3z M87.3,456.3
			l-0.8,0.4l-0.8-0.4l-0.8,0.8l0.4,0.8l-0.8,0.8l-1.2-3.6l0.8-0.8L87.3,456.3z M81.8,459L81.8,459C81.4,459,81.4,458.6,81.8,459
			c-0.8-0.4-0.8-0.4-0.8-0.4l0,0l0,0l0,0l0,0c0,0,0,0,0,0.4c0,0,0,0,0,0.4c0,0,0,0,0.4,0c0,0,0,0,0.4,0l0,0l0,0
			C81.8,459.4,81.8,459.4,81.8,459L81.8,459L81.8,459L81.8,459 M82.1,458.2c0.4,0,0.4,0.4,0.4,0.8c0,0.4,0.4,0.4,0.4,0.8
			c0,0.4,0,0.4,0,0.8c0,0.4-0.4,0.4-0.4,0.8c0,0,0,0-0.4,0.4l0,0l-0.4-0.4l0,0l0,0c0,0,0,0,0.4-0.4c0,0,0,0,0-0.4v-0.4v-0.4
			c0,0,0-0.4-0.4-0.4v0.4c0,0,0,0.4-0.4,0.4c0,0,0,0-0.4,0.4c0,0,0,0-0.4,0h-0.4c0,0-0.4,0-0.4-0.4c-0.4-0.4-0.4-0.4-0.4-0.8
			s0-0.8,0.4-0.8l0.4-0.4h0.4H81C81.8,458.2,82.1,458.2,82.1,458.2"/>
		<path fill="#128652" d="M131,483.6c0.8-0.8,1.6-0.8,2.4-0.4c-1.6-1.2-2.8-3.2-2.8-5.6c-0.4-2.8,0.4-5.2,2-6.7c2,1.2,3.2,3.6,3.6,6
			c0-0.4,0.4-0.4,0.4-0.8c1.2-1.6,3.2-2.8,4.8-3.2c-0.4-0.8-0.4-1.6,0-2c0.4-0.8,0.8-0.8,1.6-1.2c0-0.4,0-0.4,0-0.8
			c-0.8,0.4-1.2,0.4-2,0c-1.2-0.4-1.2-2-0.8-2.8c0.4-1.2,2-1.2,2.8-0.8c0.8,0.4,0.8,0.8,1.2,1.6c0.4,0,0.4,0,0.8,0
			c-0.4-0.4-0.4-1.2,0-2c0.4-0.8,1.2-1.2,2-1.2c-2-0.8-3.2-2.4-4.4-4.4c-1.2-2.4-1.2-5.2,0-7.1c2,0.8,4,2.4,5.2,4.8
			c0-0.4,0-0.8,0.4-0.8c0.8-2,2.4-3.6,4-4.8c-0.8-0.8-1.2-1.6-1.2-2.4s0.8-1.2,1.2-1.6c0,0-0.4-0.4-0.4-0.8c-0.4,0.4-1.2,0.8-2,0.4
			c-1.2-0.4-2-1.6-1.6-2.4c0.4-1.2,1.6-2,2.4-1.6c0.8,0,1.2,0.8,1.6,1.2l0.4-0.4c-0.4-0.4-0.4-1.2-0.4-2c0.4-0.8,1.2-1.6,2-1.6
			c-2-0.4-4-1.6-5.6-3.6c-1.6-2-2-4.8-2-6.7c2.4,0.4,4.4,1.6,6,3.6c0-0.4,0-0.8,0-0.8c0.4-2,1.2-4,2.8-5.6c-0.8-0.4-1.2-1.2-1.2-2
			s0.4-1.2,0.8-1.6l-0.4-0.4c-0.4,0.4-1.2,0.8-1.6,0.8c-1.2,0-2-0.8-2-2c0-1.2,0.8-2,2-2c0.8,0,1.2,0.4,1.6,0.8l0.4-0.4
			c-0.4-0.4-0.8-1.2-0.8-1.6c0-0.8,0.8-1.6,1.6-2c-2,0-4-0.8-6-2c-2-1.6-3.2-4-3.2-6.3c2.4-0.4,4.8,0.4,6.7,2c0-0.4,0-0.8,0-0.8
			c0-2,0.4-4,1.2-5.6c-0.8-0.4-1.2-0.8-1.6-1.6c0-0.8,0-1.2,0.4-2c-0.4,0-0.4-0.4-0.4-0.4c-0.4,0.8-0.8,1.2-1.6,1.2
			c-1.2,0.4-2.4-0.4-2.4-1.6c0-1.2,0.4-2.4,1.6-2.4c0.8,0,1.2,0,2,0.4c0-0.4,0.4-0.4,0.4-0.4c-0.4-0.4-1.2-0.8-1.2-1.6s0-1.6,0.8-2
			c-2,0.4-4,0-6-0.8c-2.4-1.2-4-3.2-4.8-5.6c2-0.8,4.8-0.8,7.1,0.4c0-0.4-0.4-0.8-0.4-0.8c-0.8-2-0.8-4.4,0-6.3
			c-0.8,0-1.6-0.4-2-1.2c-0.4-0.8-0.4-1.2,0-2c-0.4,0-0.4,0-0.8-0.4c0,0.8-0.4,1.2-1.2,1.6c-1.2,0.4-2.4,0-2.8-1.2
			c-0.4-1.2,0-2.4,1.2-2.8c0.8-0.4,1.2-0.4,2,0c0-0.4,0-0.4,0.4-0.8c-0.8,0-1.2-0.4-1.6-1.2c-0.4-0.8,0-1.6,0.4-2.4
			c-1.6,0.8-4,1.2-6,0.8c-2.8-0.4-4.8-2-6-4c2-1.2,4.4-2,6.7-1.6c-0.4-0.4-0.4-0.4-0.8-0.8c-1.2-2-1.6-4-1.6-6
			c-0.8,0.4-1.6,0-2.4-0.4c-0.4-0.4-0.8-1.2-0.4-2c-0.4,0-0.4,0-0.8,0c0,0.8,0,1.2-0.8,2s-2.4,0.8-2.8,0c-0.8-0.8-0.8-2.4,0-2.8
			c0.4-0.4,1.2-0.8,2-0.4c0-0.4,0-0.4,0-0.8c-0.8,0-1.2,0-1.6-0.8c-0.4-0.4-0.8-1.2-0.4-2c-1.2,1.6-3.2,2.4-5.6,2.8
			c-2.8,0.4-5.2-0.4-6.7-2c1.2-2,3.6-3.2,6-3.6c-0.4,0-0.4-0.4-0.8-0.4c-2-1.6-3.2-4-3.6-6.3c2.4-0.4,4.8,0.4,6.7,2
			c0.4,0.4,0.4,0.4,0.8,0.8c-0.4-2.4,0.4-5.2,2-6.7c2.8,1.2,4.4,3.6,4.4,6c0.4,2.4-0.4,4.4-1.2,6.3c0.8-0.4,2,0,2.4,0.4
			c0.4,0.4,0.8,1.2,0.4,2c0.4,0,0.4,0,0.8,0c0-0.8,0-1.2,0.8-1.6c0.8-0.8,2.4-0.8,2.8,0c0.8,0.8,0.8,2.4,0,2.8
			c-0.4,0.4-1.2,0.8-2,0.4c0,0.4,0,0.4,0,0.8c0.8,0,1.2,0,2,0.8c0.8,0.8,0.8,1.6,0.4,2.4c2,0.4,4,2,5.2,3.6c0,0.4,0.4,0.4,0.4,0.8
			c0.4-2.4,2-4.8,4-6c1.2,2,2,4.4,1.6,7.1c-0.4,2.4-2,4.8-3.6,6c0.8-0.4,2,0,2.4,1.2c0.4,0.8,0.4,1.2,0,2c0.4,0,0.4,0,0.8,0.4
			c0-0.8,0.4-1.2,1.2-1.6c1.2-0.4,2.4,0,2.8,1.2c0.4,1.2,0,2.4-1.2,2.8c-0.8,0.4-1.2,0.4-2,0c0,0.4,0,0.4-0.4,0.8
			c0.8,0,1.2,0.4,1.6,1.2c0.4,0.8,0,2-0.4,2.4c1.6,1.2,3.2,2.8,4,5.2c0,0.4,0,0.8,0.4,0.8c1.2-2.4,3.2-4,5.6-4.4
			c0.8,2.4,0.8,4.8-0.4,7.1c-1.2,2-2.8,3.6-4.8,4.4c0.8,0,1.6,0.8,2,1.6c0,0.8,0,1.2-0.4,2l0.4,0.4c0.4-0.4,0.8-1.2,1.6-1.2
			c1.2-0.4,2.4,0.4,2.4,1.6c0.4,1.2-0.4,2.4-1.6,2.4c-0.8,0-1.2,0-2-0.4c0,0.4-0.4,0.4-0.4,0.4c0.8,0.4,1.2,0.8,1.2,1.6
			c0,0.8-0.4,1.6-0.8,2c1.2,1.6,2.4,3.2,2.4,5.6c0,0.4,0,0.8,0,1.2c1.6-2,4-3.2,6.3-3.2c0.4,2.4-0.4,4.8-2,6.7c-1.6,2-3.6,3.2-6,3.2
			c0.8,0.4,1.6,1.2,1.6,2c0,0.8-0.4,1.2-0.8,1.6l0.4,0.4c0.4-0.4,1.2-0.8,1.6-0.8c1.2,0,2,0.8,2,2s-0.8,2-2,2
			c-0.8,0-1.2-0.4-1.6-0.8l-0.4,0.4c0.4,0.4,0.8,1.2,0.8,1.6c0,0.8-0.8,1.6-1.6,2c1.2,1.6,1.6,4,1.2,6c0,0.4,0,0.8,0,0.8
			c2-1.6,4.4-2,6.7-1.6c-0.4,2.4-1.6,4.8-3.6,6.3c-2,1.5-4.4,2-6.7,2c0.8,0.4,1.6,1.6,1.2,2.4c0,0.8-0.8,1.2-1.2,1.6l0.4,0.4
			c0.4-0.4,1.2-0.4,2-0.4c1.2,0.4,2,1.6,1.6,2.4c-0.4,1.2-1.6,2-2.4,1.6c-0.8,0-1.2-0.8-1.6-1.2l-0.4,0.4c0.4,0.4,0.8,1.2,0.4,2
			c-0.4,0.8-1.2,1.6-2,1.6c0.8,2,0.8,4-0.4,6.3c0,0.4-0.4,0.8-0.4,0.8c2.4-1.2,4.8-0.8,7.1,0c-0.8,2.4-2.4,4-4.8,5.2
			c-2.4,0.8-4.8,1.2-6.7,0.4c0.8,0.8,0.8,1.6,0.4,2.8c-0.4,0.8-0.8,0.8-1.6,1.2c0,0,0,0.4,0,0.8c0.4-0.4,1.2-0.4,2,0
			c1.2,0.4,1.2,2,0.8,2.8c-0.4,1.2-2,1.2-2.8,0.8c-0.8-0.4-0.8-0.8-1.2-1.6c-0.4,0-0.4,0-0.8,0c0.4,0.8,0.4,1.2,0,2
			s-1.2,1.2-2.4,1.2c0,2-0.8,4-2,5.6c-0.4,0.4-0.4,0.4-0.8,0.8c2.4-0.4,5.2,0.4,6.7,2c-1.2,2-3.6,3.2-6.3,3.6
			c-2.4,0.4-4.8-0.4-6.7-1.6c0.8,0.8,0.4,2-0.4,2.8c-0.4,0.4-1.2,0.8-2,0.4c0,0.4,0,0.4,0,0.8c0.8,0,1.2,0,1.6,0.8
			c0.8,0.8,0.8,2.4,0,2.8c-0.8,0.8-2.4,0.8-2.8,0c-0.4-0.4-0.8-1.2-0.4-2c-0.4,0-0.4,0-0.8,0c0,0.8,0,1.2-0.8,2
			c-0.8,0.8-2.4,0.8-2.8,0c-0.8-0.8-0.8-2.4,0-2.8c0.4-0.4,1.2-0.8,2-0.4c0-0.4,0-0.4,0-0.8c-0.8,0-1.2,0-2-0.8
			c-0.8-0.8-0.8-2.4,0-2.8c0.8-0.8,2.4-0.8,2.8,0c0.4,0.4,0.8,1.2,0.4,2c0.4,0,0.4,0,0.8,0C130.2,484.8,130.6,484,131,483.6
			 M50.4,355.1c-4.4,4.8-7.9,10.3-11.1,16.7l3.6-12.3c0,0,0-0.4-0.4-0.4l-3.2-1.6h-0.4L30.2,373v0.4h0.4c0,0,6-7.1,7.1-8.7
			l-0.8,11.1c0,1.2-0.8,2.4-1.2,3.6c-2.8,6.3-4.8,13.5-6,20.6l-0.4-13.5c0,0,0-0.4-0.4-0.4l-3.6-0.4c0,0-0.4,0-0.4,0.4l-4,17.1
			c0,0,0,0.4,0.4,0.4h0.4c0,0,4-8.7,4.8-10.3l2.4,11.1c-0.8,5.2-1.2,9.9-1.2,15.1c0,2.8,0,5.6,0.4,8.3L24.6,415l-0.4-0.4l-3.6,0.4
			c0,0-0.4,0-0.4,0.4l0.4,17.5c0,0,0,0.4,0.4,0.4c0,0,0.4,0,0.4-0.4c0,0,1.6-9.1,2-11.1l5.2,10.3c0.8,7.9,2.8,15.9,5.6,23.4
			l-6.7-11.1c0,0-0.4-0.4-0.4,0l-3.2,0.4l-0.4,0.4l5.2,16.7l0.4,0.4c0,0,0.4,0,0.4-0.4l0,0c0,0-0.8-9.5-1.2-11.1l7.5,8.3
			c3.2,7.5,6.7,14.3,11.5,20.2l-9.5-8.3h-0.4l-2.8,2.4v0.4L44.8,488h0.4c0,0,0,0,0-0.4l0,0c0,0-4-8.7-4.8-10.3l9.5,5.6
			c1.2,1.6,2.8,2.8,4,4.4c0.8,0.8,2,0.8,2.8,0c0.8-0.8,0.8-2,0-2.8c-1.6-1.6-2.8-3.2-4.4-4.8l-0.8-8.7c1.2,1.6,7.1,8.3,7.1,8.3H59
			v-0.4l-8.7-15.1c0,0-0.4-0.4-0.4,0l-3.2,1.2l-0.4,0.4l3.6,11.9c-4.8-6-8.7-13.1-11.5-21l2-9.5c0.8,1.6,5.2,10.3,5.2,10.3
			s0.4,0.4,0.4,0l0.4-0.4L42,439.6l-0.4-0.4l-3.6,0.4c0,0-0.4,0-0.4,0.4v13.1c-2.8-7.5-4.4-15.1-5.2-23.4l4.4-8.7
			c0.4,2,2.4,11.1,2.4,11.1l0.4,0.4c0,0,0.4,0,0.4-0.4V415c0,0,0-0.4-0.4-0.4l-3.6-0.4c0,0-0.4,0-0.4,0.4l-3.2,12.7
			c0-2.8-0.4-5.6-0.4-8.3c0-5.2,0.4-10.3,1.2-15.5l6-7.5c0,2-0.4,11.5-0.4,11.5l0,0c0,0,0,0.4,0.4,0.4c0,0,0.4,0,0.4-0.4l4.4-17.1
			c0,0,0-0.4-0.4-0.4l-3.2-1.2H40l-6,11.5c1.6-8.3,4-16.7,7.5-23.8l7.9-5.2c-0.8,1.6-4,10.7-4,10.7l0,0c0,0,0,0.4,0.4,0.4h0.4
			l9.1-15.1V367l-2.8-2.4h-0.4l-9.5,9.1c3.2-6,6.7-11.5,10.7-16.3l13.5-11.5c0,0,0,0,0-0.4c0,0,0,0-0.4,0c0,0-4,2.4-7.1,4l8.7-11.1
			c0,0,0,0,0-0.4c0,0,0,0-0.4,0l-10.3,9.9c1.6-3.2,3.2-7.1,3.2-7.1s0,0,0-0.4c0,0,0,0-0.4,0L50.4,355.1L50.4,355.1z"/>
		<path fill="#A08729" d="M94.5,484L94.5,484c-25.8,0-47.2-29-47.2-65.1s21-65.1,47.2-65.1c25.8,0,47.2,29,47.2,65.1
			S120.2,484,94.5,484 M94.5,350.7c-27.8,0-50.8,30.6-50.8,68.3s22.6,68.7,50.4,68.7s50.4-30.6,50.4-68.7S122.2,350.7,94.5,350.7
			 M102.4,349.1l-7.9-5.6l-7.9,5.6l2.8-9.1l-7.5-5.6h9.5l3.2-9.1l3.2,9.1h9.5l-7.9,5.6L102.4,349.1z M144.5,490.4
			c-5.6,3.6-11.9,5.2-18.7,5.2s-13.5-2-18.7-5.2l-4,6.7l-11.9-7.5c0,0-2.4,3.6-4.4,6.7c-7.1-4-15.1-6-23.8-6
			c-9.5,0-18.3,2.8-25.8,7.1c0,0,5.2,8.7,7.1,11.1c5.6-3.6,11.9-5.2,18.7-5.2s13.5,2,18.7,5.2l4.4-6.7l11.9,7.5
			c0.8-1.2,2.8-4,4.4-6.7c7.1,4,15.1,6,23.8,6c9.5,0,18.3-2.8,25.8-7.1C151.6,501.5,145.6,492.4,144.5,490.4"/>
		<path fill="#FFFFFF" d="M78.6,502.7c-1.6-0.8-1.2-2-0.8-3.2s1.2-2.4,2.8-2c1.6,0.8,1.2,2,0.8,3.2
			C80.6,502.3,80.2,503.5,78.6,502.7 M78.6,501.9c-0.4-0.4-0.4-0.8,0-2c0.4-1.2,0.8-1.6,1.2-1.6c0.4,0.4,0.4,0.8,0,2
			C79.8,501.9,79.4,502.3,78.6,501.9 M72.2,500.7L72.2,500.7l1.6,0.4c2,0.4,2.4-1.2,2.4-2c0.4-1.6,0.4-2.8-0.8-3.2l-1.6-0.4
			L72.2,500.7z M74.6,496.7H75c0.8,0.4,0.4,1.2,0.4,2c-0.4,1.2-0.8,1.6-1.2,1.6h-0.4L74.6,496.7z M67.5,499.9L67.5,499.9
			c2,0.4,2-1.2,2.4-2.4c0-1.2,0.4-2.8-1.6-2.8c-2-0.4-2,1.2-2.4,2.4C65.9,498.3,65.5,499.5,67.5,499.9 M67.5,499.1
			c-0.8,0-0.8-0.8-0.4-2c0-1.2,0.4-2,0.8-2c0.8,0,0.8,0.8,0.4,2C68.3,498.7,68.3,499.1,67.5,499.1 M61.1,499.5L61.1,499.5h2
			c2,0,2-2,2-2.8c0-1.6-0.4-2.8-1.6-2.8h-2L61.1,499.5z M62.3,495.2h0.4c0.8,0,0.8,0.8,0.8,2s0,2-0.8,2h-0.4V495.2z M58.7,497.9
			L58.7,497.9h-1.2l0.4-2.4l0,0L58.7,497.9z M57.1,499.9v-1.2h1.6l0.4,1.2h1.2l-2-5.6h-1.6l-0.8,5.6H57.1z M51.6,495.6v0.8l1.2-0.4
			l0.8,4.4l1.2-0.4l-0.8-4.4l1.2-0.4v-0.8L51.6,495.6z M52,499.5c0.4,1.2-0.4,1.6-1.2,2c-1.2,0.4-2-0.4-2-1.2l1.2-0.4
			c0,0.4,0.4,0.8,0.8,0.8c0.4,0,0.4-0.4,0.4-0.8c-0.4-0.8-2.4-0.4-2.8-1.6c-0.4-0.8,0-1.6,1.2-2c1.2-0.4,1.6,0,2,1.2l-1.2,0.4
			c0-0.4-0.4-0.8-0.8-0.4c-0.4,0-0.4,0.4-0.4,0.8S51.2,497.9,52,499.5 M48.4,502.3l-0.4-0.8l-1.6,0.8l-0.8-1.6l1.6-0.8l-0.4-0.8
			l-1.6,0.8l-0.4-1.2l1.6-0.8l-0.4-0.8l-2.8,1.2l2.4,4.8L48.4,502.3z M95.6,503.9c-1.6-0.8-0.8-2,0-3.2c0.8-1.2,1.6-2.4,3.2-1.2
			c1.6,0.8,0.8,2,0,3.2C98,503.5,97.2,504.7,95.6,503.9 M96,503.1c-0.4-0.4-0.4-0.8,0.4-2c0.8-1.2,1.2-1.6,1.6-1.2
			c0.4,0.4,0.4,0.8-0.4,2C96.8,503.1,96.8,503.5,96,503.1 M93.3,501.9l2.8-4.4l-0.8-0.4l-2.8,4.4L93.3,501.9z M90.5,497.5
			L90.5,497.5L90.5,497.5c0.8,0.8,0.8,1.2,0.4,1.6c0,0.4-0.4,0.4-0.4,0.8l0.8,0.4c0-0.4,0.4-1.2,0.8-1.2c0.4-0.8,0-1.2-0.4-1.6l0,0
			c0.8,0.4,1.2,0,1.6-0.4c0.4-0.8,0.4-1.6-0.4-2l-1.6-0.8l-2.8,4.4l0.8,0.4L90.5,497.5z M91.7,495.6l0.4,0.4c0.4,0,0.4,0.4,0,0.8
			c0,0.4-0.4,0.4-0.8,0.4l-0.4-0.4L91.7,495.6z M143.7,501.1c-1.6,0.8-2.4-0.4-2.8-2c-0.4-1.2-1.2-2.4,0.8-3.2c2-0.8,2.4,0.4,2.8,2
			C144.9,499.1,145.2,500.3,143.7,501.1 M143.3,500.3c-0.4,0.4-0.8-0.4-1.6-1.6c-0.4-1.2-0.8-2,0-2c0.4-0.4,0.8,0.4,1.6,1.6
			C143.7,499.5,144.1,500.3,143.3,500.3 M138.1,500.7L138.1,500.7L138.1,500.7c1.2-0.4,1.2,0.4,1.2,0.8c0,0.4,0,0.8,0.4,0.8l1.2-0.4
			c0,0-0.4-1.2-0.4-1.6c-0.4-0.8-0.8-0.8-1.2-0.8l0,0c0.8-0.4,0.8-0.8,0.4-1.6c-0.4-0.8-0.8-1.2-1.6-0.8l-2,0.4l1.6,5.2l1.2-0.4
			L138.1,500.7z M137.3,498.7h0.4c0.4,0,0.4,0,0.8,0.4c0,0.4,0,0.8-0.4,0.8h-0.4L137.3,498.7z M136.1,503.5l-1.2,0.4l-1.2-5.2
			l1.2-0.4L136.1,503.5z M134.1,503.9v-0.8l-2,0.4l-0.4-1.6l1.6-0.4v-0.8l-1.6,0.4l-0.4-1.2l1.6-0.4v-0.8l-2.8,0.4l0.8,5.2
			L134.1,503.9z M126.6,504.7v-4l0,0l1.6,4h1.6l-0.4-5.2h-1.2v3.6l0,0l-1.2-3.6h-1.6l0.4,5.2H126.6z M123,502.7l-0.4-2.4l0,0
			l-0.8,2.4H123z M121.4,504.7h-1.2l2-5.2h1.6l1.2,5.6h-1.2l-0.8-1.6h-1.6V504.7z M119.1,498.7l-0.8,4c0,0.4-0.4,0.4-0.4,0.4
			c-0.4,0-0.4-0.8-0.4-1.2h-1.2c0,1.2-0.4,2,1.2,2c0.8,0,1.6,0,1.6-1.2l0.8-4L119.1,498.7L119.1,498.7z M113.5,503.1l-3.2-0.8
			l1.6-5.2l2.8,0.8l-0.4,0.8l-1.2-0.4l-0.4,1.2l1.6,0.4l-0.4,0.8l-1.6-0.4l-0.4,1.6l1.6,0.4V503.1z M105.6,499.9L105.6,499.9
			l1.6,0.8c1.6,0.8,2.4-0.8,2.8-1.6c0.8-1.6,0.8-2.4-0.4-3.2l-1.6-0.8L105.6,499.9z M108.7,496.3l0.4,0.4c0.8,0.4,0.4,1.2,0,2
			c-0.4,1.2-0.8,1.6-1.6,1.2h-0.4L108.7,496.3z"/>
	</g>
</g>
</svg>
