<?xml version="1.0" encoding="utf-8"?>
<!-- Generator: Adobe Illustrator 17.1.0, SVG Export Plug-In . SVG Version: 6.00 Build 0)  -->
<!DOCTYPE svg PUBLIC "-//W3C//DTD SVG 1.1//EN" "http://www.w3.org/Graphics/SVG/1.1/DTD/svg11.dtd">
<svg version="1.1" id="Layer_1" xmlns="http://www.w3.org/2000/svg" xmlns:xlink="http://www.w3.org/1999/xlink" x="0px" y="0px"
	 viewBox="0 0 341.6 119.2" enable-background="new 0 0 341.6 119.2" xml:space="preserve">
<g>
	<path fill="#FFFFFF" d="M141.5,95.3l-1.9-4.8l-2,4.8H141.5z M140.7,88.2c0.2,0.6,0.4,1.2,0.6,1.7L144,97c0.7,1.9,1,1.9,1.5,1.9h0.2
		v0.5h-4.2v-0.5h0.3c0.7,0,0.8-0.1,0.8-0.4c0-0.2,0-0.4-0.2-0.7l-0.8-2.1h-4.3l-0.5,1.3c-0.3,0.8-0.4,1.1-0.4,1.4
		c0,0.5,0.5,0.5,1,0.5h0.2v0.5h-3.2v-0.5h0.2c0.5,0,0.8-0.2,1.2-1.1l3.4-8.1c0.2-0.5,0.4-1,0.6-1.6H140.7z"/>
	<path fill="#FFFFFF" d="M153.2,91h-0.5c0-1.4-1-2.4-2.4-2.4c-1.3,0-2.4,0.7-2.4,2.1c0,2.5,5.9,1.6,5.9,5.6c0,2.1-1.8,3.3-3.8,3.3
		c-0.6,0-1.2-0.1-1.6-0.2c-0.4-0.1-0.7-0.2-0.8-0.2c-0.3,0-0.4,0.1-0.4,0.3h-0.5v-3.1h0.5c0.3,1.6,1.1,2.7,2.9,2.7
		c1.4,0,2.4-0.8,2.4-2.3c0-2.7-5.9-2.1-5.9-5.5c0-2.1,1.6-3.3,3.7-3.3c0.8,0,1.7,0.4,2.2,0.4c0.2,0,0.3-0.1,0.4-0.4h0.5V91z"/>
	<path fill="#FFFFFF" d="M162.1,91h-0.5c0-1.4-1-2.4-2.4-2.4c-1.3,0-2.4,0.7-2.4,2.1c0,2.5,5.9,1.6,5.9,5.6c0,2.1-1.7,3.3-3.8,3.3
		c-0.7,0-1.2-0.1-1.6-0.2c-0.4-0.1-0.7-0.2-0.8-0.2c-0.3,0-0.4,0.1-0.4,0.3h-0.5v-3.1h0.5c0.3,1.6,1.1,2.7,2.9,2.7
		c1.4,0,2.4-0.8,2.4-2.3c0-2.7-5.9-2.1-5.9-5.5c0-2.1,1.6-3.3,3.7-3.3c0.8,0,1.7,0.4,2.2,0.4c0.2,0,0.3-0.1,0.4-0.4h0.5V91z"/>
	<path fill="#FFFFFF" d="M164.2,98.9h0.6c0.4,0,0.6-0.1,0.6-1v-8.1c0-0.9-0.1-1-0.7-1h-0.5v-0.5h8.5v2.6h-0.5c0-1.5-0.8-2.1-2.3-2.1
		h-2.7v4.8h2.3c1,0,1.5-0.7,1.5-1.7h0.5v3.8H171c0-1-0.4-1.7-1.5-1.7h-2.3v4.9h2.8c1.5,0,2.3-0.7,2.3-2.2h0.5v2.6h-8.7V98.9z"/>
	<path fill="#FFFFFF" d="M174.4,98.9h0.5c0.7,0,0.7-0.4,0.7-1.8v-7.5c0-0.6-0.1-0.8-0.6-0.8h-0.5v-0.5h3c0.1,0.3,0.3,1,0.6,1.6
		l2.8,6.5l2.8-6.6c0.2-0.6,0.4-1.1,0.5-1.5h3.1v0.5h-0.7c-0.5,0-0.5,0.4-0.5,0.9v7.7c0,1.1,0,1.5,0.7,1.5h0.5v0.5H183v-0.5h0.5
		c0.6,0,0.7-0.1,0.7-1.5V90h0l-3.7,8.7h-0.6l-3.7-8.7h0v7.1c0,1.3,0,1.8,0.8,1.8h0.6v0.5h-3.2V98.9z"/>
	<path fill="#FFFFFF" d="M191.4,98.9h1.1c1.8,0,2.9-0.9,2.9-2.7c0-1.9-1.5-2.4-3.1-2.5h-0.9V98.9z M191.4,93.4h0.8
		c1.9,0,2.8-0.6,2.8-2.5c0-1.4-1.1-2.1-2.2-2.1h-1.4V93.4z M188.4,98.9h0.7c0.6,0,0.6-0.3,0.6-1.6v-7c0-1.5-0.1-1.6-0.6-1.6h-0.7
		v-0.5h5c1.8,0,3.5,0.7,3.5,2.6c0,1.5-1.5,2.3-2.8,2.6v0c1.5,0.1,3.2,1.1,3.2,2.7c0,1.8-2.1,3.1-3.6,3.1h-5.3V98.9z"/>
	<path fill="#FFFFFF" d="M199,98.9h0.5c0.6,0,0.8-0.2,0.8-0.8v-8.4c0-0.8-0.2-0.9-0.9-0.9H199v-0.5h4.3v0.5h-0.5
		c-0.7,0-0.8,0.2-0.8,0.9v9.2h2.4c1.2,0,2.3-0.8,2.3-2.4h0.5v2.8H199V98.9z"/>
	<path fill="#FFFFFF" d="M208.3,98.9h0.6c0.4,0,0.6-0.1,0.6-1v-8.1c0-0.9-0.1-1-0.7-1h-0.5v-0.5h8.5v2.6h-0.5c0-1.5-0.8-2.1-2.3-2.1
		h-2.7v4.8h2.3c1,0,1.5-0.7,1.5-1.7h0.5v3.8h-0.5c0-1-0.4-1.7-1.5-1.7h-2.3v4.9h2.8c1.5,0,2.3-0.7,2.3-2.2h0.5v2.6h-8.7V98.9z"/>
	<path fill="#FFFFFF" d="M218.6,98.9h0.5c0.6,0,0.8-0.2,0.8-0.8v-8.4c0-0.8-0.2-0.9-0.9-0.9h-0.4v-0.5h4.3v0.5h-0.4
		c-0.6,0-0.9,0.1-0.9,0.9v8.4c0,0.5,0.2,0.8,0.8,0.8h0.5v0.5h-4.3V98.9z"/>
	<path fill="#FFFFFF" d="M230.3,95.3l-1.9-4.8l-2,4.8H230.3z M229.5,88.2c0.2,0.6,0.4,1.2,0.6,1.7l2.8,7.1c0.7,1.9,1,1.9,1.5,1.9
		h0.2v0.5h-4.2v-0.5h0.3c0.7,0,0.8-0.1,0.8-0.4c0-0.2,0-0.4-0.2-0.7l-0.8-2.1h-4.3l-0.5,1.3c-0.3,0.8-0.4,1.1-0.4,1.4
		c0,0.5,0.5,0.5,1,0.5h0.2v0.5h-3.2v-0.5h0.2c0.5,0,0.9-0.2,1.2-1.1l3.4-8.1c0.2-0.5,0.4-1,0.6-1.6H229.5z"/>
	<path fill="#FFFFFF" d="M239.7,98.9h0.5c0.6,0,0.8-0.2,0.8-0.8v-8.4c0-0.8-0.2-0.9-0.9-0.9h-0.4v-0.5h4.3v0.5h-0.5
		c-0.7,0-0.8,0.2-0.8,0.9v9.2h2.4c1.2,0,2.3-0.8,2.3-2.4h0.5v2.8h-8.2V98.9z"/>
	<path fill="#FFFFFF" d="M249,98.9h0.6c0.4,0,0.6-0.1,0.6-1v-8.1c0-0.9-0.1-1-0.7-1H249v-0.5h8.5v2.6H257c0-1.5-0.8-2.1-2.3-2.1H252
		v4.8h2.3c1,0,1.5-0.7,1.5-1.7h0.5v3.8h-0.5c0-1-0.4-1.7-1.5-1.7H252v4.9h2.8c1.5,0,2.3-0.7,2.3-2.2h0.5v2.6H249V98.9z"/>
	<path fill="#FFFFFF" d="M268,91.2h-0.5c-0.1-1.5-1.2-2.6-2.8-2.6c-2.8,0-3.3,3.2-3.3,5.4c0,2.3,0.5,5.1,3.1,5.2
		c1.1,0,2.2-0.6,2.2-2.2v-1.3c0-0.6-0.2-0.8-0.6-0.8h-0.6v-0.5h3.8V95h-0.4c-0.5,0-0.6,0.2-0.6,1v3.6h-0.4c0-0.2-0.1-0.4-0.5-0.4
		c-0.5,0-1.2,0.5-2.9,0.5c-3.7,0-5-2.5-5-5.9c0-3,1.8-5.7,5.1-5.7c0.8,0,1.3,0.1,1.7,0.2c0.4,0.1,0.7,0.2,0.9,0.2
		c0.2,0,0.2-0.2,0.3-0.4h0.5V91.2z"/>
	<path fill="#FFFFFF" d="M270.2,98.9h0.5c0.6,0,0.8-0.2,0.8-0.8v-8.4c0-0.8-0.2-0.9-0.9-0.9h-0.4v-0.5h4.3v0.5h-0.4
		c-0.6,0-0.9,0.1-0.9,0.9v8.4c0,0.5,0.2,0.8,0.8,0.8h0.5v0.5h-4.3V98.9z"/>
	<path fill="#FFFFFF" d="M282.7,91h-0.5c0-1.4-1-2.4-2.4-2.4c-1.3,0-2.4,0.7-2.4,2.1c0,2.5,5.9,1.6,5.9,5.6c0,2.1-1.8,3.3-3.8,3.3
		c-0.6,0-1.2-0.1-1.6-0.2c-0.4-0.1-0.7-0.2-0.8-0.2c-0.3,0-0.4,0.1-0.4,0.3H276v-3.1h0.5c0.3,1.6,1.1,2.7,2.9,2.7
		c1.4,0,2.4-0.8,2.4-2.3c0-2.7-5.9-2.1-5.9-5.5c0-2.1,1.6-3.3,3.7-3.3c0.8,0,1.7,0.4,2.2,0.4c0.2,0,0.3-0.1,0.4-0.4h0.5V91z"/>
	<path fill="#FFFFFF" d="M284.7,98.9h0.5c0.6,0,0.8-0.2,0.8-0.8v-8.4c0-0.8-0.2-0.9-0.9-0.9h-0.4v-0.5h4.3v0.5h-0.5
		c-0.7,0-0.8,0.2-0.8,0.9v9.2h2.4c1.2,0,2.3-0.8,2.3-2.4h0.5v2.8h-8.2V98.9z"/>
	<path fill="#FFFFFF" d="M300.2,95.3l-1.9-4.8l-2,4.8H300.2z M299.3,88.2c0.2,0.6,0.4,1.2,0.6,1.7l2.8,7.1c0.7,1.9,1,1.9,1.5,1.9
		h0.2v0.5h-4.2v-0.5h0.3c0.7,0,0.8-0.1,0.8-0.4c0-0.2,0-0.4-0.2-0.7l-0.8-2.1h-4.3l-0.5,1.3c-0.3,0.8-0.4,1.1-0.4,1.4
		c0,0.5,0.5,0.5,1,0.5h0.2v0.5h-3.2v-0.5h0.2c0.5,0,0.9-0.2,1.2-1.1l3.4-8.1c0.2-0.5,0.4-1,0.6-1.6H299.3z"/>
	<path fill="#FFFFFF" d="M306.1,98.9h0.7c0.6,0,0.6-0.3,0.6-1.6v-8.5h-0.8c-1.4,0-2.4,0.8-2.4,2.2h-0.5v-2.7h9.3v2.7h-0.5
		c0-1.5-1-2.2-2.4-2.2h-0.8v8.5c0,1.3,0,1.6,0.6,1.6h0.7v0.5h-4.5V98.9z"/>
	<path fill="#FFFFFF" d="M314.1,98.9h0.5c0.6,0,0.8-0.2,0.8-0.8v-8.4c0-0.8-0.2-0.9-0.9-0.9h-0.4v-0.5h4.3v0.5H318
		c-0.6,0-0.9,0.1-0.9,0.9v8.4c0,0.5,0.2,0.8,0.8,0.8h0.5v0.5h-4.3V98.9z"/>
	<path fill="#FFFFFF" d="M329.7,88.8h-0.2c-0.6,0-0.8,0.4-1.4,2l-3,7.8c-0.1,0.3-0.2,0.6-0.3,0.9h-0.9c-0.2-0.8-0.5-1.6-0.9-2.4
		l-2.6-6.8c-0.5-1.3-0.6-1.6-1.1-1.6h-0.4v-0.4h4.3v0.4h-0.6c-0.3,0-0.6,0.1-0.6,0.4c0,0.2,0.1,0.5,0.5,1.6l2.4,6.4l2.6-6.9
		c0.2-0.5,0.3-0.9,0.3-1.2c0-0.3-0.2-0.4-0.6-0.4h-0.6v-0.4h3.2V88.8z"/>
	<path fill="#FFFFFF" d="M335.1,95.3l-1.9-4.8l-2,4.8H335.1z M334.3,88.2c0.2,0.6,0.4,1.2,0.6,1.7l2.8,7.1c0.7,1.9,1,1.9,1.5,1.9
		h0.2v0.5h-4.2v-0.5h0.3c0.7,0,0.8-0.1,0.8-0.4c0-0.2,0-0.4-0.2-0.7l-0.8-2.1H331l-0.5,1.3c-0.3,0.8-0.4,1.1-0.4,1.4
		c0,0.5,0.5,0.5,1,0.5h0.2v0.5h-3.2v-0.5h0.2c0.5,0,0.9-0.2,1.2-1.1l3.4-8.1c0.2-0.5,0.4-1,0.6-1.6H334.3z"/>
	<path fill="#FFFFFF" d="M138.1,118.5h1.3c3,0,3.7-2.6,3.7-5c0-2.6-0.8-5.1-3.8-5.1h-1.3V118.5z M135.1,107.9h4.4
		c3.6,0,5.6,2.1,5.6,5.6c0,3.9-2.9,5.4-5.5,5.4h-4.5v-0.5h0.6c0.5,0,0.6-0.2,0.6-1.7v-7c0-1.1-0.1-1.4-0.6-1.4h-0.7V107.9z"/>
	<path fill="#FFFFFF" d="M151.4,118.7c2.6,0,2.8-3.5,2.8-5.3c0-1.8-0.2-5.3-2.8-5.3c-2.6,0-2.8,3.5-2.8,5.3
		C148.6,115.2,148.8,118.7,151.4,118.7 M151.4,107.6c3.2,0,4.7,2.9,4.7,5.8c0,2.9-1.5,5.8-4.7,5.8c-3.2,0-4.7-2.9-4.7-5.8
		C146.7,110.5,148.2,107.6,151.4,107.6"/>
	<path fill="#FFFFFF" d="M165.1,112.9h1.2c1.3,0,2.4-0.6,2.4-2.3c0-1.7-0.9-2.3-2.4-2.3h-1.2V112.9z M162.1,118.5h0.5
		c0.6,0,0.8-0.2,0.8-0.8v-8.4c0-0.8-0.2-0.9-0.9-0.9h-0.4v-0.5h5.1c1.8,0,3.5,0.7,3.5,2.4c0,1.4-1.3,2.5-2.7,2.8v0
		c1.9,0.4,2.2,0.8,2.3,2.8l0.1,1.9c0,0.2,0.1,0.5,0.4,0.5c0.4,0,0.6-0.4,0.7-0.8l0.5,0.2c-0.4,0.8-0.9,1.3-1.8,1.3
		c-1.3,0-1.6-1.1-1.7-2.1l-0.1-2.1c-0.1-1.2-0.7-1.7-2.2-1.7h-1v4.2c0,0.7,0.1,0.9,0.8,0.9h0.5v0.5h-4.3V118.5z"/>
	<path fill="#FFFFFF" d="M172.8,118.5h0.5c0.6,0,0.8-0.2,0.8-0.8v-8.4c0-0.8-0.2-0.9-0.9-0.9h-0.4v-0.5h4.3v0.5h-0.4
		c-0.6,0-0.9,0.1-0.9,0.9v8.4c0,0.5,0.2,0.8,0.8,0.8h0.5v0.5h-4.3V118.5z"/>
	<path fill="#FFFFFF" d="M183.1,118.7c2.6,0,2.8-3.5,2.8-5.3c0-1.8-0.2-5.3-2.8-5.3c-2.6,0-2.8,3.5-2.8,5.3
		C180.4,115.2,180.5,118.7,183.1,118.7 M183.1,107.6c3.2,0,4.7,2.9,4.7,5.8c0,2.9-1.5,5.8-4.7,5.8c-3.2,0-4.7-2.9-4.7-5.8
		C178.4,110.5,179.9,107.6,183.1,107.6"/>
	<path fill="#FFFFFF" d="M196.7,118.5h1.3c3,0,3.7-2.6,3.7-5c0-2.6-0.8-5.1-3.8-5.1h-1.3V118.5z M193.7,107.9h4.4
		c3.6,0,5.6,2.1,5.6,5.6c0,3.9-2.9,5.4-5.5,5.4h-4.5v-0.5h0.7c0.5,0,0.6-0.2,0.6-1.7v-7c0-1.1-0.1-1.4-0.6-1.4h-0.7V107.9z"/>
	<path fill="#FFFFFF" d="M205.2,118.5h0.6c0.4,0,0.6-0.1,0.6-1v-8.1c0-0.9-0.1-1-0.7-1h-0.5v-0.5h8.5v2.6h-0.5
		c0-1.5-0.8-2.1-2.3-2.1h-2.7v4.8h2.3c1,0,1.5-0.7,1.5-1.7h0.5v3.8h-0.5c0-1-0.4-1.7-1.5-1.7h-2.3v4.9h2.8c1.5,0,2.3-0.7,2.3-2.2
		h0.5v2.6h-8.7V118.5z"/>
	<path fill="#FFFFFF" d="M222.4,107.9h4.4v0.5h-0.6c-0.5,0-0.6,0.2-0.6,1.8v6.1c0,1.6-1,2.9-3.3,2.9c-0.8,0-1.7-0.2-2.2-0.4v-2.6
		h0.5c0,1.1,0.4,2.6,1.8,2.6c1.3,0,1.5-1.1,1.5-2.6v-6c0-1.6,0-1.8-0.7-1.8h-0.6V107.9z"/>
	<path fill="#FFFFFF" d="M233.9,114.9l-1.9-4.8l-2,4.8H233.9z M233,107.7c0.2,0.6,0.4,1.2,0.6,1.7l2.8,7.1c0.7,1.9,1,1.9,1.5,1.9
		h0.2v0.5h-4.2v-0.5h0.3c0.7,0,0.8-0.1,0.8-0.4c0-0.2,0-0.4-0.2-0.7l-0.8-2.1h-4.3l-0.5,1.3c-0.3,0.8-0.4,1.1-0.4,1.4
		c0,0.5,0.5,0.5,1,0.5h0.2v0.5h-3.2v-0.5h0.2c0.5,0,0.9-0.2,1.2-1.1l3.4-8.1c0.2-0.5,0.4-1,0.6-1.6H233z"/>
	<path fill="#FFFFFF" d="M238.5,118.5h0.5c0.7,0,0.7-0.7,0.7-1.8v-6.2c0-2-0.1-2.1-0.7-2.1h-0.6v-0.5h3l5.6,8.6h0V110
		c0-1.4-0.1-1.7-0.9-1.7h-0.5v-0.5h3.3v0.5h-0.4c-0.8,0-0.9,0.4-0.9,1.7v9h-1l-6.4-9.7h0v7.3c0,1.1,0,1.8,0.6,1.8h0.6v0.5h-3.1
		V118.5z"/>
	<path fill="#FFFFFF" d="M250.2,118.5h0.6c0.4,0,0.6-0.1,0.6-1v-8.1c0-0.9-0.1-1-0.7-1h-0.5v-0.5h8.5v2.6h-0.5
		c0-1.5-0.8-2.1-2.3-2.1h-2.7v4.8h2.3c1,0,1.5-0.7,1.5-1.7h0.5v3.8H257c0-1-0.4-1.7-1.5-1.7h-2.3v4.9h2.8c1.5,0,2.3-0.7,2.3-2.2h0.5
		v2.6h-8.7V118.5z"/>
	<path fill="#FFFFFF" d="M260.5,118.5h0.5c0.6,0,0.8-0.2,0.8-0.8v-8.4c0-0.8-0.2-0.9-0.9-0.9h-0.4v-0.5h4.3v0.5h-0.4
		c-0.6,0-0.9,0.1-0.9,0.9v8.4c0,0.5,0.2,0.8,0.8,0.8h0.5v0.5h-4.3V118.5z"/>
	<path fill="#FFFFFF" d="M269,112.9h1.2c1.3,0,2.4-0.6,2.4-2.3c0-1.7-0.9-2.3-2.4-2.3H269V112.9z M266,118.5h0.5
		c0.6,0,0.8-0.2,0.8-0.8v-8.4c0-0.8-0.2-0.9-0.9-0.9H266v-0.5h5c1.8,0,3.5,0.7,3.5,2.4c0,1.4-1.3,2.5-2.7,2.8v0
		c1.9,0.4,2.2,0.8,2.3,2.8l0.1,1.9c0,0.2,0.1,0.5,0.4,0.5c0.4,0,0.6-0.4,0.7-0.8l0.5,0.2c-0.4,0.8-0.9,1.3-1.8,1.3
		c-1.3,0-1.6-1.1-1.7-2.1l-0.1-2.1c-0.1-1.2-0.7-1.7-2.2-1.7h-1v4.2c0,0.7,0.1,0.9,0.8,0.9h0.5v0.5H266V118.5z"/>
	<path fill="#FFFFFF" d="M281.5,118.7c2.6,0,2.8-3.5,2.8-5.3c0-1.8-0.2-5.3-2.8-5.3c-2.6,0-2.8,3.5-2.8,5.3
		C278.7,115.2,278.9,118.7,281.5,118.7 M281.5,107.6c3.2,0,4.7,2.9,4.7,5.8c0,2.9-1.5,5.8-4.7,5.8s-4.7-2.9-4.7-5.8
		C276.8,110.5,278.3,107.6,281.5,107.6"/>
	<path fill="#FFFFFF" d="M173.9,45.7l-6-15.2l-6.4,15.2L173.9,45.7z M161,47.1l-2.9,7.3c-0.2,0.5-0.2,0.9-0.2,1.2
		c0,1.2,1.7,1.3,3.3,1.3h0.5v1.4l-9.6,0v-1.4c2.7,0,3.7-1.5,4.7-3.8l11.9-29.4h1.7l12,30.2c0.7,1.8,1.5,3,3.3,3.1h0.7v1.4l-12.3,0
		v-1.4h0.6c1.2,0,3.2,0,3.2-1.2c0-0.6-0.2-1.2-0.7-2.3l-2.6-6.3L161,47.1z"/>
	<path fill="#FFFFFF" d="M207,24.2v1.4l-1.4,0c-2.9,0-2.9,1.1-2.9,3.3l0,28l7,0c5.1,0,7.8-2.5,7.9-7.1h1.7v8.5l-24.8,0v-1.4h1.9
		c1.7,0,2.1-0.8,2.1-3.5l0-22.7c0-4.7,0-5.2-2.8-5.2h-1.2v-1.4L207,24.2z"/>
	<path fill="#FFFFFF" d="M228.5,56.9h1.9c1.7,0,2.1-0.8,2.1-3.5l0-22.7c0-4.7,0-5.2-2.8-5.2h-1.2v-1.4l25.9,0l0,7.9h-1.7
		c0-4.6-2.5-6.5-7-6.5l-8.9,0v14.8l6,0c4,0,6.2-0.9,6.2-5.3h1.7v11.8H249c0-4.6-2.9-5.1-5.2-5.1h-7l0,15.2l8.3,0
		c4.9,0,7.9-1.1,8.1-6.6h1.7v8l-26.5,0V56.9z"/>
	<path fill="#FFFFFF" d="M275.1,39.6h4.6c4.3,0,7.4-3,7.4-7.3c0-4.8-2.9-6.8-7.5-6.8h-4.6L275.1,39.6z M266.8,56.9h1.9
		c1.7,0,2.1-0.8,2.1-3.5l0-22.7c0-4.7,0-5.2-2.8-5.2h-1.2v-1.4l12.6,0c5.6,0,12.9,1.1,12.9,8.1c0,4.8-4.5,7.2-8.6,8v0.1
		c3.4,0.6,6.7,2.3,6.7,6.2v6.8c0,1.1,0,3.3,1.6,3.3c1.5,0,1.8-1.4,2.4-2.4l1.4,0.5c-1,2.2-2.6,4.3-5.3,4.3c-3.6,0-4.5-2.2-4.5-5.8
		v-5c0-5.4-1.5-7.2-6.9-7.2l-4,0l0,11.7c0,3.5,0.1,4.2,2.5,4.2l1.5,0v1.4l-12.3,0V56.9z"/>
	<path fill="#FFFFFF" d="M302,49.7h1.7c0.1,4.5,1.4,7.9,5.4,7.9c4.4,0,4.8-4,4.8-7.5l0-20.9c0-2.6,0-3.7-2.5-3.7h-1.9v-1.4l12.8,0
		v1.4h-1.8c-2.3,0-2.3,1.1-2.3,3.7l0,17.6c0,6.7-1.3,12.2-9.4,12.2c-2.3,0-4.7-0.3-7-1.3L302,49.7z"/>
	<path fill="#FFFFFF" d="M339.6,44.4c-1.6,0-2.9-1.3-2.9-2.9c0-1.6,1.3-2.9,2.9-2.9c1.6,0,2.9,1.3,2.9,2.9
		C342.5,43.1,341.2,44.4,339.6,44.4L339.6,44.4z"/>
	<path fill="#FFFFFF" d="M134.7,44.4c-1.6,0-2.9-1.3-2.9-2.9c0-1.6,1.3-2.9,2.9-2.9c1.6,0,2.9,1.3,2.9,2.9
		C137.6,43.1,136.3,44.4,134.7,44.4"/>
	<rect x="115.2" y="99.8" fill="#FFFFFF" width="3" height="7.8"/>
	<rect x="4.7" y="99.8" fill="#FFFFFF" width="3" height="7.8"/>
	<polygon fill="#FFFFFF" points="65.8,13.2 65.8,19.1 71.3,19.1 71.3,13.2 	"/>
	<rect x="0" y="116.1" fill="#FFFFFF" width="122.8" height="2.9"/>
	<rect x="107.1" y="99.8" fill="#FFFFFF" width="4.2" height="7.8"/>
	<rect x="97.8" y="99.8" fill="#FFFFFF" width="5.3" height="7.8"/>
	<rect x="88.7" y="99.8" fill="#FFFFFF" width="5.2" height="7.8"/>
	<rect x="79" y="99.8" fill="#FFFFFF" width="5.7" height="7.8"/>
	<rect x="68.9" y="99.8" fill="#FFFFFF" width="6.1" height="7.8"/>
	<rect x="58" y="99.8" fill="#FFFFFF" width="6.9" height="7.8"/>
	<rect x="47.9" y="99.8" fill="#FFFFFF" width="6.1" height="7.8"/>
	<rect x="38.3" y="99.8" fill="#FFFFFF" width="5.7" height="7.8"/>
	<rect x="29.1" y="99.8" fill="#FFFFFF" width="5.2" height="7.8"/>
	<rect x="19.8" y="99.8" fill="#FFFFFF" width="5.3" height="7.8"/>
	<rect x="11.7" y="99.8" fill="#FFFFFF" width="4.2" height="7.8"/>
	<path fill="#FFFFFF" d="M75.3,86.6H47.8v-2.5h27.5V86.6z M75.3,91.3H47.8v-2.5h27.5V91.3z"/>
	<path fill="#FFFFFF" d="M99,86.5H81V84h18V86.5z M99,91.3H81v-2.5h18V91.3z"/>
	<path fill="#FFFFFF" d="M115.1,86.5h-10.5V84h10.5V86.5z M115.1,91.3h-10.5v-2.5l10.5,0V91.3z"/>
	<path fill="#FFFFFF" d="M18.2,86.5H7.7V84h10.5V86.5z M18.2,91.3H7.7v-2.5h10.5V91.3z"/>
	<path fill="#FFFFFF" d="M66.1,28.6c6.1,18,9,33.5,9,48.3c0,1.5,0,3-0.1,4.4l0,0.3H47.8v-0.3c0-1.6-0.1-3-0.1-4.4
		c0-15.2,2.9-31.2,8.7-48.3H66.1z"/>
	<path fill="#FFFFFF" d="M77.6,28.6c12.6,14.1,19.9,32.3,21.1,52.6l0,0.4H80.9l0-0.3c0-0.9,0-1.8,0-2.7c0-18.4-3.9-35.5-11.3-50
		H77.6z"/>
	<path fill="#FFFFFF" d="M86.4,28.6c16.5,12.8,26.8,31.5,28.7,52.7l0,0.3h-10.5l0-0.3c-1-20.4-10-39-24.6-52.7L86.4,28.6z"/>
	<rect x="0" y="110.8" fill="#FFFFFF" width="122.8" height="2.9"/>
	<rect x="0" y="93.8" fill="#FFFFFF" width="122.8" height="2.9"/>
	<rect x="44.3" y="13.2" fill="#FFFFFF" width="5.1" height="5.9"/>
	<rect x="51.3" y="13.2" fill="#FFFFFF" width="5.2" height="5.9"/>
	<rect x="73.4" y="13.2" fill="#FFFFFF" width="4.9" height="5.9"/>
	<rect x="58.5" y="13.2" fill="#FFFFFF" width="5.3" height="5.9"/>
	<path fill="#FFFFFF" d="M55.5,10.9l11.6,0l0-5.6c-0.3-3-2.7-5.4-5.8-5.4c-3.2,0-5.8,2.6-5.8,5.9L55.5,10.9z"/>
	<path fill="#FFFFFF" d="M71.6,8.2c0-1.9,1.5-3.3,3.3-3.3c1.9,0,3.4,1.5,3.4,3.4v2.6h-6.7V8.2z"/>
	<path fill="#FFFFFF" d="M44.3,8.2c0-1.9,1.5-3.3,3.4-3.3c1.9,0,3.4,1.5,3.4,3.4v2.6h-6.7L44.3,8.2z"/>
	<path fill="#FFFFFF" d="M64.7,22.8l-0.5-1.6l-5.9,0c-0.1,0.4-0.3,1-0.4,1.6H64.7z"/>
	<path fill="#FFFFFF" d="M65.7,26.3c-0.2-0.6-0.4-1.1-0.5-1.7l-7.7,0c-0.2,0.6-0.3,1.1-0.5,1.7L65.7,26.3z"/>
	<path fill="#FFFFFF" d="M73.2,22.8c-0.9-1-1.6-1.7-1.6-1.7h-5.2l0.8,1.7H73.2z"/>
	<path fill="#FFFFFF" d="M76.2,26.3c-0.5-0.6-1-1.1-1.5-1.7H68l0.8,1.7H76.2z"/>
	<path fill="#FFFFFF" d="M80.7,22.8c-1.2-1-2-1.7-2-1.7h-4.9c0.6,0.6,1.1,1.1,1.6,1.6L80.7,22.8z"/>
	<path fill="#FFFFFF" d="M78.5,26.3c-0.5-0.5-1.1-1.1-1.6-1.7l5.6,0c0.6,0.5,1.4,1.1,2,1.7L78.5,26.3z"/>
	<path fill="#FFFFFF" d="M42.9,28.6C28.2,42.3,19.3,60.9,18.2,81.3l0,0.3H7.7l0-0.3c1.9-21.1,12.1-39.9,28.7-52.7L42.9,28.6z"/>
	<path fill="#FFFFFF" d="M42.1,86.5h-18V84h18V86.5z M42.1,91.3h-18v-2.5h18V91.3z"/>
	<path fill="#FFFFFF" d="M53.2,28.6c-7.4,14.5-11.3,31.6-11.3,50c0,0.8,0,1.8,0,2.7l0,0.3H24.1l0-0.4c1.2-20.2,8.5-38.5,21.1-52.6
		H53.2z"/>
	<path fill="#FFFFFF" d="M54,26.3l0.8-1.7h-6.7c-0.5,0.5-1,1.1-1.5,1.7L54,26.3z"/>
	<path fill="#FFFFFF" d="M55.5,22.8l0.8-1.6H51c0,0-0.5,0.7-1.4,1.6H55.5z"/>
	<path fill="#FFFFFF" d="M44.3,26.3c0.5-0.5,1-1.1,1.6-1.7h-5.6c-0.6,0.5-1.3,1.1-2,1.7H44.3z"/>
	<path fill="#FFFFFF" d="M47.3,22.8c0,0,1.1-1.1,1.6-1.6H44c0,0-0.8,0.6-2,1.6H47.3z"/>
	<rect x="134.7" y="71.5" fill="#FFFFFF" width="204.9" height="2.3"/>
</g>
</svg>
