<?xml version="1.0" encoding="utf-8"?>
<!-- Generator: Adobe Illustrator 17.1.0, SVG Export Plug-In . SVG Version: 6.00 Build 0)  -->
<!DOCTYPE svg PUBLIC "-//W3C//DTD SVG 1.1//EN" "http://www.w3.org/Graphics/SVG/1.1/DTD/svg11.dtd">
<svg version="1.1" id="Layer_1" xmlns="http://www.w3.org/2000/svg" xmlns:xlink="http://www.w3.org/1999/xlink" x="0px" y="0px"
	 viewBox="0 0 488 100.3" enable-background="new 0 0 488 100.3" xml:space="preserve">
<path fill="#162C53" d="M1.5,2.4h87.4v96.5H1.5V2.4z M0.1,100.3h90.2V1H0.1V100.3z"/>
<path fill="#162C53" d="M149.4,10.7c0-4.6-2.8-7.3-8.1-7.3h-9c-0.2,0-0.3,0.1-0.3,0.3v13.9c0,0.2,0.1,0.3,0.3,0.3h9
	C146.6,17.9,149.4,15.2,149.4,10.7 M129.5,36.2c-0.3,0-0.5-0.2-0.5-0.5V1c0-0.3,0.2-0.5,0.5-0.5h11.9c6.8,0,11,3.9,11,10.1
	c0,6.2-4.2,10.1-11,10.1h-9.1c-0.2,0-0.3,0.1-0.3,0.3v14.7c0,0.3-0.2,0.5-0.5,0.5H129.5z"/>
<path fill="#162C53" d="M179.1,24.1l-6.7-18.7h-0.2l-6.7,18.7H179.1z M170.8,1c0.1-0.3,0.3-0.5,0.6-0.5h1.9c0.4,0,0.5,0.2,0.6,0.5
	l12.4,34.7c0.1,0.3,0,0.5-0.4,0.5h-2c-0.4,0-0.6-0.1-0.7-0.5l-3.2-8.8h-15.5l-3.2,8.8c-0.2,0.4-0.4,0.5-0.7,0.5h-2
	c-0.3,0-0.5-0.2-0.4-0.5L170.8,1z"/>
<path fill="#162C53" d="M218.5,10.4c0-4.5-2.8-7-7.9-7h-9.1c-0.2,0-0.3,0.1-0.3,0.3v13.4c0,0.2,0.1,0.3,0.3,0.3h9.1
	C215.7,17.4,218.5,14.9,218.5,10.4 M219.3,36.2c-0.3,0-0.5-0.1-0.6-0.5l-7.5-15.5h-0.5h-9.2c-0.2,0-0.3,0.1-0.3,0.3v15.1
	c0,0.3-0.2,0.5-0.5,0.5h-1.9c-0.3,0-0.5-0.2-0.5-0.5V1c0-0.3,0.2-0.5,0.5-0.5h12c6.7,0,10.9,3.8,10.9,9.9c0,4.9-2.7,8.4-7.3,9.5
	l7.8,15.8c0.2,0.3,0.1,0.6-0.3,0.6H219.3z"/>
<path fill="#162C53" d="M235.7,1c0-0.3,0.2-0.5,0.5-0.5h1.9c0.3,0,0.5,0.2,0.5,0.5v32c0,0.2,0.1,0.3,0.3,0.3h17.6
	c0.3,0,0.5,0.2,0.5,0.5v1.8c0,0.3-0.2,0.5-0.5,0.5h-20.4c-0.3,0-0.5-0.2-0.5-0.5V1z"/>
<path fill="#162C53" d="M286.3,24.1l-6.7-18.7h-0.2l-6.7,18.7H286.3z M278,1c0.1-0.3,0.3-0.5,0.6-0.5h1.9c0.4,0,0.5,0.2,0.6,0.5
	l12.4,34.7c0.1,0.3,0,0.5-0.4,0.5h-2.1c-0.4,0-0.6-0.1-0.7-0.5l-3.2-8.8h-15.5l-3.2,8.8c-0.2,0.4-0.4,0.5-0.7,0.5h-2.1
	c-0.3,0-0.5-0.2-0.4-0.5L278,1z"/>
<path fill="#162C53" d="M305.4,1c0-0.3,0.2-0.5,0.5-0.5h2c0.4,0,0.6,0.2,0.8,0.5l11.6,25.6h0.2L331.9,1c0.2-0.4,0.4-0.5,0.7-0.5h2.1
	c0.3,0,0.5,0.2,0.5,0.5v34.7c0,0.3-0.2,0.5-0.5,0.5h-1.9c-0.3,0-0.5-0.2-0.5-0.5V7.8H332l-10.3,22.6c-0.2,0.4-0.4,0.6-0.9,0.6h-1
	c-0.5,0-0.7-0.2-0.9-0.6L308.5,7.8h-0.2v27.9c0,0.3-0.2,0.5-0.5,0.5h-1.9c-0.3,0-0.5-0.2-0.5-0.5V1z"/>
<path fill="#162C53" d="M350.3,1c0-0.3,0.2-0.5,0.5-0.5h20.4c0.3,0,0.5,0.2,0.5,0.5v1.8c0,0.3-0.2,0.5-0.5,0.5h-17.6
	c-0.2,0-0.3,0.1-0.3,0.3v12.7c0,0.2,0.1,0.3,0.3,0.3h15.2c0.3,0,0.5,0.2,0.5,0.5V19c0,0.3-0.2,0.5-0.5,0.5h-15.2
	c-0.2,0-0.3,0.1-0.3,0.3v13.2c0,0.2,0.1,0.3,0.3,0.3h17.6c0.3,0,0.5,0.2,0.5,0.5v1.8c0,0.3-0.2,0.5-0.5,0.5h-20.4
	c-0.3,0-0.5-0.2-0.5-0.5V1z"/>
<path fill="#162C53" d="M384.8,1c0-0.3,0.2-0.5,0.5-0.5h1.9c0.4,0,0.7,0.1,0.9,0.5l17.8,29.4h0.2V1c0-0.3,0.2-0.5,0.5-0.5h1.9
	c0.3,0,0.5,0.2,0.5,0.5v34.7c0,0.3-0.2,0.5-0.5,0.5h-2.1c-0.3,0-0.6-0.1-0.9-0.5L388,6.3h-0.2v29.4c0,0.3-0.2,0.5-0.5,0.5h-1.9
	c-0.3,0-0.5-0.2-0.5-0.5V1z"/>
<path fill="#162C53" d="M432.1,36.2c-0.3,0-0.5-0.2-0.5-0.5v-32c0-0.2-0.1-0.3-0.3-0.3H421c-0.3,0-0.5-0.2-0.5-0.5V1
	c0-0.3,0.2-0.5,0.5-0.5h24.2c0.3,0,0.5,0.2,0.5,0.5v1.8c0,0.3-0.2,0.5-0.5,0.5h-10.3c-0.2,0-0.3,0.1-0.3,0.3v32
	c0,0.3-0.2,0.5-0.5,0.5H432.1z"/>
<path fill="#162C53" d="M475.5,8.9c-1.3-3.9-4.2-6-8.6-6c-4.5,0-7.3,2.1-8.7,6c-0.5,1.4-0.9,3.7-0.9,9.5c0,5.8,0.4,8.1,0.9,9.5
	c1.3,3.9,4.2,6,8.7,6c4.4,0,7.3-2.1,8.6-6c0.5-1.4,0.9-3.7,0.9-9.5C476.4,12.6,476,10.3,475.5,8.9 M455.3,28.7
	c-0.6-1.9-1.1-4.2-1.1-10.3c0-6.1,0.4-8.5,1.1-10.3c1.7-5.2,5.7-8,11.5-8c5.8,0,9.8,2.8,11.5,8c0.6,1.9,1.1,4.2,1.1,10.3
	c0,6.1-0.4,8.5-1.1,10.3c-1.7,5.2-5.7,8-11.5,8C461,36.8,457.1,34,455.3,28.7"/>
<path fill="#162C53" d="M128.6,91.4c0.5,0.7,1.2,1.3,2,1.7c0.8,0.5,1.8,0.8,2.9,0.8c1.4,0,2.8-0.5,4.2-1.6c0.6-0.5,1.1-1.2,1.5-2.1
	c0.4-0.8,0.6-1.9,0.6-3.2V61.9h5.5v25.8c-0.1,3.8-1.3,6.7-3.6,8.7c-2.3,2.1-5,3.2-8,3.2c-4.2-0.1-7.4-1.7-9.6-4.8L128.6,91.4z"/>
<path fill="#162C53" d="M157.8,61.9h5.5V86c0,2.5,0.7,4.5,2.1,5.8c1.4,1.4,3.1,2.1,5.3,2.1c2.1,0,3.9-0.7,5.3-2.1
	c1.4-1.3,2.1-3.3,2.1-5.8V61.9h5.5v24.7c-0.1,3.9-1.3,7.1-3.7,9.4c-2.4,2.4-5.5,3.6-9.2,3.6c-3.6,0-6.7-1.2-9.1-3.6
	c-2.5-2.3-3.7-5.4-3.8-9.4V61.9z"/>
<polygon fill="#162C53" points="215.4,61.9 207.1,90.4 207,90.4 198.8,61.9 193,61.9 204.9,99.3 209.2,99.3 221.2,61.9 "/>
<polygon fill="#162C53" points="231.3,61.9 231.3,99.3 254.4,99.3 254.4,93.9 236.7,93.9 236.7,82.9 251.8,82.9 251.8,77.9 
	236.7,77.9 236.7,67.2 254.4,67.2 254.4,61.9 "/>
<polygon fill="#162C53" points="287.4,61.9 287.4,88.5 287.3,88.5 270.9,61.9 265.7,61.9 265.7,99.3 271.2,99.3 271.2,72.7 
	271.3,72.7 287.7,99.3 292.9,99.3 292.9,61.9 "/>
<rect x="306.9" y="61.9" fill="#162C53" width="5.5" height="37.4"/>
<polygon fill="#162C53" points="325.7,61.9 325.7,99.3 348.9,99.3 348.9,93.9 331.2,93.9 331.2,61.9 "/>
<rect x="116" y="49.1" fill="#162C53" width="371.3" height="1.4"/>
<polygon fill="#162C53" points="40.1,61.9 11.1,44.5 5,50.6 40.1,85.7 108.8,31.8 89.6,12.5 "/>
</svg>
