<?xml version="1.0" encoding="utf-8"?>
<!-- Generator: Adobe Illustrator 16.0.0, SVG Export Plug-In . SVG Version: 6.00 Build 0)  -->
<!DOCTYPE svg PUBLIC "-//W3C//DTD SVG 1.1//EN" "http://www.w3.org/Graphics/SVG/1.1/DTD/svg11.dtd">
<svg version="1.1" id="Layer_1" xmlns="http://www.w3.org/2000/svg" xmlns:xlink="http://www.w3.org/1999/xlink" x="0px" y="0px"
	 width="189px" height="189px" viewBox="0 0 189 189" enable-background="new 0 0 189 189" xml:space="preserve">
<path fill="#C5C5C5" d="M94.5,0C42.309,0,0,42.309,0,94.5C0,146.691,42.309,189,94.5,189c52.191,0,94.5-42.309,94.5-94.5
	C189,42.309,146.691,0,94.5,0z M142.036,108H108v34.036c0,7.797-6.204,14.116-14,14.116c-7.796,0-14-6.319-14-14.116V108H46.964
	c-7.796,0-14.117-5.704-14.117-13.5S39.168,81,46.964,81H80V46.964c0-7.796,6.204-14.117,14-14.117c7.796,0,14,6.32,14,14.117V81
	h34.036c7.797,0,14.116,5.704,14.116,13.5S149.833,108,142.036,108z"/>
</svg>
