<?xml version="1.0" encoding="utf-8"?>
<!-- Generator: Adobe Illustrator 17.1.0, SVG Export Plug-In . SVG Version: 6.00 Build 0)  -->
<!DOCTYPE svg PUBLIC "-//W3C//DTD SVG 1.1//EN" "http://www.w3.org/Graphics/SVG/1.1/DTD/svg11.dtd">
<svg version="1.1" id="Layer_1" xmlns="http://www.w3.org/2000/svg" xmlns:xlink="http://www.w3.org/1999/xlink" x="0px" y="0px"
	 viewBox="0 0 115.5 81.6" enable-background="new 0 0 115.5 81.6" xml:space="preserve">
<path fill="#FFFFFF" d="M113.3,14.7c-0.6-3.9-2.2-7.1-4.5-9.3s-5.4-3.7-8.8-3.7c0,0-15.9-1.7-42.6-1.7S14.9,1.7,14.9,1.7
	c-3.5,0-6.6,1.4-8.8,3.7s-3.7,5.1-4.3,9.1C1.1,18.4,0,30.2,0,41s1,22,1.6,26.3c0.6,4.3,2.2,7.1,4.5,9.3s5.4,3.7,8.8,3.7
	c0,0,17.9,1.8,42.6,1.8s42.6-1.8,42.6-1.8c3.5,0,6.6-1.4,8.8-3.7s3.5-5.6,4.2-8.6c1.1-4.4,1.8-12.7,1.8-27S114,18.6,113.3,14.7z
	 M80.7,44.6L47,64.9c-2.8,1.7-6.3-0.3-6.3-3.6V41V20.7c0-3.3,3.6-5.3,6.3-3.6l33.6,20.3C83.4,39.1,83.4,43,80.7,44.6z"/>
</svg>
