<?xml version="1.0" encoding="utf-8"?>
<!-- Generator: Adobe Illustrator 17.1.0, SVG Export Plug-In . SVG Version: 6.00 Build 0)  -->
<!DOCTYPE svg PUBLIC "-//W3C//DTD SVG 1.1//EN" "http://www.w3.org/Graphics/SVG/1.1/DTD/svg11.dtd">
<svg version="1.1" id="Layer_1" xmlns="http://www.w3.org/2000/svg" xmlns:xlink="http://www.w3.org/1999/xlink" x="0px" y="0px"
	 viewBox="0 0 958 179.4" enable-background="new 0 0 958 179.4" xml:space="preserve">
<g>
	<text transform="matrix(1 0 0 1 401.7505 116.5018)" font-family="'Verdana-Bold'" font-size="28.9917">SECRETARIA </text>
	<text transform="matrix(1 0 0 1 618.8085 116.5018)" font-family="'Verdana-Bold'" font-size="28.9917"> </text>
	<text transform="matrix(1 0 0 1 401.7505 150.9393)" font-family="'Verdana-Bold'" font-size="28.9917">DE</text>
	<text transform="matrix(1 0 0 1 445.7715 150.9393)" font-family="'Verdana-Bold'" font-size="28.9917"> </text>
	<text transform="matrix(1 0 0 1 454.5757 150.9393)" font-family="'Verdana-Bold'" font-size="28.9917">EDUCAÇÃO</text>
	<text transform="matrix(1 0 0 1 685.3788 82.1161)" font-family="'Verdana-Bold'" font-size="28.9917">SECRETARIA DE</text>
	<text transform="matrix(1 0 0 1 946.3173 82.1005)" font-family="'Verdana-Bold'" font-size="28.9917"> </text>
	<text transform="matrix(1 0 0 1 685.3876 116.5428)" font-family="'Verdana-Bold'" font-size="28.9917">ESPORTE, LAZER </text>
	<text transform="matrix(1 0 0 1 967.749 116.5428)" font-family="'Verdana-Bold'" font-size="28.9917"> </text>
	<text transform="matrix(1 0 0 1 685.3876 150.9784)" font-family="'Verdana-Bold'" font-size="28.9917">E JUVENTUDE</text>
	<rect x="3.3" y="3.3" fill="#FFFFFF" width="146.4" height="172.8"/>
	<rect x="149.7" y="3.3" fill="#2158A8" width="197" height="172.8"/>
	<g>
		<path fill="#FFFFFF" d="M321.2,146.8L321.2,146.8c0.3-0.6,0.6-1.3,1-1.9c0.3-0.6,0.3-1.9,0.3-3.3s0-2.3-0.3-3.3
			c-0.3-1-0.6-1.6-1-2.3c-0.3-0.6-1-1-1.6-1.3c-0.6-0.3-1.3-0.3-1.9-0.3c-0.6,0-1.3,0-1.9,0.3c-0.6,0.3-1,0.6-1.6,1
			c-0.3,0.6-0.6,1.3-1,2.3c-0.3,1-0.3,1.9-0.3,3.3s0,2.3,0.3,3.3s0.6,1.6,1,2.3c0.3,0.6,1,1,1.6,1c0.6,0.3,1.3,0.3,1.9,0.3
			c0.6,0,1.3,0,1.9-0.3C320.6,147.8,320.9,147.1,321.2,146.8 M330.4,141.1c0,3.6-1,6.5-3.3,8.8c-2.3,1.9-5.2,3.3-9.2,3.3
			s-6.8-1-9.2-3.3s-3.3-4.9-3.3-8.8c0-3.6,1-6.5,3.3-8.8c2.3-1.9,5.2-3.3,9.2-3.3s6.8,1,9.2,3.3
			C329.1,134.6,330.4,137.6,330.4,141.1 M304,137h-0.6c-0.3,0-0.6-0.3-1.6-0.3c-0.6,0-1.3,0-1.6,0c-1,0-1.9,0-2.6,0.3
			c-0.6,0-1.6,0.3-2.6,0.6v15.1h-7.1v-22.5h7.1v3.3c1.6-1.3,3-2.3,4.3-2.6c1.3-0.3,2.3-0.6,3.3-0.6c0.3,0,0.6,0,1,0c0.4,0,0.6,0,1,0
			v6.8L304,137L304,137z M282.1,126.9L282.1,126.9h-7.4v-5.5h7.4V126.9z M282.1,152.6H275V130h7.1V152.6z M262.2,138.3L262.2,138.3
			c0-1.6-0.3-2.6-1-3.3c-0.6-0.6-1.9-1-3.3-1c-1.3,0-2.6,0.3-3.3,1c-1,0.6-1.3,1.9-1.6,3.6h9.2V138.3L262.2,138.3z M269.4,142.5H253
			c0,1.6,0.6,3.3,1.9,4c1.3,1,3,1.3,5.5,1.3c1.6,0,3-0.3,4.6-1c1.6-0.6,2.6-1,3.3-1.6h0.6v5.8c-1.6,0.6-3.3,1-4.6,1.3
			s-3,0.3-4.9,0.3c-4.6,0-7.8-1-10.4-3c-2.3-1.9-3.6-4.9-3.6-8.8c0-3.6,1-6.5,3.3-8.8s5.5-3.3,9.5-3.3c3.6,0,6.5,1,8.2,3
			c1.9,1.9,2.6,4.6,2.6,7.8v3h0.3V142.5z M241,152.6h-7.1v-11.1c0-1,0-1.9,0-2.6c0-1-0.3-1.6-0.3-1.9c-0.3-0.6-0.6-1-1.3-1
			c-0.6-0.3-1.3-0.3-2.3-0.3c-0.6,0-1.3,0-1.9,0.3c-0.6,0.3-1.3,0.6-2.3,1v16h-7.1v-22.5h7.1v2.6c1.3-1,2.6-1.6,3.6-2.3
			c1.3-0.6,2.6-0.6,4-0.6c2.3,0,4.3,0.6,5.5,1.9c1.3,1.3,1.9,3.6,1.9,6.1v14.4L241,152.6L241,152.6z M205.5,150L205.5,150
			c-0.3,0.3-1,0.6-1.3,1c-0.6,0.3-1,0.6-1.6,1c-0.6,0.3-1.3,0.6-2.3,0.6c-0.6,0-1.6,0.3-2.6,0.3c-2.3,0-4-0.6-5.2-1.9
			c-1.2-1.3-2.3-3-2.3-4.9c0-1.6,0.3-3,1-4c0.6-1,1.6-1.9,3.3-2.6c1.3-0.6,3-1,4.9-1.3c1.9-0.3,4-0.3,6.1-0.6l0,0
			c0-1.3-0.6-1.9-1.6-2.6c-1-0.3-2.6-0.6-4.6-0.6c-1.3,0-2.6,0.3-4,0.6c-1.3,0.3-2.3,0.6-3,1h-0.3v-5.5c0.6-0.3,1.9-0.3,3.6-0.6
			c1.6-0.3,3.6-0.3,5.2-0.3c4.3,0,7.1,0.6,8.8,1.9c1.9,1.3,2.6,3.3,2.6,5.8v15.4h-7V150H205.5L205.5,150z M205.5,146.8v-4.6
			c-1,0-1.9,0.3-3.3,0.3c-1,0-1.9,0.3-2.6,0.3c-0.6,0.3-1.3,0.6-1.6,1c-0.3,0.3-0.6,1-0.6,1.6c0,0.3,0,1,0,1c0,0.3,0.3,0.6,0.6,1
			c0.3,0.3,0.6,0.3,1,0.6c0.3,0,1,0.3,1.9,0.3c0.6,0,1.3,0,2.3-0.3C204.1,147.4,204.8,147.1,205.5,146.8 M185.9,143.8
			c0,1.3-0.3,2.6-0.6,3.6c-0.3,0.9-1.3,1.9-1.9,3c-1,1-2.3,1.6-3.6,1.9c-1.3,0.3-3,0.6-5.2,0.6c-1.3,0-2.6,0-4,0s-2.3-0.3-3.3-0.3
			v-5.8h0.6c0.6,0.3,1.3,0.3,1.9,0.6c0.6,0.3,1.6,0.3,2.6,0.3c1.3,0,2.6-0.3,3.3-0.6c0.6-0.3,1.3-1,1.6-1.6c0.3-0.6,0.3-1.3,0.6-2.3
			c0-0.6,0-1.6,0-3v-11.7h-6.8v-5.5h14.4v20.9H185.9L185.9,143.8z M290.2,101.7L290.2,101.7c0-1.6-0.3-2.6-1-3.3
			c-0.6-0.6-1.9-1-3.3-1c-1.3,0-2.6,0.3-3.3,1c-1,0.6-1.3,1.9-1.6,3.6h9.2L290.2,101.7L290.2,101.7z M297.4,106h-16.3
			c0,1.6,0.6,3.3,1.9,4c1.3,1,3,1.3,5.5,1.3c1.6,0,3-0.3,4.6-1c1.3-0.6,2.6-1,3.3-1.6h0.6v5.8c-1.6,0.6-3.3,1-4.6,1.3
			c-1.3,0.3-3,0.3-4.9,0.3c-4.6,0-7.8-1-10.4-3c-2.3-1.9-3.6-4.9-3.6-8.8c0-3.6,1-6.5,3.3-8.8c2.3-2.3,5.5-3.3,9.5-3.3
			c3.6,0,6.5,1,8.2,3c1.9,1.9,2.6,4.6,2.6,7.8v3h0.3V106z M262.2,109.6L262.2,109.6V98.4c-0.6-0.3-1-0.3-1.6-0.3c-0.6,0-1,0-1.6,0
			c-1.9,0-3.3,0.6-4.3,1.6c-1,1.3-1.3,3-1.3,4.9c0,2.3,0.3,4,1,4.9c0.6,1,1.9,1.6,3.6,1.6c0.6,0,1.3,0,1.9-0.3
			C260.9,110.2,261.6,109.9,262.2,109.6 M269.4,115.8h-7.1v-2.3c-1.3,1-2.3,1.6-3.6,2.3c-1,0.3-2.3,0.6-3.6,0.6
			c-2.6,0-4.9-1-6.5-3.3c-1.6-1.9-2.6-4.9-2.6-8.5c0-1.9,0.3-3.6,1-4.9c0.6-1.6,1.3-2.6,2.3-4c1-1,1.9-1.6,3.3-2.3
			c1.3-0.6,2.6-1,4-1c1.3,0,2.3,0,3.3,0.3c1,0.3,1.6,0.6,2.6,1v-9.1h7.1L269.4,115.8L269.4,115.8L269.4,115.8z M226,109.9L226,109.9
			c0.3-0.6,0.6-1.3,1-1.9c0.3-0.6,0.3-1.9,0.3-3.3c0-1.3,0-2.3-0.3-3.3c-0.3-1-0.6-1.6-1-2.3c-0.3-0.6-1-1-1.6-1.3c-0.3,0-1,0-1.6,0
			c-0.6,0-1.3,0-1.9,0.3c-0.6,0.3-1,0.6-1.6,1c-0.3,0.6-0.6,1.3-1,2.3c-0.3,1-0.3,1.9-0.3,3.3c0,1.3,0,2.3,0.3,3.3
			c0.3,0.9,0.6,1.6,1,2.3c0.3,0.6,1,1,1.6,1c0.6,0.3,1.3,0.3,1.9,0.3s1.3,0,1.9-0.3C225.3,110.9,225.6,110.5,226,109.9 M235.1,104.7
			c0,3.6-1,6.5-3.3,8.8c-2.3,1.9-5.2,3.3-9.2,3.3s-6.8-1-9.2-3.3c-2.3-2.3-3.3-4.9-3.3-8.8c0-3.6,1-6.5,3.3-8.8
			c2.3-1.9,5.2-3.3,9.2-3.3s6.8,1,9.2,3.3C233.8,97.8,235.1,100.7,235.1,104.7 M206.1,90.3L206.1,90.3h-7.4v-5.5h7.4V90.3z
			 M205.8,115.8h-7.1V93.2h7.1V115.8z M196.4,115.8L196.4,115.8h-9.5l-8.2-10.8h-3.6v10.8h-7.4V86.1h12.7c1.6,0,3.3,0,4.6,0.3
			c1.3,0.3,2.6,0.6,3.6,1.3c1,0.6,1.9,1.6,2.6,2.6c0.6,1,1,2.3,1,4c0,2.3-0.6,4-1.6,5.2c-1,1.2-2.6,2.6-4.3,3.6L196.4,115.8z
			 M184.3,95.2c0-0.6,0-1.3-0.3-1.9c-0.3-0.6-1-1-1.6-1.3s-1-0.3-1.9-0.3c-0.6,0-1.6,0-2.3,0h-3v8.2h2.3c1.3,0,2.3,0,3-0.3
			c1,0,1.6-0.3,1.9-1c0.6-0.3,1-1,1.3-1.3C184.3,96.5,184.3,95.9,184.3,95.2 M324.9,74.7L324.9,74.7c0.3-0.3,0.6-1,1-1.6
			c0.3-0.6,0.3-1.3,0.3-2.3c0-1,0-1.6-0.3-2.3c-0.3-0.6-0.6-1.3-1-1.6c-0.3-0.3-0.6-0.6-1.3-1c-0.3-0.3-1-0.3-1.3-0.3
			c-0.6,0-1,0-1.3,0.3c-0.3,0.3-1,0.3-1.3,1c-0.3,0.3-0.6,1-1,1.6c-0.3,0.6-0.3,1.6-0.3,2.3c0,1,0,1.6,0.3,2.3
			c0.3,0.6,0.6,1.3,1,1.6c0.3,0.3,0.6,0.6,1.3,1c0.3,0.3,1,0.3,1.6,0.3s1,0,1.6-0.3C324.2,75.6,324.5,75.3,324.9,74.7 M330.4,70.7
			c0,2.6-0.6,4.6-2.3,5.8c-1.3,1.6-3.6,2.3-5.8,2.3c-2.6,0-4.6-0.6-5.8-2.3c-1.3-1.6-2.3-3.6-2.3-5.8c0-2.6,0.6-4.6,2.3-5.8
			c1.3-1.6,3.6-2.3,5.8-2.3c2.6,0,4.6,0.6,5.8,2.3C329.4,66.2,330.4,68.2,330.4,70.7 M307.2,70.7L307.2,70.7c0-1-0.3-1.9-0.6-2.6
			c-0.3-0.6-1-1.3-1.6-1.6c-0.3-0.3-1-0.3-1.3-0.3s-1,0-1.9,0h-1v9.8h1c1,0,1.6,0,2.3,0c0.3,0,1-0.3,1.3-0.3c0.6-0.3,1.3-1,1.6-1.6
			C307.2,72.7,307.2,71.7,307.2,70.7 M311.4,70.7c0,1.6-0.3,3-1,4c-0.6,1.3-1.6,1.9-2.6,2.6c-0.6,0.3-1.6,0.6-2.6,1
			c-1,0.3-1.9,0.3-3.3,0.3h-5.5V63.1h5.8c1.3,0,2.3,0,3.3,0.3c1,0.3,1.6,0.6,2.3,1c1,0.6,1.9,1.6,2.6,2.6
			C311.1,67.9,311.4,69.1,311.4,70.7 M280.8,74.7L280.8,74.7c0.3-0.3,0.6-1,1-1.6c0.3-0.6,0.3-1.3,0.3-2.3c0-1,0-1.6-0.3-2.3
			c-0.3-0.6-0.6-1.3-1-1.6c-0.3-0.3-0.6-0.6-1.3-1c-0.3-0.3-1-0.3-1.3-0.3c-0.6,0-1,0-1.3,0.3c-0.3,0.3-1,0.3-1.3,1
			c-0.3,0.3-0.6,1-1,1.6c-0.3,0.6-0.3,1.6-0.3,2.3c0,1,0,1.6,0.3,2.3c0.3,0.6,0.6,1.3,1,1.6c0.3,0.3,0.6,0.6,1.3,1
			c0.3,0.3,1,0.3,1.6,0.3s1,0,1.6-0.3C279.8,75.6,280.5,75.3,280.8,74.7 M286,70.7c0,2.6-0.6,4.6-2.3,5.8c-1.3,1.6-3.6,2.3-5.8,2.3
			c-2.6,0-4.6-0.6-5.8-2.3c-1.3-1.6-2.3-3.6-2.3-5.8c0-2.6,0.6-4.6,2.3-5.8c1.3-1.6,3.6-2.3,5.8-2.3c2.6,0,4.6,0.6,5.8,2.3
			C285.4,66.2,286,68.2,286,70.7 M266.8,78.6h-4L256,67.8v10.8h-3.6V63h4.9l5.8,9.2V63h3.6L266.8,78.6L266.8,78.6z M250.8,78.6
			L250.8,78.6h-4.9l-4.3-5.8h-1.9v5.8h-4V63h6.8c1,0,1.6,0,2.3,0c0.7,0,1.3,0.3,1.9,0.6c0.6,0.3,1,0.6,1.3,1.3
			c0.3,0.7,0.6,1.3,0.6,1.9c0,1.3-0.3,1.9-1,3c-0.6,0.6-1.3,1.3-2.3,1.9L250.8,78.6z M244.3,67.9c0-0.3,0-0.6-0.3-1
			c0-0.3-0.3-0.6-1-0.6c-0.3,0-0.6-0.3-1-0.3c-0.3,0-0.6,0-1.3,0H239v4.3h1.9c0.6,0,1.3,0,1.6,0s0.6-0.3,1-0.3
			c0.3-0.3,0.3-0.3,0.6-0.6C244.3,68.4,244.3,68.2,244.3,67.9 M231.9,78.6h-11.4V63h11.4v3h-7.4v2.6h6.8v3.3h-6.8v4h7.4V78.6
			L231.9,78.6z M217.9,62.9l-5.8,15.6h-4.6L202,62.9h4.3l4,11.1l4-11.1H217.9z M195.7,74.7L195.7,74.7c0.3-0.3,0.6-1,1-1.6
			c0.3-0.6,0.3-1.3,0.3-2.3c0-1,0-1.6-0.3-2.3c-0.3-0.6-0.6-1.3-1-1.6c-0.3-0.3-0.6-0.6-1.3-1c-0.3-0.3-1-0.3-1.3-0.3
			c-0.6,0-1,0-1.3,0.3c-0.3,0.3-1,0.3-1.3,1c-0.3,0.3-0.6,1-1,1.6C189,69,189,70,189,70.7c0,1,0,1.6,0.3,2.3c0.3,0.6,0.6,1.3,1,1.6
			c0.3,0.3,0.6,0.6,1.3,1c0.3,0.3,1,0.3,1.6,0.3c0.6,0,1,0,1.6-0.3C194.6,75.6,195.4,75.3,195.7,74.7 M201,70.7
			c0,2.6-0.6,4.6-2.3,5.8c-1.3,1.6-3.6,2.3-5.8,2.3c-2.6,0-4.6-0.6-5.8-2.3c-1.3-1.6-2.3-3.6-2.3-5.8c0-2.6,0.6-4.6,2.3-5.8
			c1.3-1.6,3.6-2.3,5.8-2.3c2.6,0,4.6,0.6,5.8,2.3C200.3,66.2,201,68.2,201,70.7 M181.6,78c-0.6,0.3-1.6,0.6-3,1s-2.3,0.3-3.6,0.3
			c-2.6,0-4.9-0.6-6.1-2.3c-1.6-1.3-2.3-3.6-2.3-6.1c0-2.5,0.6-4.6,2.3-5.8c1.6-1.6,3.6-2.3,6.5-2.3c1,0,1.9,0,3,0.3
			c1,0.3,1.9,0.6,3.3,1v3.6h-0.3c-0.3,0-0.3-0.3-1-0.6c-0.3-0.3-0.6-0.6-1-0.6c-0.3-0.3-1-0.3-1.3-0.6c-0.6,0-1-0.3-1.6-0.3
			c-0.6,0-1.3,0-1.9,0.3c-0.6,0.3-1,0.6-1.6,1c-0.3,0.3-0.6,1-1,1.6c-0.3,0.6-0.3,1.3-0.3,2.3c0,1.6,0.3,3,1.3,4
			c1,1,2.3,1.3,4.3,1.3c0,0,0.3,0,0.6,0c0.3,0,0.3,0,0.6,0v-3h-3.3v-3h7.1v8.2L181.6,78L181.6,78L181.6,78z"/>
	</g>
	<path d="M3.3,3.3h343.4v172.8H3.3V3.3z M0,179.4h349.9V0H0V179.4z"/>
	<g>
		<path fill="#2158A8" d="M37.2,88.1c0-30.4,17.9-54.8,40.1-54.8s40.1,24.5,40.1,54.8s-17.9,54.8-40.1,54.8S37.2,118.4,37.2,88.1"/>
		<path fill="#128652" d="M110.9,114.8H43.7c-2.6-6.5-4.6-14.1-4.9-22.2h77C115.5,100.7,113.5,107.9,110.9,114.8"/>
		<path fill="#7A7F80" d="M115.8,92.6H38.8c0-1.6,0-3,0-4.6c0-4.6,0.3-8.8,1.3-13l8.8,3.3c2.3,0,3.3-3.3,3.3-3.3l8.2-15.6
			c4-8.5,6.8-3.3,6.8-3.3s1.3-1.3,3-2.3c2.3-1.3,4,1.6,4,1.6s0.3-1.9,4-2.6c0.6,0,2.6-12.4,2.6-12.4s0.3-4.6,2.3-5.8
			c1,0,1.6,0.3,2.6,0.6c1.3,1.3,1.3,3.6,1.3,3.6l1.3,24.2h7.1l10.8-12.7c6.8,9.8,11.1,22.8,11.1,37.5
			C115.8,89.7,115.8,90.9,115.8,92.6"/>
		<path fill="#FFFFFF" d="M99.5,76.6L99.5,76.6l-1,1.3l-2.3-1.3H99.5z M78,90l1,2.3h-0.3c-1,0-1.6,0-2.6,0h-0.3l1-2.6
			c0,0,0-0.6,0.6-1.3l0,0l0,0c1-1.6,2.6-4,7.1-5.5c1-0.3,3-1.3,7.8-2.6c5.2-1.3,9.5-0.6,9.5-0.6s0.3-1.9-0.3-2.6
			c-0.3-0.3-1.6-0.6-1.6-0.6S99.6,75,98.5,75l-8.5-1l0.6-1c0,0,7.8,0.6,14.4-3.3h-4.6c-0.3,0-0.6-0.3-0.6-0.6c0-0.3,0.3-0.6,0.6-0.6
			h6.1c0.6-0.6,1.6-1.3,2.3-1.9H98.9c-0.3,0-0.6-0.3-0.6-0.6c0-0.3,0.3-0.6,0.6-0.6h10.9c0.6-0.6,1-1.6,1.3-2.3l0,0H89.6
			c-4.3-0.3-7.4,1.6-9.2,5.2l-3.3,5.2l-3.3-5.2c-1.9-3.6-5.2-5.5-9.2-5.2H43.3c0.3,1,1,1.6,1.3,2.6h11.1c0.3,0,0.6,0.3,0.6,0.6
			c0,0.3-0.3,0.6-0.6,0.6H45.7c0.6,0.6,1.3,1.3,2.3,1.9h6.5c0.3,0,0.6,0.3,0.6,0.6c0,0.3-0.3,0.6-0.6,0.6h-4.6
			c6.1,4,13.8,3.3,13.8,3.3s0.6,3,2.6,5.8c2.3,3.3,4.9,4.6,4.9,4.6l0,0l1,0.3c0.3,0,0.3,0.6,0.3,1c0,0.3-0.6,0.3-1,0.3l-1.3-0.6
			c-1,1.3-2.6,3-2.3,3.6h5.8l1,4.3H38.8c0,0.3,0,1,0,1.3h31c-7.8,3-13.8,9.8-14.7,18.5c-1.3,12.1,7.8,23.1,19.9,24.5
			S98.1,129,99.5,117c1-10.4-5.2-19.9-14.7-23.1h31c0-0.3,0-1,0-1.3H79.9l1.3-4.6H87c0-0.6-1.6-2.6-2.6-4C78.9,86.4,78,89.7,78,90"
			/>
		<path fill="#2158A8" d="M91,113.4L91,113.4c-3.6,0-15.1,1.3-22.5,11.4l-0.3,0.3c2.3,1.9,5.5,3.3,9.2,3.3c7.4,0,13.8-6.1,13.8-13.8
			C91,114.1,91,113.8,91,113.4 M77.4,100.7l1,3h3l-2.3,1.9l1,3h0.2c4-1.3,7.1-1.3,8.5-1.3C86.1,103,81.8,100.7,77.4,100.7
			 M63.3,114.4c0-7.4,6.1-13.8,13.8-13.8l-1,3h-3l2.3,1.9l-0.6,2.6l2.6-1.6l2.6,1.6c-4.6,1.3-10.8,4.6-15.6,10.8
			C63.6,117.7,63.3,116.1,63.3,114.4"/>
		<path fill="#7A7F80" d="M93.2,110.5l3.3-1.3l-0.3-1h-1.9l1.3-1.3l-0.3-1l-3.3,1.3l0.3,0.6l2.3-1l-1.3,1.3l0.3,0.6h1.6l-2.3,1
			L93.2,110.5z M92.9,120.1c0-0.3,0-0.3,0-0.6c0-0.3,0-0.6,0-0.6c0-0.6,0.3-1,1-1.3c0.6-0.3,1-0.3,1.3-0.3c0.6,0,1,0.3,1.3,1
			c0.3,0.3,0.3,1,0,1.6c0,0.3,0,0.3-0.3,0.6c0,0.3-0.3,0.3-0.3,0.6l-0.6-0.3l0,0c0,0,0,0,0.3,0c0.3,0,0,0,0.3-0.3c0,0,0-0.3,0.3-0.3
			v-0.3v-0.3v-0.3l-0.3-0.3c0,0-0.3,0-0.3-0.3c-0.3,0-0.6,0-1,0c-0.3,0-0.3,0.3-0.6,1l0,0l0,0l0.6,0.3l0.3-0.6h0.6l-0.3,1.6
			L92.9,120.1z M91.3,123.2l0.6,0.3l0.6-1.6l0.6,0.3l-0.6,1.6l0.6,0.3l0.6-1.3l0.6,0.3l-0.6,1.6l0.6,0.3l1.3-2.3l-3.3-1.6
			L91.3,123.2z M88.4,126.9L88.4,126.9l0.6-1h1.6l0.3-0.3l-1-1l0.6-0.6l2.6,2.3l-1,1.3l-0.3,0.3l-0.3,0.3h-0.3c0,0-0.3,0-0.3-0.3
			c-0.3-0.3-0.3-0.3-0.3-0.6c0-0.3,0-0.3,0-0.6L88.4,126.9z M91.3,127.5L91.3,127.5c0.3,0,0.3,0,0.3,0s0,0,0.3,0c0,0,0,0,0.3-0.3
			l0.3-0.3l-0.6-0.6l-0.3,0.3l-0.3,0.3v0.3C91,127.2,91,127.2,91.3,127.5C91,127.2,91.3,127.2,91.3,127.5 M85.8,128.8l0.3,0.6l1.3-1
			l0.6,0.6l-1.3,1l0.3,0.6l1.3-1l0.3,0.6l-1.3,1l0.3,0.6l1.9-1.6l-1.6-3.3L85.8,128.8z M81.8,130.4L81.8,130.4l1-0.3l1.3,1h0.3
			l-0.6-1.3l1-0.3l1.3,3.3l-1.3,0.6c-0.3,0-0.3,0-0.6,0.3H84c0,0-0.3,0-0.3-0.3l-0.3-0.3c0-0.3,0-0.3,0-0.6s0-0.3,0.3-0.6
			L81.8,130.4z M83.9,132.4C84.2,132.4,84.2,132.7,83.9,132.4c0.3,0.3,0.3,0.3,0.3,0.3s0,0,0.3,0h0.3h0.3l-0.3-1h-0.3h-0.3
			c0,0,0,0-0.3,0.3C83.9,132.1,83.9,132.1,83.9,132.4L83.9,132.4 M78.6,131.1l2.6-0.3l0.6,3.6l-2.6,0.3V134l1.6-0.3v-0.6l-1.6,0.3
			v-0.6l1.6-0.3v-1l-1.6,0.3L78.6,131.1z M68.8,128.8l0.3,1.9c-0.3,0-0.3,0-0.6,0.3c-0.3,0-0.3,0.3-0.3,0.6s0,0.3,0,0.3v0.3l0.3,0.3
			l0.3,0.3l1.3,0.6l1.3-3.3l-1-0.3l-0.6,1.3l-0.3-0.3l-0.3-1.6L68.8,128.8z M69.1,131.7L69.1,131.7c0,0.3,0,0.3,0,0.3s0,0,0.3,0
			c0,0,0,0,0.3,0H70l0.3-1H70h-0.3h-0.3C69.5,131.1,69.1,131.4,69.1,131.7C69.1,131.4,69.1,131.4,69.1,131.7 M66.2,126.9l1.9,1.6
			l-2.2,3l-1.9-1.6l0.3-0.6l1.3,1l0.3-0.3l-1-1.3l0.3-0.6l1.3,1l0.6-0.6l-1.3-1L66.2,126.9z M64.6,124.5
			C64.3,124.5,64.3,124.5,64.6,124.5c-0.3-0.3-0.3-0.3-0.6-0.6c0,0,0,0-0.3,0c0,0,0,0-0.3,0l-0.6,0.6l0,0c0,0,0,0,0.3,0h0.3h0.3
			c0,0,0.3,0,0.3,0.3c0,0,0,0.3,0.3,0.3v0.3v0.3l-0.3,0.3c-0.3,0-0.3,0.3-0.3,0.3h-0.3h-0.3c0,0-0.3,0-0.3-0.3c0,0,0-0.3-0.3-0.3
			v-0.3v-0.3c0,0,0,0,0-0.3l0,0l-0.6,0.6c0,0,0,0,0,0.3v0.3v0.3c0,0,0,0.3,0.3,0.3c0.3,0.3,0.3,0.3,0.6,0.6c0.3,0,0.3,0.3,0.6,0.3
			s0.3,0,0.6,0s0.3-0.3,0.6-0.3c0.3-0.3,0.3-0.3,0.6-0.6c0-0.3,0.3-0.3,0.3-0.6c0-0.3,0-0.3,0-0.6C64.9,125.2,64.6,124.8,64.6,124.5
			 M59.3,121.6l0.6,1l2.6-1.3l0.3,1l-2.6,1.3l0.6,1l-0.6,0.3l-1.3-3L59.3,121.6z M61,117.1l0.6,2.6l-3.6,0.6l-0.6-2.6h0.6l0.3,1.6
			H59l-0.3-1.6h0.6l0.3,1.6l1-0.3l-0.3-1.6L61,117.1z M62.7,107.3L62.7,107.3l-0.3,1l-1.6,0.3v0.3l1.3,0.3l-0.3,1l-3.3-1.3l0.6-1.3
			c0-0.3,0-0.3,0.3-0.6l0.3-0.3l0.3-0.3c0,0,0.3,0,0.6,0c0.3,0,0.3,0.3,0.6,0.3c0,0.3,0.3,0.3,0.3,0.6H62.7z M59.7,107.6L59.7,107.6
			c-0.3,0-0.3,0-0.3,0s0,0,0,0.3v0.3v0.3l1,0.3v-0.3v-0.3C60.3,108.3,60.3,107.9,59.7,107.6C60,107.9,60,107.9,59.7,107.6
			C60,107.6,60,107.6,59.7,107.6 M64.6,104.4l-1.3,2.3l-3-1.9l1.3-2.3l0.6,0.3l-1.3,1.6l0.6,0.3l1-1.3l0.6,0.3l-1,1.3l0.6,0.3l1-1.3
			L64.6,104.4z M68.2,101.1l-2.3-2.6l-1,0.6l0.6,1.9l-1.6-1l-1,1l2.3,2.6l0.6-0.6l-1.6-1.9l1.6,0.6l0.3-0.3l-0.6-1.6l1.6,1.9
			L68.2,101.1z M69.5,97.5L69.5,97.5L69.5,97.5c-0.3-0.3-0.3-0.3-0.3-0.3h-0.3h-0.3l0,0l0.3,1h0.3c0,0,0.3,0,0.3-0.3
			c0,0,0,0,0.3-0.3C69.8,97.8,69.8,97.8,69.5,97.5C69.8,97.8,69.8,97.5,69.5,97.5 M70.4,97.2v0.3v0.3c0,0.3,0,0.3-0.3,0.6
			c0,0-0.3,0.3-0.6,0.3l-0.6,0.3l0.6,1l-1,0.3l-1.6-3.3l1.3-0.6c0.3,0,0.3-0.3,0.6-0.3h0.3c0.3,0,0.3,0,0.3,0.3
			C70.1,96.8,70.4,96.8,70.4,97.2 M75.4,97.2c0,0.3,0,0.6-0.3,1c-0.3,0.3-0.6,0.3-1,0.6c-0.6,0-1,0-1.3,0c-0.3-0.3-0.6-0.3-0.6-1
			l-0.3-2.3l1-0.3l0.3,2.3c0,0.3,0,0.3,0.3,0.6c0,0,0.3,0,0.6,0c0.3,0,0.3,0,0.3-0.3c0,0,0-0.3,0-0.6l-0.3-2.3l1-0.3L75.4,97.2z
			 M78.9,97.2L78.9,97.2C78.9,97.2,78.6,97.2,78.9,97.2c0-0.3-0.3-0.3-0.3-0.3h-0.3H78h-0.3v1l0,0c0.3,0,0.3,0,0.6,0h0.3
			C78.6,97.5,78.6,97.5,78.9,97.2C78.6,97.5,78.9,97.5,78.9,97.2 M78.6,95.9L78.6,95.9L78.6,95.9C78.6,95.6,78.6,95.6,78.6,95.9
			c-0.3-0.3-0.3-0.3-0.3-0.3H78l0,0v0.6l0,0h0.3h0.3C78.6,96.2,78.6,96.2,78.6,95.9L78.6,95.9 M79.6,97.5c0,0.3,0,0.3,0,0.3
			l-0.3,0.3L79,98.4c-0.3,0-0.3,0-0.6,0h-1.6v-3.6h1.3c0.3,0,0.6,0,0.6,0H79l0.3,0.3v0.3c0,0.3,0,0.3,0,0.3L79,96.1l0,0
			c0.3,0,0.3,0,0.6,0.3C79.6,96.8,79.6,97.2,79.6,97.5 M83.2,99.5l-2.6-0.6l1-3.6l1,0.3l-0.6,3l1.6,0.3L83.2,99.5z M85.8,100.7
			l-1.9-1l0.3-0.6l0.6,0.3l1-1.9l-0.6-0.3l0.3-0.6l1.9,1l-0.3,0.6l-0.6-0.3l-1,1.9l0.6,0.3L85.8,100.7z M87.7,102l0.3,0.3h0.3h0.3
			H89l0.6-0.6l0,0c0,0,0,0-0.3,0H89h-0.3h-0.3c0,0-0.3,0-0.3-0.3v-0.3v-0.3c0,0,0-0.3,0.3-0.6c0-0.3,0.3-0.3,0.3-0.3H89h0.4
			c0,0,0.3,0,0.3,0.3c0,0,0.3,0,0.3,0.3v0.3v0.3c0,0,0,0,0,0.3l0,0l0.6-0.6c0,0,0,0,0-0.3c0,0,0-0.3-0.3-0.3c0,0,0-0.3-0.3-0.3
			l-0.3-0.3c-0.3-0.3-0.3-0.3-0.6-0.3c-0.3,0-0.3,0-0.6,0c-0.3,0-0.3,0-0.6,0.3c-0.3,0-0.3,0.3-0.6,0.6c-0.3,0.3-0.3,0.3-0.3,0.6
			c0,0.3,0,0.3,0,0.6c0,0.3,0,0.3,0.3,0.6C87.4,101.7,87.4,102,87.7,102 M91.6,104.4L91.6,104.4l0.6-1h-1.3L91.6,104.4z M91.3,106.3
			l-0.6-0.6l0.3-0.6l-1-1l-0.6,0.3l-0.6-0.6l3.6-1.3l0.6,1L91.3,106.3z M90.3,111.5h-1.9v-0.3l0.3-0.3l0.3-0.3l0.3-0.3V110v-0.3H89
			h-0.3c0,0-0.3,0-0.3,0.3l0,0v-0.6h0.3H89c0.3,0,0.6,0,0.6,0s0.3,0.3,0.3,0.6s0,0.3,0,0.6c0,0.3-0.3,0.3-0.3,0.6l-0.3,0.3
			c0,0-0.3,0-0.3,0.3h1.3V111.5z M86.8,110.2L86.8,110.2v-0.3c0,0,0,0,0-0.3l0,0l0,0l0,0l0,0c0,0,0,0,0,0.3
			C86.8,109.9,86.8,109.9,86.8,110.2c0,0,0,0,0,0.3l0,0l0,0C86.4,110.5,86.4,110.5,86.8,110.2C86.4,110.5,86.4,110.5,86.8,110.2
			C86.8,110.5,86.8,110.2,86.8,110.2L86.8,110.2L86.8,110.2 M87.4,110.2c0,0.3,0,0.3,0,0.6c0,0.3,0,0.3-0.3,0.6
			c0,0.3-0.3,0.3-0.3,0.3c-0.3,0-0.3,0.3-0.6,0.3h-0.3h-0.3v-0.6l0,0l0,0c0,0,0,0,0.3,0h0.3c0,0,0,0,0.3,0c0,0,0,0,0-0.3v-0.3
			c0,0-0.3,0-0.3,0.3h-0.3h-0.3h-0.3c0,0-0.3,0-0.3-0.3v-0.3c0-0.3,0-0.6,0.3-0.6c0-0.3,0.3-0.3,0.6-0.3h0.3h0.3l0.3,0.3
			C87.4,109.9,87.4,109.9,87.4,110.2 M84.5,111.5L84.5,111.5L84.5,111.5c0-0.3-0.3-0.3-0.3-0.3s0,0-0.3,0c0,0,0,0-0.3,0
			c0,0,0,0,0,0.3c0,0,0,0,0,0.3c0,0,0,0.3,0.3,0.3h0.3l0,0C84.2,111.8,84.2,111.8,84.5,111.5C84.5,111.8,84.5,111.8,84.5,111.5
			L84.5,111.5 M84.2,110.2L84.2,110.2L84.2,110.2c-0.3-0.3-0.3-0.3-0.3-0.3l0,0l0,0l0,0l0,0l0,0c0,0,0,0,0.3,0l0,0c0,0,0,0,0.3,0
			C84.2,110.5,84.2,110.5,84.2,110.2C84.2,110.5,84.2,110.2,84.2,110.2 M85.2,111.5c0,0.3,0,0.3,0,0.6c0,0.3-0.3,0.3-0.6,0.3
			c-0.3,0-0.3,0-0.6,0h-0.3c0,0-0.3,0-0.3-0.3v-0.3v-0.3c0,0,0-0.3,0.3-0.3l0,0c0,0-0.3,0-0.3-0.3c0,0,0-0.3-0.3-0.3
			c0-0.3,0-0.3,0-0.6s0.3-0.3,0.6-0.3c0.3,0,0.6,0,0.6,0c0.3,0,0.3,0.3,0.3,0.3v0.3c0,0,0,0.3-0.3,0.3l0,0c0.3,0,0.3,0,0.3,0.3
			C84.8,111.2,85.2,111.2,85.2,111.5 M82.5,112.8l-1.6,0.6v-0.3h0.6l-0.3-1.3l-0.6,0.3v-0.3c0,0,0,0,0.3,0c0,0,0,0,0.3,0l0,0
			c0,0,0,0,0-0.3l0.6-0.3l0.6,2.3h0.6L82.5,112.8z M79.6,113.8l-1.6,0.6l-1-2.6l0.6-0.3l1,1.9l1-0.6V113.8z M77.4,114.8l-0.3-0.3
			l-0.3,0.3l-1-1.6l0.3-0.3l-0.3-0.3l-1,0.6l0.3,0.3l0.3-0.3l1,1.6l-0.3,0.3l0.3,0.3L77.4,114.8z M75.7,115.8L75.7,115.8l-0.6,0.3
			l-1.3-0.3l-0.3,0.3l0.6,1l-0.6,0.3l-1.6-2.3l1-0.6c0,0,0.3,0,0.3-0.3h0.3h0.3c0,0,0.3,0,0.3,0.3s0,0.3,0,0.6v0.3L75.7,115.8z
			 M73.7,114.4C74.1,114.8,74.1,114.8,73.7,114.4c0,0.3,0,0.3,0,0.3l0,0c0,0,0,0-0.3,0h-0.3l-0.3-0.6h0.3c0,0,0,0,0.3,0
			C73.4,114.4,73.4,114.4,73.7,114.4L73.7,114.4L73.7,114.4 M72.5,117.1L72.5,117.1c0,0.3,0,0.3,0,0.3s0,0,0,0.3c0,0-0.3,0-0.3,0.3
			l0,0l-0.6-1l0,0c0,0,0,0,0.3-0.3c0,0,0,0,0.3,0C72.1,116.8,72.1,116.8,72.5,117.1C72.1,116.8,72.1,116.8,72.5,117.1 M71.4,116.1
			L71.4,116.1C71.4,116.4,71.4,116.4,71.4,116.1c0,0.3,0,0.3,0,0.3s0,0-0.3,0.3l0,0l-0.3-0.3l0,0c0,0,0.3,0,0.3-0.3
			C71.1,116.1,71.1,116.1,71.4,116.1L71.4,116.1L71.4,116.1 M72.8,116.4l-0.3-0.3h-0.4l0,0v-0.3v-0.3c0,0,0,0-0.3-0.3h-0.3h-0.3
			c0,0-0.3,0-0.3,0.3l-0.6,0.6l1.6,2.3l1-0.6l0.3-0.3c0,0,0-0.3,0.3-0.3v-0.3C73.1,116.8,73.1,116.8,72.8,116.4 M69.8,118.7
			L69.8,118.7l-1-0.6l0.3,1L69.8,118.7z M71.4,118.7l-0.6,0.3l-0.6-0.3l-0.6,0.6l0.3,0.6l-0.6,0.6l-1-3l0.6-0.6L71.4,118.7z M67,121
			L67,121C66.5,121,66.5,120.6,67,121c-0.6-0.3-0.6-0.3-0.6-0.3l0,0l0,0l0,0l0,0c0,0,0,0,0,0.3c0,0,0,0,0,0.3c0,0,0,0,0.3,0
			c0,0,0,0,0.3,0l0,0l0,0C67,121.3,67,121.3,67,121L67,121L67,121L67,121 M67.2,120.3c0.3,0,0.3,0.3,0.3,0.6c0,0.3,0.3,0.3,0.3,0.6
			c0,0.3,0,0.3,0,0.6c0,0.3-0.3,0.3-0.3,0.6c0,0,0,0-0.3,0.3l0,0l-0.3-0.3l0,0l0,0c0,0,0,0,0.3-0.3c0,0,0,0,0-0.3v-0.3v-0.3
			c0,0,0-0.3-0.3-0.3v0.3c0,0,0,0.3-0.3,0.3c0,0,0,0-0.3,0.3c0,0,0,0-0.3,0h-0.3c0,0-0.3,0-0.3-0.3c-0.3-0.3-0.3-0.3-0.3-0.6
			c0-0.3,0-0.6,0.3-0.6l0.3-0.3h0.3h0.4C67,120.3,67.2,120.3,67.2,120.3"/>
		<path fill="#128652" d="M107.3,141.1c0.6-0.6,1.3-0.6,1.9-0.3c-1.3-1-2.3-2.6-2.3-4.6c-0.3-2.3,0.3-4.3,1.6-5.5c1.6,1,2.6,3,3,4.9
			c0-0.3,0.3-0.3,0.3-0.6c1-1.3,2.6-2.3,4-2.6c-0.3-0.6-0.3-1.3,0-1.6c0.3-0.6,0.6-0.6,1.3-1c0-0.3,0-0.3,0-0.6
			c-0.6,0.3-1,0.3-1.6,0c-1-0.3-1-1.6-0.6-2.3c0.3-1,1.6-1,2.3-0.6c0.6,0.3,0.6,0.6,1,1.3c0.3,0,0.3,0,0.6,0c-0.3-0.3-0.3-1,0-1.6
			c0.3-0.6,1-1,1.6-1c-1.6-0.6-2.6-1.9-3.6-3.6c-1-1.9-1-4.3,0-5.8c1.6,0.6,3.3,1.9,4.3,4c0-0.3,0-0.6,0.3-0.6c0.6-1.6,1.9-3,3.3-4
			c-0.6-0.6-1-1.3-1-1.9s0.6-1,1-1.3c0,0-0.3-0.3-0.3-0.6c-0.3,0.3-1,0.6-1.6,0.3c-1-0.3-1.6-1.3-1.3-1.9c0.3-1,1.3-1.6,1.9-1.3
			c0.6,0,1,0.6,1.3,1l0.3-0.3c-0.3-0.3-0.3-1-0.3-1.6c0.3-0.6,1-1.3,1.6-1.3c-1.6-0.3-3.3-1.3-4.6-3s-1.6-4-1.6-5.5
			c1.9,0.3,3.6,1.3,4.9,3c0-0.3,0-0.6,0-0.6c0.3-1.6,1-3.3,2.3-4.6c-0.6-0.3-1-1-1-1.6s0.3-1,0.6-1.3l-0.3-0.3
			c-0.3,0.3-1,0.6-1.3,0.6c-1,0-1.6-0.6-1.6-1.6c0-1,0.6-1.6,1.6-1.6c0.6,0,1,0.3,1.3,0.6l0.3-0.3c-0.3-0.3-0.6-1-0.6-1.3
			c0-0.6,0.6-1.3,1.3-1.6c-1.6,0-3.3-0.6-4.9-1.6c-1.6-1.3-2.6-3.3-2.6-5.2c1.9-0.3,4,0.3,5.5,1.6c0-0.3,0-0.6,0-0.6
			c0-1.6,0.3-3.3,1-4.6c-0.6-0.3-1-0.6-1.3-1.3c0-0.6,0-1,0.3-1.6c-0.3,0-0.3-0.3-0.3-0.3c-0.3,0.6-0.6,1-1.3,1
			c-1,0.3-1.9-0.3-1.9-1.3c0-1,0.3-1.9,1.3-1.9c0.6,0,1,0,1.6,0.3c0-0.3,0.3-0.3,0.3-0.3c-0.3-0.3-1-0.6-1-1.3s0-1.3,0.6-1.6
			c-1.6,0.3-3.3,0-4.9-0.6c-1.9-1-3.3-2.6-4-4.6c1.6-0.6,4-0.6,5.8,0.3c0-0.3-0.3-0.6-0.3-0.6c-0.6-1.6-0.6-3.6,0-5.2
			c-0.6,0-1.3-0.3-1.6-1c-0.3-0.6-0.3-1,0-1.6c-0.3,0-0.3,0-0.6-0.3c0,0.6-0.3,1-1,1.3c-1,0.3-1.9,0-2.3-1c-0.3-1,0-1.9,1-2.3
			c0.6-0.3,1-0.3,1.6,0c0-0.3,0-0.3,0.3-0.6c-0.6,0-1-0.3-1.3-1c-0.3-0.6,0-1.3,0.3-1.9c-1.3,0.6-3.3,1-4.9,0.6
			c-2.3-0.3-4-1.6-4.9-3.3c1.6-1,3.6-1.6,5.5-1.3c-0.3-0.3-0.3-0.3-0.6-0.6c-1-1.6-1.3-3.3-1.3-4.9c-0.6,0.3-1.3,0-1.9-0.3
			c-0.3-0.3-0.6-1-0.3-1.6c-0.3,0-0.3,0-0.6,0c0,0.6,0,1-0.6,1.6c-0.6,0.6-1.9,0.6-2.3,0c-0.6-0.6-0.6-1.9,0-2.3
			c0.3-0.3,1-0.6,1.6-0.3c0-0.3,0-0.3,0-0.6c-0.6,0-1,0-1.3-0.6c-0.3-0.3-0.6-1-0.3-1.6c-1,1.3-2.6,1.9-4.6,2.3
			c-2.3,0.3-4.3-0.3-5.5-1.6c1-1.6,3-2.6,4.9-3c-0.3,0-0.3-0.3-0.6-0.3c-1.6-1.3-2.6-3.3-3-5.2c1.9-0.3,4,0.3,5.5,1.6
			c0.3,0.3,0.3,0.3,0.6,0.6c-0.3-1.9,0.3-4.3,1.6-5.5c2.3,1,3.6,3,3.6,4.9c0.3,1.9-0.3,3.6-1,5.2c0.6-0.3,1.6,0,1.9,0.3
			c0.3,0.3,0.6,1,0.3,1.6c0.3,0,0.3,0,0.6,0c0-0.6,0-1,0.6-1.3c0.6-0.6,1.9-0.6,2.3,0c0.6,0.6,0.6,1.9,0,2.3c-0.3,0.3-1,0.6-1.6,0.3
			c0,0.3,0,0.3,0,0.6c0.6,0,1,0,1.6,0.6c0.6,0.6,0.6,1.3,0.3,1.9c1.6,0.3,3.3,1.6,4.3,3c0,0.3,0.3,0.3,0.3,0.6
			c0.3-1.9,1.6-4,3.3-4.9c1,1.6,1.6,3.6,1.3,5.8c-0.3,1.9-1.6,4-3,4.9c0.6-0.3,1.6,0,1.9,1c0.3,0.6,0.3,1,0,1.6c0.3,0,0.3,0,0.6,0.3
			c0-0.6,0.3-1,1-1.3c1-0.3,1.9,0,2.3,1c0.3,1,0,1.9-1,2.3c-0.6,0.3-1,0.3-1.6,0c0,0.3,0,0.3-0.3,0.6c0.6,0,1,0.3,1.3,1
			c0.3,0.6,0,1.6-0.3,1.9c1.3,1,2.6,2.3,3.3,4.3c0,0.3,0,0.6,0.3,0.6c1-1.9,2.6-3.3,4.6-3.6c0.6,1.9,0.6,4-0.3,5.8
			c-1,1.6-2.3,3-4,3.6c0.6,0,1.3,0.6,1.6,1.3c0,0.6,0,1-0.3,1.6l0.3,0.3c0.3-0.3,0.6-1,1.3-1c1-0.3,1.9,0.3,1.9,1.3
			c0.3,1-0.3,1.9-1.3,1.9c-0.6,0-1,0-1.6-0.3c0,0.3-0.3,0.3-0.3,0.3c0.6,0.3,1,0.6,1,1.3c0,0.7-0.3,1.3-0.6,1.6
			c1,1.3,1.9,2.6,1.9,4.6c0,0.3,0,0.6,0,1c1.3-1.6,3.3-2.6,5.2-2.6c0.3,1.9-0.3,4-1.6,5.5c-1.3,1.6-3,2.6-4.9,2.6
			c0.6,0.3,1.3,1,1.3,1.6s-0.3,1-0.6,1.3l0.3,0.3c0.3-0.3,1-0.6,1.3-0.6c1,0,1.6,0.6,1.6,1.6c0,1-0.6,1.6-1.6,1.6
			c-0.6,0-1-0.3-1.3-0.6l-0.3,0.3c0.3,0.3,0.6,1,0.6,1.3c0,0.6-0.6,1.3-1.3,1.6c1,1.3,1.3,3.3,1,4.9c0,0.3,0,0.6,0,0.6
			c1.6-1.3,3.6-1.6,5.5-1.3c-0.3,1.9-1.3,4-3,5.2c-1.6,1.2-3.6,1.6-5.5,1.6c0.6,0.3,1.3,1.3,1,1.9c0,0.6-0.6,1-1,1.3l0.3,0.3
			c0.3-0.3,1-0.3,1.6-0.3c1,0.3,1.6,1.3,1.3,1.9c-0.3,1-1.3,1.6-1.9,1.3c-0.6,0-1-0.6-1.3-1l-0.3,0.3c0.3,0.3,0.6,1,0.3,1.6
			c-0.3,0.6-1,1.3-1.6,1.3c0.6,1.6,0.6,3.3-0.3,5.2c0,0.3-0.3,0.6-0.3,0.6c1.9-1,4-0.6,5.8,0c-0.6,1.9-1.9,3.3-4,4.3
			c-1.9,0.6-4,1-5.5,0.3c0.6,0.6,0.6,1.3,0.3,2.3c-0.3,0.6-0.6,0.6-1.3,1c0,0,0,0.3,0,0.6c0.3-0.3,1-0.3,1.6,0c1,0.3,1,1.6,0.6,2.3
			c-0.3,1-1.6,1-2.3,0.6c-0.7-0.4-0.6-0.6-1-1.3c-0.3,0-0.3,0-0.6,0c0.3,0.6,0.3,1,0,1.6c-0.3,0.6-1,1-1.9,1c0,1.6-0.6,3.3-1.6,4.6
			c-0.3,0.3-0.3,0.3-0.6,0.6c1.9-0.3,4.3,0.3,5.5,1.6c-1,1.6-3,2.6-5.2,3c-1.9,0.3-4-0.3-5.5-1.3c0.6,0.6,0.3,1.6-0.3,2.3
			c-0.3,0.3-1,0.6-1.6,0.3c0,0.3,0,0.3,0,0.6c0.6,0,1,0,1.3,0.6c0.6,0.6,0.6,1.9,0,2.3c-0.6,0.6-1.9,0.6-2.3,0
			c-0.3-0.3-0.6-1-0.3-1.6c-0.3,0-0.3,0-0.6,0c0,0.6,0,1-0.6,1.6c-0.6,0.6-1.9,0.6-2.3,0c-0.6-0.6-0.6-1.9,0-2.3
			c0.3-0.3,1-0.6,1.6-0.3c0-0.3,0-0.3,0-0.6c-0.6,0-1,0-1.6-0.6s-0.6-1.9,0-2.3c0.6-0.6,1.9-0.6,2.3,0c0.3,0.3,0.6,1,0.3,1.6
			c0.3,0,0.3,0,0.6,0C106.7,142.2,107,141.5,107.3,141.1 M41.1,35.6c-3.6,4-6.5,8.5-9.2,13.8l3-10.1c0,0,0-0.3-0.3-0.3l-2.6-1.3
			h-0.3l-7.1,12.7v0.3h0.3c0,0,4.9-5.8,5.8-7.1L30,52.7c0,1-0.6,1.9-1,3c-2.3,5.2-4,11.1-4.9,16.9l-0.3-11.1c0,0,0-0.3-0.3-0.3
			l-3-0.3c0,0-0.3,0-0.3,0.3l-3.3,14.1c0,0,0,0.3,0.3,0.3h0.3c0,0,3.3-7.1,4-8.5l1.9,9.2c-0.6,4.3-1,8.2-1,12.4c0,2.3,0,4.6,0.3,6.8
			L19.9,85l-0.3-0.3l-3,0.3c0,0-0.3,0-0.3,0.3l0.3,14.4c0,0,0,0.3,0.3,0.3c0,0,0.3,0,0.3-0.3c0,0,1.3-7.4,1.6-9.2l4.3,8.5
			c0.6,6.5,2.3,13,4.6,19.3l-5.5-9.2c0,0-0.3-0.3-0.3,0l-2.6,0.3l-0.3,0.3l4.3,13.8l0.3,0.3c0,0,0.3,0,0.3-0.3l0,0
			c0,0-0.6-7.8-1-9.2l6.1,6.8c2.6,6.1,5.5,11.7,9.5,16.6l-7.8-6.8h-0.3l-2.3,1.9v0.3l8.4,11.6h0.3c0,0,0,0,0-0.3l0,0
			c0,0-3.3-7.1-4-8.5l7.8,4.6c1,1.3,2.3,2.3,3.3,3.6c0.6,0.6,1.6,0.6,2.3,0c0.6-0.6,0.6-1.6,0-2.3c-1.3-1.3-2.3-2.6-3.6-4l-0.6-7.1
			c1,1.3,5.8,6.8,5.8,6.8H48v-0.3l-7.1-12.4c0,0-0.3-0.3-0.3,0l-2.6,1l-0.3,0.3l3,9.8c-4-4.9-7.1-10.8-9.5-17.2l1.6-7.8
			c0.6,1.3,4.3,8.5,4.3,8.5s0.3,0.3,0.3,0l0.3-0.3l-3.4-14l-0.3-0.3l-3,0.3c0,0-0.3,0-0.3,0.3v10.8c-2.3-6.1-3.6-12.4-4.3-19.3
			l3.6-7.1c0.3,1.6,1.9,9.2,1.9,9.2l0.3,0.3c0,0,0.3,0,0.3-0.3V84.8c0,0,0-0.3-0.3-0.3l-3-0.3c0,0-0.3,0-0.3,0.3l-2.6,10.4
			c0-2.3-0.3-4.6-0.3-6.8c0-4.3,0.3-8.5,1-12.7l4.9-6.1c0,1.6-0.3,9.5-0.3,9.5l0,0c0,0,0,0.3,0.3,0.3c0,0,0.3,0,0.3-0.3l3.6-14.1
			c0,0,0-0.3-0.3-0.3l-2.6-1h-0.3l-4.9,9.5c1.3-6.8,3.3-13.8,6.1-19.6l6.5-4.3c-0.6,1.3-3.3,8.8-3.3,8.8l0,0c0,0,0,0.3,0.3,0.3h0.3
			L45,45.6v-0.2l-2.3-1.9h-0.2l-7.8,7.4c2.6-4.9,5.5-9.5,8.8-13.4L54.5,28c0,0,0,0,0-0.3c0,0,0,0-0.3,0c0,0-3.3,1.9-5.8,3.3l7.1-9.2
			c0,0,0,0,0-0.3c0,0,0,0-0.3,0l-8.5,8.2c1.3-2.6,2.6-5.8,2.6-5.8s0,0,0-0.3c0,0,0,0-0.3,0L41.1,35.6L41.1,35.6z"/>
		<path fill="#A08729" d="M77.4,141.5L77.4,141.5c-21.2,0-38.8-23.8-38.8-53.5s17.2-53.5,38.8-53.5c21.2,0,38.8,23.8,38.8,53.5
			C116.2,117.6,98.4,141.5,77.4,141.5 M77.4,31.9c-22.8,0-41.8,25.2-41.8,56.2s18.5,56.5,41.4,56.5s41.4-25.2,41.4-56.5
			S100.1,31.9,77.4,31.9 M83.9,30.7l-6.5-4.6l-6.5,4.6l2.3-7.4l-6.1-4.6h7.8l2.6-7.4l2.6,7.4h7.8l-6.5,4.6L83.9,30.7z M118.4,146.8
			c-4.6,3-9.8,4.3-15.4,4.3s-11.1-1.6-15.4-4.3l-3.3,5.5l-9.8-6.1c0,0-1.9,3-3.6,5.5c-5.8-3.3-12.4-4.9-19.6-4.9
			c-7.8,0-15.1,2.3-21.2,5.8c0,0,4.3,7.1,5.8,9.2c4.6-3,9.8-4.3,15.4-4.3s11.1,1.6,15.4,4.3l3.6-5.5l9.8,6.1c0.6-1,2.3-3.3,3.6-5.5
			c5.8,3.3,12.4,4.9,19.6,4.9c7.8,0,15.1-2.3,21.2-5.8C124.2,155.8,119.3,148.4,118.4,146.8"/>
		<path fill="#FFFFFF" d="M64.3,156.8c-1.3-0.6-1-1.6-0.6-2.6c0.4-1,1-1.9,2.3-1.6c1.3,0.6,1,1.6,0.6,2.6
			C65.9,156.5,65.6,157.6,64.3,156.8 M64.3,156.2c-0.3-0.3-0.3-0.6,0-1.6c0.3-1,0.6-1.3,1-1.3c0.3,0.3,0.3,0.6,0,1.6
			C65.2,156.2,64.9,156.5,64.3,156.2 M59,155.2L59,155.2l1.3,0.3c1.6,0.3,1.9-1,1.9-1.6c0.3-1.3,0.3-2.3-0.6-2.6l-1.3-0.3L59,155.2z
			 M61,151.9h0.3c0.6,0.3,0.3,1,0.3,1.6c-0.3,1-0.6,1.3-1,1.3h-0.3L61,151.9z M55.1,154.5L55.1,154.5c1.6,0.3,1.6-1,1.9-1.9
			c0-1,0.3-2.3-1.3-2.3c-1.6-0.3-1.6,1-1.9,1.9C53.8,153.3,53.5,154.2,55.1,154.5 M55.1,153.9c-0.6,0-0.6-0.6-0.3-1.6
			c0-1,0.3-1.6,0.6-1.6c0.6,0,0.6,0.6,0.3,1.6C55.8,153.6,55.8,153.9,55.1,153.9 M49.9,154.2L49.9,154.2h1.6c1.6,0,1.6-1.6,1.6-2.3
			c0-1.3-0.3-2.3-1.3-2.3h-1.6L49.9,154.2z M50.9,150.7h0.3c0.6,0,0.6,0.6,0.6,1.6c0,1,0,1.6-0.6,1.6h-0.3V150.7z M47.9,152.9
			L47.9,152.9h-1l0.3-1.9l0,0L47.9,152.9z M46.6,154.5v-1h1.3l0.3,1h1l-1.6-4.6h-1.3l-0.6,4.6H46.6z M42.1,151v0.6l1-0.3l0.6,3.6
			l1-0.3l-0.6-3.6l1-0.3v-0.6L42.1,151z M42.4,154.2c0.3,1-0.3,1.3-1,1.6c-1,0.3-1.6-0.3-1.6-1l1-0.3c0,0.3,0.3,0.6,0.6,0.6
			s0.3-0.3,0.3-0.6c-0.3-0.6-1.9-0.3-2.3-1.3c-0.3-0.6,0-1.3,1-1.6c1-0.3,1.3,0,1.6,1l-1,0.3c0-0.3-0.3-0.6-0.6-0.3
			c-0.3,0-0.3,0.3-0.3,0.6C40.2,153.6,41.8,152.9,42.4,154.2 M39.4,156.5l-0.3-0.6l-1.3,0.6l-0.6-1.3l1.3-0.6l-0.3-0.6l-1.3,0.6
			l-0.3-1l1.3-0.6l-0.3-0.6l-2.3,1l1.9,4L39.4,156.5z M78.3,157.9c-1.3-0.6-0.6-1.6,0-2.6c0.6-1,1.3-1.9,2.6-1
			c1.3,0.6,0.6,1.6,0,2.6C80.2,157.6,79.6,158.5,78.3,157.9 M78.6,157.1c-0.3-0.3-0.3-0.6,0.3-1.6c0.6-1,1-1.3,1.3-1
			s0.3,0.6-0.3,1.6C79.3,157.1,79.3,157.6,78.6,157.1 M76.3,156.2l2.3-3.6l-0.6-0.3l-2.3,3.6L76.3,156.2z M74.1,152.6L74.1,152.6
			L74.1,152.6c0.6,0.6,0.6,1,0.3,1.3c0,0.3-0.3,0.3-0.3,0.6l0.6,0.3c0-0.3,0.3-1,0.6-1c0.3-0.6,0-1-0.3-1.3l0,0c0.6,0.3,1,0,1.3-0.3
			c0.3-0.6,0.3-1.3-0.3-1.6l-1.3-0.6l-2.3,3.6l0.7,0.4L74.1,152.6z M75,151l0.3,0.3c0.3,0,0.3,0.3,0,0.6c0,0.3-0.3,0.3-0.6,0.3
			l-0.3-0.3L75,151z M117.8,155.5c-1.3,0.6-1.9-0.3-2.3-1.6c-0.3-1-1-1.9,0.6-2.6c1.6-0.6,1.9,0.3,2.3,1.6
			C118.7,153.9,119,154.9,117.8,155.5 M117.4,154.9c-0.3,0.3-0.6-0.3-1.3-1.3c-0.3-1-0.6-1.6,0-1.6c0.3-0.3,0.6,0.3,1.3,1.3
			C117.8,154.2,118.1,154.9,117.4,154.9 M113.2,155.2L113.2,155.2L113.2,155.2c1-0.3,1,0.3,1,0.6s0,0.6,0.3,0.6l1-0.3
			c0,0-0.3-1-0.3-1.3c-0.3-0.6-0.6-0.6-1-0.6l0,0c0.6-0.3,0.6-0.6,0.3-1.3c-0.3-0.6-0.6-1-1.3-0.6l-1.6,0.3l1.3,4.3l1-0.3
			L113.2,155.2z M112.5,153.6h0.3c0.3,0,0.3,0,0.6,0.3c0,0.3,0,0.6-0.3,0.6h-0.3L112.5,153.6z M111.5,157.6l-1,0.3l-1-4.3l1-0.3
			L111.5,157.6z M109.9,157.9v-0.6l-1.6,0.3l-0.3-1.3l1.3-0.3v-0.6l-1.3,0.3l-0.3-1l1.3-0.3v-0.6l-2.3,0.3l0.6,4.3L109.9,157.9z
			 M103.7,158.5v-3.3l0,0l1.3,3.3h1.3l-0.3-4.3h-1v3l0,0l-1-3h-1.3l0.3,4.3H103.7z M100.8,156.8l-0.3-1.9l0,0l-0.6,1.9H100.8z
			 M99.5,158.5h-1l1.6-4.3h1.3l1,4.6h-1l-0.6-1.3h-1.3V158.5z M97.5,153.6l-0.6,3.3c0,0.3-0.3,0.3-0.3,0.3c-0.3,0-0.3-0.6-0.3-1h-1
			c0,1-0.3,1.6,1,1.6c0.6,0,1.3,0,1.3-1l0.6-3.3h-0.7V153.6z M92.9,157.1l-2.6-0.6l1.3-4.3l2.3,0.6l-0.3,0.6l-1-0.3l-0.3,1l1.3,0.3
			l-0.3,0.6l-1.3-0.3l-0.3,1.3l1.3,0.3v0.7H92.9z M86.4,154.5L86.4,154.5l1.3,0.6c1.3,0.6,1.9-0.6,2.3-1.3c0.6-1.3,0.6-1.9-0.3-2.6
			l-1.3-0.6L86.4,154.5z M89,151.5l0.3,0.3c0.6,0.3,0.3,1,0,1.6c-0.3,1-0.6,1.3-1.3,1h-0.3L89,151.5z"/>
	</g>
</g>
</svg>
