<?xml version="1.0" encoding="utf-8"?>
<!-- Generator: Adobe Illustrator 21.1.0, SVG Export Plug-In . SVG Version: 6.00 Build 0)  -->
<svg version="1.1" id="Layer_1" xmlns="http://www.w3.org/2000/svg" xmlns:xlink="http://www.w3.org/1999/xlink" x="0px" y="0px"
	 viewBox="0 0 67.5 67.5" style="enable-background:new 0 0 67.5 67.5;" xml:space="preserve">
<style type="text/css">
	.st0{fill:#292C95;}
	.st1{clip-path:url(#SVGID_2_);}
	.st2{fill:#999ACC;}
	.st3{fill:#4D4EA6;}
</style>
<rect class="st0" width="67.3" height="67.3"/>
<g>
	<g>
		<defs>
			<rect id="SVGID_1_" width="67.5" height="67.5"/>
		</defs>
		<clipPath id="SVGID_2_">
			<use xlink:href="#SVGID_1_"  style="overflow:visible;"/>
		</clipPath>
		<g class="st1">
			<g>
				<path class="st2" d="M39.3,50.6l-5-4c-0.1-0.1-0.3-0.1-0.5,0l-5,4c-0.1,0.1-0.2,0.3-0.1,0.4l5,15.1c0.1,0.3,0.6,0.3,0.7,0
					l5-15.1C39.4,50.8,39.4,50.7,39.3,50.6z"/>
				<path class="st2" d="M20.1,31.2c0.7,7.1,6.7,12.6,14,12.6c7.1,0,13-5.3,13.9-12.2c0,0,1.4-5.5,1.5-6.7c0.1-1.1,1-2,1-2
					c-0.5,0-0.6-0.7-1-1s-0.9-0.5-0.9-0.5c2.1-3.7,0-6.3,0-6.3c0.2,1.9-0.7,2.8-0.7,2.8c-0.4-4-2.2-6.6-5.3-7.9
					c-3.1-1.2-12.1-2-12.1-2c1.5,0.1,2,2.6,2,2.6c-10.6-2-8.6-5.7-8.6-5.7C18.8,11,20.1,17,20.1,17c-1.3-0.9-1.5-2.4-1.5-2.4
					s-0.9,2.9,0,5.3C19.4,22.2,20.1,31.2,20.1,31.2z"/>
				<path class="st2" d="M21.7,44.5C11.6,45.9,4,50.8,1.6,68.5h29L23,45.3C22.8,44.8,22.2,44.5,21.7,44.5z"/>
				<path class="st2" d="M46.4,44.7c-0.6-0.1-1.1,0.3-1.3,0.8l-7.6,23h29C64,51.3,56.4,46.2,46.4,44.7z M55.8,62.7
					c0,0.2-0.2,0.4-0.4,0.4H44.6c-0.2,0-0.4-0.2-0.4-0.4v-1.1c0-0.2,0.2-0.4,0.4-0.4h10.8c0.2,0,0.4,0.2,0.4,0.4V62.7z"/>
			</g>
			<path class="st3" d="M29.5,51l5-4c0.1-0.1,0.2-0.1,0.3,0l-0.5-0.4c-0.1-0.1-0.3-0.1-0.5,0l-5,4c-0.1,0.1-0.2,0.3-0.1,0.4l5,15.1
				c0.1,0.3,0.4,0.3,0.6,0.2l-4.9-14.9C29.3,51.3,29.4,51.1,29.5,51z"/>
			<path class="st3" d="M20.8,17.4c0,0-1.2-5.4,3.1-11.2c-0.3-0.8,0-1.4,0-1.4c-4.6,5.6-3.9,11.1-3.8,12
				C20.3,17,20.5,17.2,20.8,17.4z"/>
			<path class="st3" d="M20.1,31.2c0.4,4.2,2.8,7.9,6.1,10.2c-3-2.3-5-5.8-5.4-9.7c0,0-0.6-9.1-1.5-11.4c-0.6-1.6-0.4-3.4-0.2-4.5
				c-0.4-0.7-0.5-1.2-0.5-1.2s-0.9,2.9,0,5.3C19.4,22.2,20.1,31.2,20.1,31.2z"/>
			<path class="st3" d="M44.7,11.4c-0.6-0.5-1.3-0.9-2.1-1.3C39.5,8.8,30.5,8,30.5,8c0.4,0,0.7,0.2,1,0.5c1.7,0.2,9.1,0.9,11.8,2.1
				C43.8,10.8,44.3,11.1,44.7,11.4z"/>
			<path class="st3" d="M31.6,8.6c0.7,0.8,0.9,2,0.9,2C29.1,10,27,9.2,25.7,8.3c1.2,1,3.4,2,7.4,2.7C33.1,11,32.8,9,31.6,8.6z"/>
			<path class="st3" d="M22.3,45c0.2,0,0.3,0,0.4,0c-0.2-0.3-0.7-0.6-1.1-0.5c-10,1.4-17.6,6.3-20,24h0.7
				C4.8,51.1,12.4,46.3,22.3,45z"/>
			<path class="st3" d="M56,61.6h-0.2v1.1c0,0.2-0.2,0.4-0.4,0.4H44.8l0,0c0,0.2,0.2,0.4,0.4,0.4H56c0.2,0,0.4-0.2,0.4-0.4V62
				C56.4,61.8,56.3,61.6,56,61.6z"/>
			<path class="st3" d="M47,45.1c3.7,0.6,7,1.6,9.9,3.5c-3-2.2-6.6-3.4-10.5-4c-0.6-0.1-1.1,0.3-1.3,0.8l-7.6,23h0.8l7.4-22.6
				C45.9,45.4,46.5,45,47,45.1z"/>
		</g>
	</g>
</g>
</svg>
