<?xml version="1.0" encoding="utf-8"?>
<!-- Generator: Adobe Illustrator 19.1.1, SVG Export Plug-In . SVG Version: 6.00 Build 0)  -->
<svg version="1.1" id="Camada_1" xmlns="http://www.w3.org/2000/svg" xmlns:xlink="http://www.w3.org/1999/xlink" x="0px" y="0px"
	 viewBox="0 0 300 400" style="enable-background:new 0 0 300 400;" xml:space="preserve">
<style type="text/css">
	.st0{opacity:0.3;fill:#231F20;stroke:#231F20;stroke-width:1.7018;stroke-miterlimit:22.9256;}
	.st1{fill:#0DA649;stroke:#FFFFFF;stroke-width:1.7018;stroke-miterlimit:22.9256;}
	.st2{opacity:0.3;clip-path:url(#SVGID_2_);fill:#231F20;stroke:#231F20;stroke-width:1.7018;stroke-miterlimit:22.9256;}
	.st3{opacity:0.3;clip-path:url(#SVGID_4_);fill:#231F20;stroke:#231F20;stroke-width:1.7018;stroke-miterlimit:22.9256;}
	.st4{fill:#FFFFFF;stroke:#FFFFFF;stroke-width:0.2916;stroke-miterlimit:22.9256;}
	.st5{fill:#0DA649;stroke:#FFFFFF;stroke-width:0.4125;stroke-miterlimit:22.9256;}
</style>
<g>
	<polygon class="st0" points="293.9,172.9 274.2,198.2 282.6,228.5 255.2,243.2 252,273.9 221.3,277.1 206.6,304.5 176.3,296 
		151,315.7 125.7,296 95.4,304.5 80.7,277.1 50,273.9 46.8,243.2 19.4,228.5 27.8,198.2 8.1,172.9 27.8,147.5 19.4,117.3 
		46.8,102.6 50,71.9 80.7,68.6 95.4,41.2 125.7,49.7 151,30 176.3,49.7 206.6,41.2 221.3,68.6 252,71.9 255.2,102.6 282.6,117.3 
		274.2,147.5 	"/>
	<g>
		<polygon class="st1" points="96.6,385.7 75.2,352.5 36.6,360.8 63.5,295.9 90.3,231 120.3,243.5 150.3,255.9 123.5,320.8 		"/>
		<polygon class="st1" points="205.4,385.7 226.8,352.5 265.4,360.8 238.5,295.9 211.7,231 181.7,243.5 151.7,255.9 178.5,320.8 		
			"/>
	</g>
	<g>
		<defs>
			<polygon id="SVGID_1_" points="205.4,385.7 226.8,352.5 265.4,360.8 241.6,295.5 214.7,230.6 181.7,243.5 148.9,257.1 175.8,322 
							"/>
		</defs>
		<clipPath id="SVGID_2_">
			<use xlink:href="#SVGID_1_"  style="overflow:visible;"/>
		</clipPath>
		<polygon class="st2" points="293.9,172.9 274.2,198.2 282.6,228.5 255.2,243.2 252,273.9 221.3,277.1 206.6,304.5 176.3,296 
			151,315.7 125.7,296 95.4,304.5 80.7,277.1 50,273.9 46.8,243.2 19.4,228.5 27.8,198.2 8.1,172.9 27.8,147.5 19.4,117.3 
			46.8,102.6 50,71.9 80.7,68.6 95.4,41.2 125.7,49.7 151,30 176.3,49.7 206.6,41.2 221.3,68.6 252,71.9 255.2,102.6 282.6,117.3 
			274.2,147.5 		"/>
	</g>
	<g>
		<defs>
			<polygon id="SVGID_3_" points="96.6,385.7 75.2,352.5 36.6,360.8 60.5,295.3 87.4,230.4 120.3,243.5 153.4,256.5 126.6,321.3 			
				"/>
		</defs>
		<clipPath id="SVGID_4_">
			<use xlink:href="#SVGID_3_"  style="overflow:visible;"/>
		</clipPath>
		<polygon class="st3" points="293.9,172.9 274.2,198.2 282.6,228.5 255.2,243.2 252,273.9 221.3,277.1 206.6,304.5 176.3,296 
			151,315.7 125.7,296 95.4,304.5 80.7,277.1 50,273.9 46.8,243.2 19.4,228.5 27.8,198.2 8.1,172.9 27.8,147.5 19.4,117.3 
			46.8,102.6 50,71.9 80.7,68.6 95.4,41.2 125.7,49.7 151,30 176.3,49.7 206.6,41.2 221.3,68.6 252,71.9 255.2,102.6 282.6,117.3 
			274.2,147.5 		"/>
	</g>
	<polygon class="st1" points="293.9,158.9 274.2,184.2 282.6,214.5 255.2,229.2 252,259.9 221.3,263.1 206.6,290.5 176.3,282 
		151,301.7 125.7,282 95.4,290.5 80.7,263.1 50,259.9 46.8,229.2 19.4,214.5 27.8,184.2 8.1,158.9 27.8,133.6 19.4,103.3 46.8,88.6 
		50,57.9 80.7,54.6 95.4,27.3 125.7,35.7 151,16 176.3,35.7 206.6,27.3 221.3,54.6 252,57.9 255.2,88.6 282.6,103.3 274.2,133.6 	
		"/>
	<circle class="st4" cx="151" cy="158.9" r="101"/>
	<polygon class="st5" points="151,86.7 173.4,135 226.9,141.9 187.2,177.5 197.9,231 151,203.9 104.1,231 114.8,177.5 75.1,141.9 
		128.6,135 	"/>
	<path class="st5" d="M151,149.3"/>
</g>
</svg>
